{
.appVersion = "3337";
.formatVersion = 3;
customParameters = (
{
name = vendorID;
value = MACR;
},
{
name = panose;
value = (
0,
0,
4,
0,
0,
0,
0,
0,
0,
0
);
},
{
name = unicodeRanges;
value = (
0,
1,
71
);
},
{
name = fsType;
value = (
2
);
},
{
name = glyphOrder;
value = (
.notdef,
.null,
CR,
space,
noName00004,
noName00005,
exclam,
quotedbl,
numbersign,
dollar,
percent,
ampersand,
quotesingle,
parenleft,
parenright,
asterisk,
plus,
comma,
hyphen,
period,
slash,
zero,
one,
two,
three,
four,
five,
six,
seven,
eight,
nine,
colon,
semicolon,
less,
equal,
greater,
question,
at,
A,
B,
C,
D,
E,
F,
G,
H,
I,
J,
K,
L,
M,
N,
O,
P,
Q,
R,
S,
T,
U,
V,
W,
X,
Y,
Z,
bracketleft,
backslash,
bracketright,
asciicircum,
underscore,
grave,
a,
b,
c,
d,
e,
f,
g,
h,
i,
j,
k,
l,
m,
n,
o,
p,
q,
r,
s,
t,
u,
v,
w,
x,
y,
z,
braceleft,
bar,
braceright,
asciitilde,
exclamdown,
cent,
sterling,
currency,
yen,
brokenbar,
section,
dieresis,
copyright,
ordfeminine,
guillemotleft,
logicalnot,
registered,
overscore,
degree,
plusminus,
twosuperior,
threesuperior,
acute,
mu1,
paragraph,
middot,
cedilla,
onesuperior,
ordmasculine,
guillemotright,
onequarter,
onehalf,
threequarters,
questiondown,
Agrave,
Aacute,
Acircumflex,
Atilde,
Adieresis,
Aring,
AE,
Ccedilla,
Egrave,
Eacute,
Ecircumflex,
Edieresis,
Igrave,
Iacute,
Icircumflex,
Idieresis,
Eth,
Ntilde,
Ograve,
Oacute,
Ocircumflex,
Otilde,
Odieresis,
multiply,
Oslash,
Ugrave,
Uacute,
Ucircumflex,
Udieresis,
Yacute,
Thorn,
germandbls,
agrave,
aacute,
acircumflex,
atilde,
adieresis,
aring,
ae,
ccedilla,
egrave,
eacute,
ecircumflex,
edieresis,
igrave,
iacute,
icircumflex,
idieresis,
eth,
ntilde,
ograve,
oacute,
ocircumflex,
otilde,
odieresis,
divide,
oslash,
ugrave,
uacute,
ucircumflex,
udieresis,
yacute,
thorn,
ydieresis,
Amacron,
amacron,
Emacron,
emacron,
Imacron,
imacron,
Omacron,
omacron,
Umacron,
umacron,
U02c0,
U02c1,
U02d2,
U02d3,
quoteleft,
quoteright,
quotedblleft,
quotedblright,
noName00212,
U1e06,
U1e07,
U1e0c,
U1e0d,
U1e0e,
U1e0f,

glyphs = (
{
glyphname = .notdef;
lastChange = "2025-02-10 17:39:31 +0000";
layers = (
{
background = {
shapes = (
{
closed = 1;
nodes = (
(896,1400,l),
(128,1400,l),
(128,0,l),
(896,0,l)
);
},
{
closed = 1;
nodes = (
(768,1272,l),
(768,128,l),
(256,128,l),
(256,1272,l)
);
}
);
};
layerId = m01;
shapes = (
{
closed = 1;
nodes = (
(896,0,l),
(896,1400,l),
(128,1400,l),
(128,0,l)
);
},
{
closed = 1;
nodes = (
(256,1272,l),
(768,1272,l),
(768,128,l),
(256,128,l)
);
}
);
width = 1024;
}
);
note = .notdef;
},
{
glyphname = exclam;
lastChange = "2025-02-10 17:39:31 +0000";
layers = (
{
background = {
shapes = (
{
closed = 1;
nodes = (
(297,628,o),
(297,644,qs),
(297,731,o),
(225,731,qs),
(187,731,o),
(153,678,o),
(153,644,qs),
(153,635,o),
(157,601,o),
(157,592,q),
(217,190,l),
(233,190,l),
(293,592,ls)
);
},
{
closed = 1;
nodes = (
(147,71,o),
(147,45,qs),
(147,21,o),
(196,-14,o),
(225,-14,qs),
(255,-14,o),
(303,19,o),
(303,45,qs),
(303,71,o),
(259,110,o),
(225,110,qs),
(192,110,o)
);
}
);
};
layerId = m01;
shapes = (
{
closed = 1;
nodes = (
(233,190,l),
(293,592,ls),
(296,616,o),
(297,633,o),
(297,644,cs),
(297,702,o),
(273,731,o),
(225,731,cs),
(174,731,o),
(153,689,o),
(153,644,cs),
(155,618,l),
(157,592,l),
(217,190,l)
);
},
{
closed = 1;
nodes = (
(265,-14,o),
(303,10,o),
(303,45,cs),
(303,80,o),
(270,110,o),
(225,110,cs),
(181,110,o),
(147,80,o),
(147,45,cs),
(147,13,o),
(186,-14,o),
(225,-14,cs)
);
}
);
width = 450;
}
);
note = exclam;
unicode = 33;
},
{
glyphname = quotedbl;
lastChange = "2025-02-10 17:39:31 +0000";
layers = (
{
background = {
shapes = (
{
closed = 1;
nodes = (
(211,694,l),
(211,713,o),
(177,741,o),
(154,741,qs),
(130,741,o),
(94,710,o),
(94,694,q),
(140,482,l),
(166,482,l)
);
},
{
closed = 1;
nodes = (
(455,694,l),
(455,713,o),
(421,741,o),
(398,741,qs),
(374,741,o),
(340,713,o),
(340,694,q),
(383,482,l),
(412,482,l)
);
}
);
};
layerId = m01;
shapes = (
{
closed = 1;
nodes = (
(166,482,l),
(211,694,l),
(211,719,o),
(185,741,o),
(154,741,cs),
(122,741,o),
(94,715,o),
(94,694,c),
(140,482,l)
);
},
{
closed = 1;
nodes = (
(412,482,l),
(455,694,l),
(455,719,o),
(429,741,o),
(398,741,cs),
(366,741,o),
(340,719,o),
(340,694,c),
(383,482,l)
);
}
);
width = 551;
}
);
note = quotedbl;
unicode = 34;
},
{
glyphname = numbersign;
lastChange = "2025-02-10 17:39:31 +0000";
layers = (
{
background = {
shapes = (
{
closed = 1;
nodes = (
(500,294,l),
(527,438,l),
(670,438,l),
(670,498,l),
(539,498,l),
(578,716,l),
(500,716,l),
(459,498,l),
(281,498,l),
(322,716,l),
(244,716,l),
(201,498,l),
(41,498,l),
(41,438,l),
(191,438,l),
(162,294,l),
(6,294,l),
(6,234,l),
(150,234,l),
(105,0,l),
(185,0,l),
(230,234,l),
(410,234,l),
(369,0,l),
(447,0,l),
(488,234,l),
(635,234,l),
(635,294,l)
);
},
{
closed = 1;
nodes = (
(422,294,l),
(240,294,l),
(269,438,l),
(449,438,l)
);
}
);
};
layerId = m01;
shapes = (
{
closed = 1;
nodes = (
(185,0,l),
(230,234,l),
(410,234,l),
(369,0,l),
(447,0,l),
(488,234,l),
(635,234,l),
(635,294,l),
(500,294,l),
(527,438,l),
(670,438,l),
(670,498,l),
(539,498,l),
(578,716,l),
(500,716,l),
(459,498,l),
(281,498,l),
(322,716,l),
(244,716,l),
(201,498,l),
(41,498,l),
(41,438,l),
(191,438,l),
(162,294,l),
(6,294,l),
(6,234,l),
(150,234,l),
(105,0,l)
);
},
{
closed = 1;
nodes = (
(269,438,l),
(449,438,l),
(422,294,l),
(240,294,l)
);
}
);
width = 676;
}
);
note = numbersign;
unicode = 35;
},
{
glyphname = dollar;
lastChange = "2025-02-10 17:39:31 +0000";
layers = (
{
background = {
shapes = (
{
closed = 1;
nodes = (
(171,0,o),
(311,0,q),
(311,-93,l),
(356,-93,l),
(356,0,l),
(469,6,o),
(616,106,o),
(616,192,qs),
(616,251,o),
(542,334,o),
(444,385,o),
(356,423,q),
(356,688,l),
(435,685,o),
(543,603,o),
(555,541,q),
(573,541,l),
(573,661,l),
(487,714,o),
(356,716,q),
(356,786,l),
(311,786,l),
(311,716,l),
(212,715,o),
(69,628,o),
(69,550,qs),
(69,501,o),
(141,422,o),
(232,373,o),
(311,336,q),
(311,30,l),
(113,32,o),
(80,195,q),
(59,195,l),
(59,56,l)
);
},
{
closed = 1;
nodes = (
(307,444,o),
(234,485,o),
(197,513,o),
(172,553,o),
(172,577,qs),
(172,623,o),
(270,688,o),
(311,688,q),
(311,441,l)
);
},
{
closed = 1;
nodes = (
(510,253,o),
(510,164,qs),
(510,107,o),
(428,37,o),
(356,30,q),
(356,317,l)
);
}
);
};
layerId = m01;
shapes = (
{
closed = 1;
nodes = (
(356,-93,l),
(356,0,l),
(507,8,o),
(616,77,o),
(616,192,cs),
(616,271,o),
(558,326,o),
(493,360,cs),
(460,377,o),
(415,398,o),
(356,423,c),
(356,688,l),
(461,684,o),
(539,624,o),
(555,541,c),
(573,541,l),
(573,661,l),
(516,696,o),
(443,715,o),
(356,716,c),
(356,786,l),
(311,786,l),
(311,716,l),
(179,715,o),
(69,654,o),
(69,550,cs),
(69,485,o),
(126,430,o),
(187,398,cs),
(217,381,o),
(258,361,o),
(311,336,c),
(311,30,l),
(179,31,o),
(102,86,o),
(80,195,c),
(59,195,l),
(59,56,l),
(134,19,o),
(218,0,o),
(311,0,c),
(311,-93,l)
);
},
{
closed = 1;
nodes = (
(356,317,l),
(459,274,o),
(510,223,o),
(510,164,cs),
(510,88,o),
(452,39,o),
(356,30,c)
);
},
{
closed = 1;
nodes = (
(270,472,o),
(234,485,o),
(216,499,cs),
(191,518,o),
(172,545,o),
(172,577,cs),
(172,638,o),
(256,688,o),
(311,688,c),
(311,441,l)
);
}
);
width = 676;
}
);
note = dollar;
unicode = 36;
},
{
glyphname = percent;
lastChange = "2025-02-10 17:39:31 +0000";
layers = (
{
background = {
shapes = (
{
closed = 1;
nodes = (
(778,-14,qs),
(838,-14,o),
(963,57,o),
(1045,186,o),
(1045,267,qs),
(1045,314,o),
(965,387,o),
(901,387,qs),
(828,387,o),
(690,310,o),
(606,190,o),
(606,133,qs),
(606,-14,o)
);
},
{
closed = 1;
nodes = (
(793,731,l),
(760,696,o),
(650,657,o),
(590,657,qs),
(524,657,o),
(484,682,qs),
(435,716,o),
(375,716,qs),
(302,716,o),
(165,638,o),
(82,516,o),
(82,459,qs),
(82,389,o),
(165,311,o),
(244,311,qs),
(303,311,o),
(433,388,o),
(518,514,o),
(518,583,qs),
(518,594,o),
(510,634,o),
(510,641,q),
(540,633,o),
(576,633,qs),
(659,633,o),
(742,661,q),
(744,659,l),
(273,-14,l),
(336,-14,l),
(856,731,l)
);
},
{
closed = 1;
nodes = (
(916,351,qs),
(959,351,o),
(1008,296,o),
(1008,261,qs),
(1008,214,o),
(951,99,o),
(852,18,o),
(793,18,qs),
(711,18,o),
(711,94,qs),
(711,155,o),
(764,242,qs),
(827,351,o)
);
},
{
closed = 1;
nodes = (
(429,432,o),
(331,354,o),
(269,349,q),
(185,349,o),
(185,430,qs),
(185,497,o),
(257,614,o),
(352,685,o),
(379,685,qs),
(391,685,o),
(445,655,o),
(473,649,q),
(475,643,o),
(481,621,o),
(484,609,o),
(484,600,qs),
(484,546,o)
);
}
);
};
layerId = m01;
shapes = (
{
closed = 1;
nodes = (
(336,-14,l),
(856,731,l),
(793,731,l),
(749,684,o),
(670,657,o),
(590,657,cs),
(546,657,o),
(511,665,o),
(484,682,cs),
(451,705,o),
(415,716,o),
(375,716,cs),
(278,716,o),
(179,658,o),
(124,577,cs),
(96,536,o),
(82,497,o),
(82,459,cs),
(82,366,o),
(139,311,o),
(244,311,cs),
(323,311,o),
(419,367,o),
(476,451,cs),
(504,493,o),
(518,537,o),
(518,583,cs),
(518,590,o),
(517,601,o),
(514,614,cs),
(511,627,o),
(510,636,o),
(510,641,c),
(530,636,o),
(552,633,o),
(576,633,cs),
(631,633,o),
(687,642,o),
(742,661,c),
(744,659,l),
(273,-14,l)
);
},
{
closed = 1;
nodes = (
(213,349,o),
(185,376,o),
(185,430,cs),
(185,519,o),
(241,602,o),
(305,650,cs),
(336,673,o),
(361,685,o),
(379,685,cs),
(387,685,o),
(400,680,o),
(418,670,cs),
(436,660,o),
(454,653,o),
(473,649,c),
(479,630,o),
(484,613,o),
(484,600,cs),
(484,494,o),
(399,359,o),
(269,349,c)
);
},
{
closed = 1;
nodes = (
(858,-14,o),
(949,36,o),
(1004,122,cs),
(1031,165,o),
(1045,213,o),
(1045,267,cs),
(1045,330,o),
(986,387,o),
(901,387,cs),
(804,387,o),
(704,330,o),
(648,250,cs),
(620,210,o),
(606,171,o),
(606,133,cs),
(606,35,o),
(663,-14,o),
(778,-14,cs)
);
},
{
closed = 1;
nodes = (
(738,18,o),
(711,43,o),
(711,94,cs),
(711,135,o),
(729,184,o),
(764,242,cs),
(806,315,o),
(857,351,o),
(916,351,cs),
(973,351,o),
(1008,308,o),
(1008,261,cs),
(1008,168,o),
(917,18,o),
(793,18,cs)
);
}
);
width = 1126;
}
);
note = percent;
unicode = 37;
},
{
glyphname = ampersand;
lastChange = "2025-02-10 17:39:31 +0000";
layers = (
{
background = {
shapes = (
{
closed = 1;
nodes = (
(669,441,l),
(718,438,o),
(755,413,o),
(755,387,qs),
(755,348,o),
(678,236,o),
(633,192,q),
(543,282,o),
(454,414,q),
(663,487,o),
(663,602,qs),
(663,662,o),
(557,731,o),
(479,731,qs),
(390,731,o),
(272,631,o),
(272,559,qs),
(272,511,o),
(319,408,q),
(258,383,o),
(140,311,o),
(57,212,o),
(57,156,qs),
(57,74,o),
(183,-14,o),
(297,-14,qs),
(449,-14,o),
(579,84,q),
(698,-14,o),
(811,-14,qs),
(855,-14,o),
(921,12,o),
(974,61,o),
(1014,108,q),
(993,120,l),
(943,62,o),
(872,62,qs),
(812,62,o),
(720,112,o),
(665,159,q),
(776,293,o),
(817,349,qs),
(840,382,o),
(870,415,o),
(920,437,o),
(960,441,q),
(960,461,l),
(669,461,l)
);
},
{
closed = 1;
nodes = (
(498,475,o),
(434,450,q),
(379,539,o),
(379,594,qs),
(379,697,o),
(485,697,qs),
(530,697,o),
(592,643,o),
(592,606,qs),
(592,558,o)
);
},
{
closed = 1;
nodes = (
(262,333,o),
(340,370,q),
(463,194,o),
(547,114,q),
(503,82,o),
(397,42,o),
(356,42,qs),
(287,42,o),
(180,132,o),
(180,187,qs),
(180,250,o)
);
}
);
};
layerId = m01;
shapes = (
{
closed = 1;
nodes = (
(398,-14,o),
(492,19,o),
(579,84,c),
(658,19,o),
(736,-14,o),
(811,-14,cs),
(870,-14,o),
(912,4,o),
(948,37,cs),
(965,53,o),
(987,77,o),
(1014,108,c),
(993,120,l),
(960,81,o),
(919,62,o),
(872,62,cs),
(792,62,o),
(738,96,o),
(665,159,c),
(739,248,o),
(790,312,o),
(817,349,cs),
(848,393,o),
(862,411,o),
(895,426,cs),
(912,433,o),
(933,438,o),
(960,441,c),
(960,461,l),
(669,461,l),
(669,441,l),
(734,437,o),
(755,422,o),
(755,387,cs),
(755,335,o),
(693,251,o),
(633,192,c),
(573,252,o),
(513,326,o),
(454,414,c),
(593,463,o),
(663,525,o),
(663,602,cs),
(663,682,o),
(583,731,o),
(479,731,cs),
(360,731,o),
(272,655,o),
(272,559,cs),
(272,527,o),
(288,477,o),
(319,408,c),
(238,375,o),
(154,328,o),
(99,262,cs),
(71,229,o),
(57,193,o),
(57,156,cs),
(57,47,o),
(145,-14,o),
(297,-14,cs)
);
},
{
closed = 1;
nodes = (
(264,42,o),
(180,114,o),
(180,187,cs),
(180,271,o),
(236,321,o),
(340,370,c),
(422,253,o),
(491,167,o),
(547,114,c),
(488,71,o),
(411,42,o),
(356,42,cs)
);
},
{
closed = 1;
nodes = (
(397,509,o),
(379,557,o),
(379,594,cs),
(379,663,o),
(414,697,o),
(485,697,cs),
(545,697,o),
(592,655,o),
(592,606,cs),
(592,542,o),
(519,483,o),
(434,450,c)
);
}
);
width = 1050;
}
);
note = ampersand;
unicode = 38;
},
{
glyphname = quotesingle;
lastChange = "2025-02-10 17:39:31 +0000";
layers = (
{
background = {
shapes = (
{
closed = 1;
nodes = (
(220,636,o),
(220,766,q),
(60,766,l),
(60,636,o),
(88,494,q),
(196,494,l)
);
}
);
};
layerId = m01;
shapes = (
{
closed = 1;
nodes = (
(196,494,l),
(212,589,o),
(220,679,o),
(220,766,c),
(60,766,l),
(60,679,o),
(69,589,o),
(88,494,c)
);
}
);
width = 278;
}
);
note = quotesingle;
unicode = 39;
},
{
glyphname = parenleft;
lastChange = "2025-02-10 17:39:31 +0000";
layers = (
{
background = {
shapes = (
{
closed = 1;
nodes = (
(210,274,qs),
(210,502,o),
(336,778,q),
(236,778,l),
(70,542,o),
(70,278,qs),
(70,22,o),
(233,-225,q),
(334,-225,l),
(210,45,o)
);
}
);
};
layerId = m01;
shapes = (
{
closed = 1;
nodes = (
(334,-225,l),
(251,-45,o),
(210,121,o),
(210,274,cs),
(210,426,o),
(252,594,o),
(336,778,c),
(236,778,l),
(125,621,o),
(70,454,o),
(70,278,cs),
(70,107,o),
(124,-60,o),
(233,-225,c)
);
}
);
width = 429;
}
);
note = parenleft;
unicode = 40;
},
{
glyphname = parenright;
lastChange = "2025-02-10 17:39:31 +0000";
layers = (
{
background = {
shapes = (
{
closed = 1;
nodes = (
(361,20,o),
(361,282,qs),
(361,539,o),
(194,775,q),
(95,775,l),
(220,499,o),
(220,271,qs),
(220,38,o),
(96,-228,q),
(197,-228,l)
);
}
);
};
layerId = m01;
shapes = (
{
closed = 1;
nodes = (
(197,-228,l),
(306,-63,o),
(361,107,o),
(361,282,cs),
(361,453,o),
(305,618,o),
(194,775,c),
(95,775,l),
(178,591,o),
(220,423,o),
(220,271,cs),
(220,116,o),
(179,-51,o),
(96,-228,c)
);
}
);
width = 465;
}
);
note = parenright;
unicode = 41;
},
{
glyphname = asterisk;
lastChange = "2025-02-10 17:39:31 +0000";
layers = (
{
background = {
shapes = (
{
closed = 1;
nodes = (
(204,534,q),
(275,418,l),
(355,470,l),
(328,501,o),
(325,505,qs),
(263,575,l),
(339,588,o),
(397,601,q),
(369,696,l),
(281,658,o),
(237,638,q),
(252,741,o),
(252,778,q),
(159,778,l),
(159,725,o),
(172,640,q),
(117,673,o),
(49,701,q),
(18,609,l),
(60,595,o),
(152,575,q),
(104,532,o),
(52,474,q),
(132,414,l),
(173,478,o)
);
}
);
};
layerId = m01;
shapes = (
{
closed = 1;
nodes = (
(159,457,o),
(183,497,o),
(204,534,c),
(275,418,l),
(355,470,l),
(325,505,l),
(263,575,l),
(314,584,o),
(358,592,o),
(397,601,c),
(369,696,l),
(237,638,l),
(247,707,o),
(252,753,o),
(252,778,c),
(159,778,l),
(159,743,o),
(163,697,o),
(172,640,c),
(135,662,o),
(94,682,o),
(49,701,c),
(18,609,l),
(46,600,o),
(91,588,o),
(152,575,c),
(120,546,o),
(87,513,o),
(52,474,c),
(132,414,l)
);
}
);
width = 425;
}
);
note = asterisk;
unicode = 42;
},
{
glyphname = plus;
lastChange = "2025-02-10 17:47:16 +0000";
layers = (
{
background = {
shapes = (
{
closed = 1;
nodes = (
(306,627,l),
(306,597,ls),
(306,519,o),
(310,411,q),
(69,412,l),
(75,373,l),
(66,268,l),
(305,276,l),
(310,0,l),
(399,-3,o),
(431,-3,qs),
(448,-3,o),
(450,-2,q),
(465,0,l),
(467,137,o),
(467,266,q),
(670,264,l),
(678,414,l),
(467,413,l),
(465,620,l)
);
}
);
};
layerId = m01;
shapes = (
{
closed = 1;
nodes = (
(442,-3,o),
(449,-3,o),
(450,-2,c),
(465,0,l),
(467,266,l),
(670,264,l),
(678,414,l),
(467,413,l),
(465,620,l),
(306,627,l),
(306,597,ls),
(306,545,o),
(307,483,o),
(310,411,c),
(69,412,l),
(75,373,l),
(66,268,l),
(305,276,l),
(310,0,l),
(431,-3,ls)
);
}
);
width = 738;
}
);
note = plus;
unicode = 43;
},
{
glyphname = comma;
lastChange = "2025-02-10 17:47:58 +0000";
layers = (
{
background = {
shapes = (
{
closed = 1;
nodes = (
(196,-12,o),
(196,-17,qs),
(196,-38,o),
(176,-62,qs),
(160,-81,o),
(114,-105,o),
(69,-119,o),
(69,-120,q),
(81,-138,l),
(114,-130,o),
(223,-77,o),
(243,-26,qs),
(256,7,o),
(256,43,qs),
(256,100,o),
(227,131,qs),
(204,155,o),
(157,155,qs),
(114,155,o),
(88,127,qs),
(73,111,o),
(73,90,qs),
(73,69,o),
(101,35,o),
(122,31,qs),
(143,27,o),
(151,27,q),
(189,19,o),
(195,-7,qs)
);
}
);
};
layerId = m01;
shapes = (
{
closed = 1;
nodes = (
(125,-127,o),
(216,-94,o),
(243,-26,cs),
(252,-4,o),
(256,19,o),
(256,43,cs),
(256,81,o),
(246,110,o),
(227,131,cs),
(212,147,o),
(188,155,o),
(157,155,cs),
(128,155,o),
(105,146,o),
(88,127,cs),
(78,116,o),
(73,104,o),
(73,90,cs),
(73,62,o),
(94,36,o),
(122,31,cs),
(136,28,o),
(146,27,o),
(151,27,c),
(176,22,o),
(191,10,o),
(195,-7,cs),
(196,-10,o),
(196,-14,o),
(196,-17,cs),
(196,-31,o),
(189,-46,o),
(176,-62,cs),
(154,-88,o),
(120,-104,o),
(69,-120,c),
(81,-138,l)
);
}
);
width = 331;
}
);
note = comma;
unicode = 44;
},
{
glyphname = hyphen;
lastChange = "2025-02-10 17:39:31 +0000";
layers = (
{
background = {
shapes = (
{
closed = 1;
nodes = (
(125,310,l),
(155,155,l),
(620,155,l),
(590,310,l)
);
}
);
};
layerId = m01;
shapes = (
{
closed = 1;
nodes = (
(620,155,l),
(590,310,l),
(125,310,l),
(155,155,l)
);
}
);
width = 717;
}
);
note = hyphen;
unicode = 8208;
},
{
glyphname = period;
lastChange = "2025-02-10 17:39:31 +0000";
layers = (
{
background = {
shapes = (
{
closed = 1;
nodes = (
(44,155,l),
(71,0,l),
(243,0,l),
(224,155,l)
);
}
);
};
layerId = m01;
shapes = (
{
closed = 1;
nodes = (
(243,0,l),
(224,155,l),
(44,155,l),
(71,0,l)
);
}
);
width = 334;
}
);
note = period;
unicode = 46;
},
{
glyphname = slash;
lastChange = "2025-02-10 17:39:31 +0000";
layers = (
{
background = {
shapes = (
{
closed = 1;
nodes = (
(298,778,l),
(188,778,l),
(-2,-13,l),
(106,-13,l)
);
}
);
};
layerId = m01;
shapes = (
{
closed = 1;
nodes = (
(106,-13,l),
(298,778,l),
(188,778,l),
(-2,-13,l)
);
}
);
width = 296;
}
);
note = slash;
unicode = 47;
},
{
glyphname = zero;
lastChange = "2025-02-10 17:39:31 +0000";
layers = (
{
background = {
shapes = (
{
closed = 1;
nodes = (
(67,487,qs),
(67,440,o),
(73,385,qs),
(114,-7,o),
(363,-7,qs),
(577,-7,o),
(577,281,qs),
(577,329,o),
(571,384,qs),
(530,775,o),
(281,775,qs),
(67,775,o)
);
},
{
closed = 1;
nodes = (
(401,536,o),
(417,384,qs),
(425,307,o),
(425,254,qs),
(425,202,o),
(418,174,qs),
(402,115,o),
(350,115,qs),
(304,115,o),
(245,218,o),
(227,384,qs),
(219,464,o),
(219,517,qs),
(219,574,o),
(228,601,qs),
(246,653,o),
(294,653,qs),
(343,653,o)
);
}
);
};
layerId = m01;
shapes = (
{
closed = 1;
nodes = (
(506,-7,o),
(577,89,o),
(577,281,cs),
(577,313,o),
(575,347,o),
(571,384,cs),
(544,645,o),
(447,775,o),
(281,775,cs),
(138,775,o),
(67,679,o),
(67,487,cs),
(67,456,o),
(69,422,o),
(73,385,cs),
(100,124,o),
(197,-7,o),
(363,-7,cs)
);
},
{
closed = 1;
nodes = (
(319,115,o),
(294,132,o),
(275,167,cs),
(255,201,o),
(239,273,o),
(227,384,cs),
(222,437,o),
(219,482,o),
(219,517,cs),
(219,555,o),
(222,583,o),
(228,601,cs),
(240,636,o),
(262,653,o),
(294,653,cs),
(327,653,o),
(353,634,o),
(372,595,cs),
(391,556,o),
(406,485,o),
(417,384,cs),
(422,333,o),
(425,289,o),
(425,254,cs),
(425,219,o),
(423,193,o),
(418,174,cs),
(407,135,o),
(385,115,o),
(350,115,cs)
);
}
);
width = 620;
}
);
note = zero;
unicode = 48;
},
{
glyphname = one;
lastChange = "2025-02-10 17:39:31 +0000";
layers = (
{
background = {
shapes = (
{
closed = 1;
nodes = (
(267,775,l),
(347,0,l),
(493,0,l),
(413,775,l)
);
}
);
};
layerId = m01;
shapes = (
{
closed = 1;
nodes = (
(493,0,l),
(413,775,l),
(267,775,l),
(347,0,l)
);
}
);
width = 660;
}
);
note = one;
unicode = 49;
},
{
glyphname = two;
lastChange = "2025-02-10 17:39:31 +0000";
layers = (
{
background = {
shapes = (
{
closed = 1;
nodes = (
(297,180,o),
(391,274,qs),
(529,411,o),
(529,538,qs),
(529,550,o),
(528,562,qs),
(517,660,o),
(371,775,o),
(263,775,qs),
(33,775,o),
(33,548,q),
(181,533,l),
(181,547,ls),
(181,653,o),
(272,653,qs),
(371,653,o),
(382,552,q),
(382,543,ls),
(382,464,o),
(249,328,qs),
(128,206,o),
(100,137,qs),
(72,70,o),
(72,10,qs),
(72,6,l),
(586,6,l),
(572,142,l),
(281,142,l)
);
}
);
};
layerId = m01;
shapes = (
{
closed = 1;
nodes = (
(586,6,l),
(572,142,l),
(281,142,l),
(292,167,o),
(328,211,o),
(391,274,cs),
(483,365,o),
(529,453,o),
(529,538,cs),
(528,562,l),
(513,693,o),
(407,775,o),
(263,775,cs),
(110,775,o),
(33,699,o),
(33,548,c),
(181,533,l),
(181,547,ls),
(181,618,o),
(211,653,o),
(272,653,cs),
(338,653,o),
(375,619,o),
(382,552,c),
(382,543,ls),
(382,490,o),
(338,419,o),
(249,328,cs),
(168,247,o),
(119,183,o),
(100,137,cs),
(81,92,o),
(72,50,o),
(72,10,cs),
(72,6,l)
);
}
);
width = 654;
}
);
note = two;
unicode = 50;
},
{
glyphname = three;
lastChange = "2025-02-10 17:39:31 +0000";
layers = (
{
background = {
shapes = (
{
closed = 1;
nodes = (
(249,-7,o),
(354,-7,qs),
(461,-7,o),
(529,62,qs),
(588,120,o),
(588,207,qs),
(588,221,o),
(586,236,qs),
(570,383,o),
(422,417,q),
(516,472,o),
(516,560,qs),
(516,569,o),
(515,578,qs),
(506,656,o),
(368,775,o),
(267,775,qs),
(71,775,o),
(52,575,q),
(189,552,l),
(191,654,o),
(276,654,qs),
(360,654,o),
(369,569,qs),
(370,562,o),
(370,555,qs),
(370,471,o),
(257,471,q),
(253,352,l),
(291,362,o),
(319,362,qs),
(370,362,o),
(429,288,o),
(434,242,qs),
(435,233,o),
(435,225,qs),
(435,185,o),
(416,154,qs),
(392,115,o),
(340,115,qs),
(245,115,o),
(220,226,q),
(79,209,l),
(101,111,o)
);
}
);
};
layerId = m01;
shapes = (
{
closed = 1;
nodes = (
(425,-7,o),
(484,16,o),
(529,62,cs),
(568,101,o),
(588,149,o),
(588,207,cs),
(588,216,o),
(587,226,o),
(586,236,cs),
(575,334,o),
(521,394,o),
(422,417,c),
(485,454,o),
(516,501,o),
(516,560,cs),
(515,578,ls),
(503,682,o),
(402,775,o),
(267,775,cs),
(136,775,o),
(65,708,o),
(52,575,c),
(189,552,l),
(190,620,o),
(219,654,o),
(276,654,cs),
(332,654,o),
(363,626,o),
(369,569,cs),
(370,555,ls),
(370,499,o),
(332,471,o),
(257,471,c),
(253,352,l),
(278,359,o),
(300,362,o),
(319,362,cs),
(387,362,o),
(427,303,o),
(434,242,cs),
(435,225,ls),
(435,198,o),
(429,175,o),
(416,154,cs),
(400,128,o),
(375,115,o),
(340,115,cs),
(277,115,o),
(237,152,o),
(220,226,c),
(79,209,l),
(108,78,o),
(214,-7,o),
(354,-7,cs)
);
}
);
width = 648;
}
);
note = three;
unicode = 51;
},
{
glyphname = four;
lastChange = "2025-02-10 17:39:31 +0000";
layers = (
{
background = {
shapes = (
{
closed = 1;
nodes = (
(496,154,l),
(591,154,l),
(578,283,l),
(483,283,l),
(432,769,l),
(309,769,l),
(28,282,l),
(41,154,l),
(354,154,l),
(371,0,l),
(513,0,l)
);
},
{
closed = 1;
nodes = (
(313,545,l),
(341,283,l),
(165,283,l)
);
}
);
};
layerId = m01;
shapes = (
{
closed = 1;
nodes = (
(513,0,l),
(496,154,l),
(591,154,l),
(578,283,l),
(483,283,l),
(432,769,l),
(309,769,l),
(28,282,l),
(41,154,l),
(354,154,l),
(371,0,l)
);
},
{
closed = 1;
nodes = (
(313,545,l),
(341,283,l),
(165,283,l)
);
}
);
width = 657;
}
);
note = four;
unicode = 52;
},
{
glyphname = five;
lastChange = "2025-02-10 17:39:31 +0000";
layers = (
{
background = {
shapes = (
{
closed = 1;
nodes = (
(331,0,qs),
(465,0,o),
(520,88,qs),
(567,162,o),
(567,241,qs),
(567,255,o),
(565,270,qs),
(553,379,o),
(408,525,o),
(305,525,qs),
(253,525,o),
(207,501,q),
(217,631,l),
(494,631,l),
(479,768,l),
(91,768,l),
(57,370,l),
(178,352,l),
(222,408,o),
(285,408,qs),
(399,408,o),
(414,267,qs),
(416,248,o),
(416,232,qs),
(416,118,o),
(320,118,qs),
(229,118,o),
(200,225,q),
(56,210,l),
(110,0,o)
);
}
);
};
layerId = m01;
shapes = (
{
closed = 1;
nodes = (
(420,0,o),
(483,29,o),
(520,88,cs),
(551,137,o),
(567,188,o),
(567,241,cs),
(567,250,o),
(566,260,o),
(565,270,cs),
(549,415,o),
(442,525,o),
(305,525,cs),
(270,525,o),
(238,517,o),
(207,501,c),
(217,631,l),
(494,631,l),
(479,768,l),
(91,768,l),
(57,370,l),
(178,352,l),
(207,389,o),
(243,408,o),
(285,408,cs),
(361,408,o),
(404,361,o),
(414,267,cs),
(415,254,o),
(416,243,o),
(416,232,cs),
(416,156,o),
(384,118,o),
(320,118,cs),
(259,118,o),
(219,154,o),
(200,225,c),
(56,210,l),
(92,70,o),
(184,0,o),
(331,0,cs)
);
}
);
width = 615;
}
);
note = five;
unicode = 53;
},
{
glyphname = six;
lastChange = "2025-02-10 17:39:31 +0000";
layers = (
{
background = {
shapes = (
{
closed = 1;
nodes = (
(283,775,qs),
(40,775,o),
(40,475,qs),
(40,430,o),
(45,378,qs),
(85,-7,o),
(350,-7,qs),
(475,-7,o),
(528,72,qs),
(571,137,o),
(571,218,qs),
(571,235,o),
(569,252,qs),
(558,358,o),
(419,503,o),
(320,503,qs),
(238,503,o),
(190,439,q),
(189,454,o),
(189,468,qs),
(189,654,o),
(287,654,qs),
(361,654,o),
(380,568,q),
(520,584,l),
(468,775,o)
);
},
{
closed = 1;
nodes = (
(219,294,qs),
(219,395,o),
(308,395,qs),
(410,395,o),
(425,251,qs),
(427,233,o),
(427,218,qs),
(427,115,o),
(345,115,qs),
(295,115,o),
(227,203,o),
(221,264,qs),
(219,280,o)
);
}
);
};
layerId = m01;
shapes = (
{
closed = 1;
nodes = (
(433,-7,o),
(493,19,o),
(528,72,cs),
(557,115,o),
(571,164,o),
(571,218,cs),
(571,229,o),
(570,241,o),
(569,252,cs),
(554,393,o),
(452,503,o),
(320,503,cs),
(265,503,o),
(222,482,o),
(190,439,c),
(189,468,ls),
(189,592,o),
(222,654,o),
(287,654,cs),
(336,654,o),
(367,625,o),
(380,568,c),
(520,584,l),
(485,711,o),
(406,775,o),
(283,775,cs),
(121,775,o),
(40,675,o),
(40,475,cs),
(40,445,o),
(42,413,o),
(45,378,cs),
(72,121,o),
(173,-7,o),
(350,-7,cs)
);
},
{
closed = 1;
nodes = (
(278,115,o),
(229,183,o),
(221,264,cs),
(220,275,o),
(219,285,o),
(219,294,cs),
(219,361,o),
(249,395,o),
(308,395,cs),
(376,395,o),
(415,347,o),
(425,251,cs),
(426,239,o),
(427,228,o),
(427,218,cs),
(427,149,o),
(400,115,o),
(345,115,cs)
);
}
);
width = 616;
}
);
note = six;
unicode = 54;
},
{
glyphname = seven;
lastChange = "2025-02-10 17:39:31 +0000";
layers = (
{
background = {
shapes = (
{
closed = 1;
nodes = (
(220,367,o),
(220,72,qs),
(220,36,o),
(222,0,q),
(364,0,l),
(360,38,o),
(360,78,qs),
(360,203,o),
(398,344,qs),
(447,531,o),
(554,649,q),
(543,755,l),
(41,755,l),
(55,619,l),
(389,619,l)
);
}
);
};
layerId = m01;
shapes = (
{
closed = 1;
nodes = (
(364,0,l),
(361,25,o),
(360,51,o),
(360,78,cs),
(360,161,o),
(373,250,o),
(398,344,cs),
(431,469,o),
(483,570,o),
(554,649,c),
(543,755,l),
(41,755,l),
(55,619,l),
(389,619,l),
(276,451,o),
(220,269,o),
(220,72,cs),
(222,0,l)
);
}
);
width = 619;
}
);
note = seven;
unicode = 55;
},
{
glyphname = eight;
lastChange = "2025-02-10 17:39:31 +0000";
layers = (
{
background = {
shapes = (
{
closed = 1;
nodes = (
(74,254,qs),
(74,240,o),
(76,225,qs),
(88,106,o),
(255,-8,o),
(356,-8,qs),
(466,-8,o),
(528,57,qs),
(580,111,o),
(580,197,qs),
(580,213,o),
(578,231,qs),
(564,367,o),
(429,419,q),
(519,460,o),
(519,554,qs),
(519,565,o),
(518,577,qs),
(507,679,o),
(359,775,o),
(268,775,qs),
(164,775,o),
(106,723,qs),
(57,678,o),
(57,604,qs),
(57,591,o),
(58,577,qs),
(70,465,o),
(183,419,q),
(74,370,o)
);
},
{
closed = 1;
nodes = (
(197,584,qs),
(197,658,o),
(281,658,qs),
(371,658,o),
(381,568,qs),
(382,559,o),
(382,550,qs),
(382,474,o),
(300,474,qs),
(208,474,o),
(198,567,qs),
(197,576,o)
);
},
{
closed = 1;
nodes = (
(218,255,qs),
(218,295,o),
(239,323,qs),
(264,356,o),
(313,356,qs),
(420,356,o),
(433,237,qs),
(434,223,o),
(434,211,qs),
(434,111,o),
(342,111,qs),
(233,111,o),
(219,239,qs),
(218,247,o)
);
}
);
};
layerId = m01;
shapes = (
{
closed = 1;
nodes = (
(429,-8,o),
(487,14,o),
(528,57,cs),
(563,93,o),
(580,140,o),
(580,197,cs),
(580,208,o),
(579,219,o),
(578,231,cs),
(569,322,o),
(519,384,o),
(429,419,c),
(489,446,o),
(519,491,o),
(519,554,cs),
(518,577,l),
(503,713,o),
(389,775,o),
(268,775,cs),
(199,775,o),
(145,758,o),
(106,723,cs),
(73,693,o),
(57,653,o),
(57,604,cs),
(58,577,l),
(66,502,o),
(108,450,o),
(183,419,c),
(110,386,o),
(74,331,o),
(74,254,cs),
(74,245,o),
(75,235,o),
(76,225,cs),
(92,66,o),
(221,-8,o),
(356,-8,cs)
);
},
{
closed = 1;
nodes = (
(269,111,o),
(228,154,o),
(219,239,cs),
(218,255,ls),
(218,282,o),
(225,304,o),
(239,323,cs),
(256,345,o),
(280,356,o),
(313,356,cs),
(384,356,o),
(424,316,o),
(433,237,c),
(434,211,ls),
(434,144,o),
(403,111,o),
(342,111,cs)
);
},
{
closed = 1;
nodes = (
(239,474,o),
(205,505,o),
(198,567,cs),
(197,584,ls),
(197,633,o),
(225,658,o),
(281,658,cs),
(341,658,o),
(374,628,o),
(381,568,cs),
(382,550,ls),
(382,499,o),
(355,474,o),
(300,474,cs)
);
}
);
width = 648;
}
);
note = eight;
unicode = 56;
},
{
glyphname = nine;
lastChange = "2025-02-10 17:39:31 +0000";
layers = (
{
background = {
shapes = (
{
closed = 1;
nodes = (
(332,-8,qs),
(576,-8,o),
(576,292,qs),
(576,337,o),
(571,388,qs),
(530,775,o),
(264,775,qs),
(140,775,o),
(88,696,qs),
(44,630,o),
(44,550,qs),
(44,533,o),
(46,516,qs),
(56,417,o),
(192,264,o),
(294,264,qs),
(377,264,o),
(425,328,q),
(426,311,o),
(426,295,qs),
(426,113,o),
(330,113,qs),
(255,113,o),
(236,199,q),
(96,183,l),
(147,-8,o)
);
},
{
closed = 1;
nodes = (
(396,474,qs),
(396,372,o),
(308,372,qs),
(206,372,o),
(191,516,qs),
(189,535,o),
(189,551,qs),
(189,653,o),
(270,653,qs),
(324,653,o),
(388,560,o),
(394,504,qs),
(396,488,o)
);
}
);
};
layerId = m01;
shapes = (
{
closed = 1;
nodes = (
(495,-8,o),
(576,92,o),
(576,292,cs),
(576,322,o),
(574,354,o),
(571,388,cs),
(544,646,o),
(441,775,o),
(264,775,cs),
(181,775,o),
(123,749,o),
(88,696,cs),
(59,652,o),
(44,603,o),
(44,550,cs),
(44,539,o),
(45,527,o),
(46,516,cs),
(59,384,o),
(158,264,o),
(294,264,cs),
(349,264,o),
(393,285,o),
(425,328,c),
(426,295,ls),
(426,174,o),
(394,113,o),
(330,113,cs),
(280,113,o),
(249,142,o),
(236,199,c),
(96,183,l),
(130,56,o),
(209,-8,o),
(332,-8,cs)
);
},
{
closed = 1;
nodes = (
(240,372,o),
(201,420,o),
(191,516,cs),
(190,529,o),
(189,540,o),
(189,551,cs),
(189,619,o),
(216,653,o),
(270,653,cs),
(342,653,o),
(386,579,o),
(394,504,cs),
(395,493,o),
(396,483,o),
(396,474,cs),
(396,406,o),
(367,372,o),
(308,372,cs)
);
}
);
width = 654;
}
);
note = nine;
unicode = 57;
},
{
glyphname = colon;
lastChange = "2025-02-10 17:39:31 +0000";
layers = (
{
background = {
shapes = (
{
closed = 1;
nodes = (
(161,209,l),
(188,54,l),
(360,54,l),
(341,209,l)
);
},
{
closed = 1;
nodes = (
(155,581,l),
(182,426,l),
(354,426,l),
(335,581,l)
);
}
);
};
layerId = m01;
shapes = (
{
closed = 1;
nodes = (
(354,426,l),
(335,581,l),
(155,581,l),
(182,426,l)
);
},
{
closed = 1;
nodes = (
(360,54,l),
(341,209,l),
(161,209,l),
(188,54,l)
);
}
);
width = 546;
}
);
note = colon;
unicode = 58;
},
{
glyphname = semicolon;
lastChange = "2025-02-10 17:39:31 +0000";
layers = (
{
background = {
shapes = (
{
closed = 1;
nodes = (
(300,55,o),
(300,50,qs),
(300,29,o),
(280,5,qs),
(264,-14,o),
(218,-38,o),
(173,-52,o),
(173,-53,q),
(185,-71,l),
(218,-63,o),
(327,-10,o),
(347,41,qs),
(360,74,o),
(360,110,qs),
(360,167,o),
(331,198,qs),
(308,222,o),
(261,222,qs),
(218,222,o),
(192,194,qs),
(177,178,o),
(177,157,qs),
(177,136,o),
(205,102,o),
(226,98,qs),
(247,94,o),
(255,94,q),
(293,86,o),
(299,60,qs)
);
},
{
closed = 1;
nodes = (
(155,536,l),
(182,381,l),
(354,381,l),
(335,536,l)
);
}
);
};
layerId = m01;
shapes = (
{
closed = 1;
nodes = (
(229,-60,o),
(320,-27,o),
(347,41,cs),
(356,63,o),
(360,86,o),
(360,110,cs),
(360,148,o),
(350,177,o),
(331,198,cs),
(316,214,o),
(292,222,o),
(261,222,cs),
(232,222,o),
(209,213,o),
(192,194,cs),
(182,183,o),
(177,171,o),
(177,157,cs),
(177,129,o),
(198,103,o),
(226,98,cs),
(240,95,o),
(250,94,o),
(255,94,c),
(280,89,o),
(295,77,o),
(299,60,cs),
(300,57,o),
(300,53,o),
(300,50,cs),
(300,36,o),
(293,21,o),
(280,5,cs),
(245,-37,o),
(173,-35,o),
(173,-53,c),
(185,-71,l)
);
},
{
closed = 1;
nodes = (
(354,381,l),
(335,536,l),
(155,536,l),
(182,381,l)
);
}
);
width = 522;
}
);
note = semicolon;
unicode = 59;
},
{
glyphname = less;
lastChange = "2025-02-10 17:39:31 +0000";
layers = (
{
background = {
shapes = (
{
closed = 1;
nodes = (
(276,323,l),
(602,474,l),
(602,564,l),
(102,323,l),
(604,86,l),
(604,175,l)
);
}
);
};
layerId = m01;
shapes = (
{
closed = 1;
nodes = (
(604,175,l),
(276,323,l),
(602,474,l),
(602,564,l),
(102,323,l),
(604,86,l)
);
}
);
width = 702;
}
);
note = less;
unicode = 60;
},
{
glyphname = equal;
lastChange = "2025-02-10 17:39:31 +0000";
layers = (
{
background = {
shapes = (
{
closed = 1;
nodes = (
(733,262,l),
(92,262,l),
(92,192,l),
(733,192,l)
);
},
{
closed = 1;
nodes = (
(92,469,l),
(92,398,l),
(733,398,l),
(733,469,l)
);
}
);
};
layerId = m01;
shapes = (
{
closed = 1;
nodes = (
(733,398,l),
(733,469,l),
(92,469,l),
(92,398,l)
);
},
{
closed = 1;
nodes = (
(733,192,l),
(733,262,l),
(92,262,l),
(92,192,l)
);
}
);
width = 821;
}
);
note = equal;
unicode = 61;
},
{
glyphname = greater;
lastChange = "2025-02-10 17:39:31 +0000";
layers = (
{
background = {
shapes = (
{
closed = 1;
nodes = (
(612,323,l),
(112,564,l),
(112,474,l),
(438,323,l),
(110,175,l),
(110,86,l)
);
}
);
};
layerId = m01;
shapes = (
{
closed = 1;
nodes = (
(612,323,l),
(112,564,l),
(112,474,l),
(438,323,l),
(110,175,l),
(110,86,l)
);
}
);
width = 702;
}
);
note = greater;
unicode = 62;
},
{
glyphname = question;
lastChange = "2025-02-10 17:39:31 +0000";
layers = (
{
background = {
shapes = (
{
closed = 1;
nodes = (
(482,436,o),
(534,514,o),
(534,561,qs),
(534,604,o),
(476,682,o),
(366,731,o),
(293,731,qs),
(236,731,o),
(131,695,o),
(65,626,o),
(65,580,qs),
(65,552,o),
(93,508,o),
(125,508,qs),
(153,508,o),
(186,532,o),
(186,552,qs),
(186,570,o),
(166,592,qs),
(164,594,o),
(140,618,o),
(139,619,q),
(139,658,o),
(220,700,o),
(264,700,qs),
(333,700,o),
(409,618,o),
(409,559,qs),
(409,513,o),
(378,435,o),
(314,325,o),
(280,234,o),
(280,178,q),
(303,178,l),
(320,266,o),
(391,342,qs),
(432,383,ls)
);
},
{
closed = 1;
nodes = (
(321,110,o),
(293,110,qs),
(262,110,o),
(213,71,o),
(213,46,qs),
(213,22,o),
(263,-14,o),
(293,-14,qs),
(321,-14,o),
(368,21,o),
(368,46,qs),
(368,72,o)
);
}
);
};
layerId = m01;
shapes = (
{
closed = 1;
nodes = (
(303,178,l),
(314,237,o),
(344,291,o),
(391,342,cs),
(432,383,ls),
(499,454,o),
(534,498,o),
(534,561,cs),
(534,618,o),
(494,674,o),
(421,707,cs),
(384,723,o),
(342,731,o),
(293,731,cs),
(171,731,o),
(65,670,o),
(65,580,cs),
(65,543,o),
(82,508,o),
(125,508,cs),
(162,508,o),
(186,525,o),
(186,552,cs),
(186,564,o),
(179,577,o),
(166,592,cs),
(139,619,l),
(139,671,o),
(205,700,o),
(264,700,cs),
(356,700,o),
(409,638,o),
(409,559,cs),
(409,498,o),
(389,453,o),
(346,380,cs),
(303,307,o),
(280,253,o),
(280,178,c)
);
},
{
closed = 1;
nodes = (
(330,-14,o),
(368,13,o),
(368,46,cs),
(368,81,o),
(330,110,o),
(293,110,cs),
(252,110,o),
(213,79,o),
(213,46,cs),
(213,14,o),
(253,-14,o),
(293,-14,cs)
);
}
);
width = 600;
}
);
note = question;
unicode = 63;
},
{
glyphname = at;
lastChange = "2025-02-10 17:50:25 +0000";
layers = (
{
background = {
shapes = (
{
closed = 1;
nodes = (
(577,-129,qs),
(360,-129,o),
(135,80,o),
(135,245,qs),
(135,421,o),
(350,683,o),
(573,683,qs),
(730,683,o),
(926,522,o),
(926,382,qs),
(926,257,o),
(783,106,o),
(742,106,qs),
(722,106,o),
(722,133,qs),
(722,144,o),
(729,178,qs),
(807,553,l),
(670,553,l),
(657,495,l),
(612,566,o),
(519,566,qs),
(398,566,o),
(236,353,o),
(236,219,qs),
(236,122,o),
(346,0,o),
(438,0,qs),
(518,0,o),
(579,59,q),
(594,0,o),
(674,0,qs),
(839,0,o),
(1019,249,o),
(1019,377,qs),
(1019,547,o),
(790,779,o),
(575,779,qs),
(324,779,o),
(40,473,o),
(40,252,qs),
(40,41,o),
(308,-225,o),
(585,-225,qs),
(931,-225,o),
(1047,10,q),
(936,10,l),
(826,-129,o)
);
},
{
closed = 1;
nodes = (
(449,472,o),
(531,472,qs),
(628,472,o),
(628,350,qs),
(628,267,o),
(543,95,o),
(465,95,qs),
(371,95,o),
(371,225,qs),
(371,302,o)
);
}
);
};
layerId = m01;
shapes = (
{
closed = 1;
nodes = (
(816,-225,o),
(970,-147,o),
(1047,10,c),
(936,10,l),
(863,-83,o),
(743,-129,o),
(577,-129,cs),
(288,-129,o),
(135,25,o),
(135,245,cs),
(135,460,o),
(256,683,o),
(573,683,cs),
(782,683,o),
(926,569,o),
(926,382,cs),
(926,215,o),
(797,106,o),
(742,106,cs),
(729,106,o),
(722,115,o),
(722,133,cs),
(722,140,o),
(724,155,o),
(729,178,cs),
(807,553,l),
(670,553,l),
(657,495,l),
(627,542,o),
(581,566,o),
(519,566,cs),
(358,566,o),
(236,398,o),
(236,219,cs),
(236,90,o),
(315,0,o),
(438,0,cs),
(491,0,o),
(538,20,o),
(579,59,c),
(589,20,o),
(621,0,o),
(674,0,cs),
(924,0,o),
(1019,236,o),
(1019,377,cs),
(1019,604,o),
(862,779,o),
(575,779,cs),
(230,779,o),
(40,537,o),
(40,252,cs),
(40,-29,o),
(216,-225,o),
(585,-225,cs)
);
},
{
closed = 1;
nodes = (
(402,95,o),
(371,138,o),
(371,225,cs),
(371,314,o),
(412,472,o),
(531,472,cs),
(596,472,o),
(628,431,o),
(628,350,cs),
(628,249,o),
(576,95,o),
(465,95,cs)
);
}
);
width = 1052;
}
);
note = at;
unicode = 64;
},
{
glyphname = A;
lastChange = "2025-02-10 17:39:31 +0000";
layers = (
{
background = {
shapes = (
{
closed = 1;
nodes = (
(298,766,l),
(0,0,l),
(164,0,l),
(227,174,l),
(534,174,l),
(600,0,l),
(768,0,l),
(462,766,l)
);
},
{
closed = 1;
nodes = (
(378,587,l),
(483,303,l),
(274,303,l)
);
}
);
};
layerId = m01;
shapes = (
{
closed = 1;
nodes = (
(164,0,l),
(227,174,l),
(534,174,l),
(600,0,l),
(768,0,l),
(462,766,l),
(298,766,l),
(0,0,l)
);
},
{
closed = 1;
nodes = (
(378,587,l),
(483,303,l),
(274,303,l)
);
}
);
width = 773;
}
);
note = A;
unicode = 65;
},
{
glyphname = B;
lastChange = "2025-02-10 17:39:31 +0000";
layers = (
{
background = {
shapes = (
{
closed = 1;
nodes = (
(359,0,ls),
(533,0,o),
(649,29,o),
(740,139,o),
(740,222,qs),
(740,365,o),
(594,407,q),
(702,455,o),
(702,573,qs),
(702,653,o),
(588,766,o),
(404,766,qs),
(98,766,l),
(98,0,l)
);
},
{
closed = 1;
nodes = (
(483,638,o),
(552,605,o),
(552,551,qs),
(552,494,o),
(474,461,o),
(354,461,qs),
(252,461,l),
(252,638,l),
(341,638,ls)
);
},
{
closed = 1;
nodes = (
(497,334,o),
(580,290,o),
(580,230,qs),
(580,167,o),
(503,129,o),
(396,129,qs),
(252,129,l),
(252,334,l),
(377,334,ls)
);
}
);
};
layerId = m01;
shapes = (
{
closed = 1;
nodes = (
(359,0,ls),
(475,0,o),
(552,5,o),
(591,15,cs),
(668,34,o),
(740,111,o),
(740,222,cs),
(740,317,o),
(691,379,o),
(594,407,c),
(666,439,o),
(702,494,o),
(702,573,cs),
(702,680,o),
(649,766,o),
(404,766,cs),
(98,766,l),
(98,0,l)
);
},
{
closed = 1;
nodes = (
(252,334,l),
(377,334,ls),
(457,334,o),
(511,327,o),
(539,312,cs),
(566,297,o),
(580,270,o),
(580,230,cs),
(580,146,o),
(539,129,o),
(396,129,cs),
(252,129,l)
);
},
{
closed = 1;
nodes = (
(252,638,l),
(341,638,ls),
(436,638,o),
(495,633,o),
(518,622,cs),
(541,611,o),
(552,587,o),
(552,551,cs),
(552,513,o),
(539,489,o),
(513,478,cs),
(487,467,o),
(434,461,o),
(354,461,cs),
(252,461,l)
);
}
);
width = 805;
}
);
note = B;
unicode = 66;
},
{
glyphname = C;
lastChange = "2025-02-10 17:39:31 +0000";
layers = (
{
background = {
shapes = (
{
closed = 1;
nodes = (
(410,119,qs),
(222,119,o),
(222,387,qs),
(222,646,o),
(413,646,qs),
(545,646,o),
(575,518,q),
(728,554,l),
(665,778,o),
(421,778,qs),
(253,778,o),
(63,559,o),
(63,376,qs),
(63,222,o),
(233,-13,o),
(412,-13,qs),
(662,-13,o),
(730,234,q),
(581,282,l),
(543,119,o)
);
}
);
};
layerId = m01;
shapes = (
{
closed = 1;
nodes = (
(579,-13,o),
(685,69,o),
(730,234,c),
(581,282,l),
(556,173,o),
(499,119,o),
(410,119,cs),
(285,119,o),
(222,208,o),
(222,387,cs),
(222,560,o),
(286,646,o),
(413,646,cs),
(501,646,o),
(555,603,o),
(575,518,c),
(728,554,l),
(686,703,o),
(584,778,o),
(421,778,cs),
(197,778,o),
(63,620,o),
(63,376,cs),
(63,171,o),
(173,-13,o),
(412,-13,cs)
);
}
);
width = 798;
}
);
note = C;
unicode = 67;
},
{
glyphname = D;
lastChange = "2025-02-10 17:39:31 +0000";
layers = (
{
background = {
shapes = (
{
closed = 1;
nodes = (
(387,0,ls),
(739,0,o),
(739,375,qs),
(739,514,o),
(647,700,o),
(499,766,o),
(379,766,qs),
(97,766,l),
(97,0,l)
);
},
{
closed = 1;
nodes = (
(431,636,o),
(521,605,o),
(579,495,o),
(579,382,qs),
(579,231,o),
(485,129,o),
(367,129,qs),
(251,129,l),
(251,636,l),
(321,636,ls)
);
}
);
};
layerId = m01;
shapes = (
{
closed = 1;
nodes = (
(387,0,ls),
(622,0,o),
(739,125,o),
(739,375,cs),
(739,560,o),
(672,689,o),
(573,733,cs),
(524,755,o),
(459,766,o),
(379,766,cs),
(97,766,l),
(97,0,l)
);
},
{
closed = 1;
nodes = (
(251,636,l),
(321,636,ls),
(468,636,o),
(511,623,o),
(550,550,cs),
(569,513,o),
(579,457,o),
(579,382,cs),
(579,181,o),
(524,129,o),
(367,129,cs),
(251,129,l)
);
}
);
width = 805;
}
);
note = D;
unicode = 68;
},
{
glyphname = E;
lastChange = "2025-02-10 17:39:31 +0000";
layers = (
{
background = {
shapes = (
{
closed = 1;
nodes = (
(679,129,l),
(251,129,l),
(251,338,l),
(636,338,l),
(636,466,l),
(251,466,l),
(251,636,l),
(665,636,l),
(665,766,l),
(97,766,l),
(97,0,l),
(679,0,l)
);
}
);
};
layerId = m01;
shapes = (
{
closed = 1;
nodes = (
(679,0,l),
(679,129,l),
(251,129,l),
(251,338,l),
(636,338,l),
(636,466,l),
(251,466,l),
(251,636,l),
(665,636,l),
(665,766,l),
(97,766,l),
(97,0,l)
);
}
);
width = 746;
}
);
note = E;
unicode = 69;
},
{
glyphname = F;
lastChange = "2025-02-10 17:39:31 +0000";
layers = (
{
background = {
shapes = (
{
closed = 1;
nodes = (
(253,326,l),
(573,326,l),
(573,455,l),
(253,455,l),
(253,636,l),
(624,636,l),
(624,766,l),
(99,766,l),
(99,0,l),
(253,0,l)
);
}
);
};
layerId = m01;
shapes = (
{
closed = 1;
nodes = (
(253,0,l),
(253,326,l),
(573,326,l),
(573,455,l),
(253,455,l),
(253,636,l),
(624,636,l),
(624,766,l),
(99,766,l),
(99,0,l)
);
}
);
width = 686;
}
);
note = F;
unicode = 70;
},
{
glyphname = G;
lastChange = "2025-02-10 17:39:31 +0000";
layers = (
{
background = {
shapes = (
{
closed = 1;
nodes = (
(624,184,l),
(540,119,o),
(442,119,qs),
(336,119,o),
(223,265,o),
(223,392,qs),
(223,646,o),
(444,646,qs),
(582,646,o),
(617,525,q),
(770,554,l),
(721,778,o),
(444,778,qs),
(285,778,o),
(64,582,o),
(64,386,qs),
(64,210,o),
(262,-13,o),
(453,-13,qs),
(651,-13,o),
(780,106,q),
(780,410,l),
(446,410,l),
(446,282,l),
(624,282,l)
);
}
);
};
layerId = m01;
shapes = (
{
closed = 1;
nodes = (
(585,-13,o),
(694,27,o),
(780,106,c),
(780,410,l),
(446,410,l),
(446,282,l),
(624,282,l),
(624,184,l),
(568,141,o),
(507,119,o),
(442,119,cs),
(301,119,o),
(223,223,o),
(223,392,cs),
(223,561,o),
(297,646,o),
(444,646,cs),
(536,646,o),
(594,606,o),
(617,525,c),
(770,554,l),
(737,703,o),
(629,778,o),
(444,778,cs),
(232,778,o),
(64,647,o),
(64,386,cs),
(64,151,o),
(198,-13,o),
(453,-13,cs)
);
}
);
width = 861;
}
);
note = G;
unicode = 71;
},
{
glyphname = H;
lastChange = "2025-02-10 17:39:31 +0000";
layers = (
{
background = {
shapes = (
{
closed = 1;
nodes = (
(252,334,l),
(556,334,l),
(556,0,l),
(710,0,l),
(710,766,l),
(556,766,l),
(556,464,l),
(252,464,l),
(252,766,l),
(98,766,l),
(98,0,l),
(252,0,l)
);
}
);
};
layerId = m01;
shapes = (
{
closed = 1;
nodes = (
(252,0,l),
(252,334,l),
(556,334,l),
(556,0,l),
(710,0,l),
(710,766,l),
(556,766,l),
(556,464,l),
(252,464,l),
(252,766,l),
(98,766,l),
(98,0,l)
);
}
);
width = 812;
}
);
note = H;
unicode = 72;
},
{
glyphname = I;
lastChange = "2025-02-10 17:39:31 +0000";
layers = (
{
background = {
shapes = (
{
closed = 1;
nodes = (
(246,766,l),
(91,766,l),
(91,0,l),
(246,0,l)
);
}
);
};
layerId = m01;
shapes = (
{
closed = 1;
nodes = (
(246,0,l),
(246,766,l),
(91,766,l),
(91,0,l)
);
}
);
width = 332;
}
);
note = I;
unicode = 73;
},
{
glyphname = J;
lastChange = "2025-02-10 17:39:31 +0000";
layers = (
{
background = {
shapes = (
{
closed = 1;
nodes = (
(359,185,o),
(319,119,o),
(264,119,qs),
(170,119,o),
(169,254,q),
(23,237,l),
(24,-13,o),
(259,-13,qs),
(404,-13,o),
(513,140,o),
(513,281,qs),
(513,766,l),
(359,766,l),
(359,271,ls)
);
}
);
};
layerId = m01;
shapes = (
{
closed = 1;
nodes = (
(452,-13,o),
(513,93,o),
(513,281,cs),
(513,766,l),
(359,766,l),
(359,271,ls),
(359,156,o),
(337,119,o),
(264,119,cs),
(201,119,o),
(170,164,o),
(169,254,c),
(23,237,l),
(24,70,o),
(102,-13,o),
(259,-13,cs)
);
}
);
width = 622;
}
);
note = J;
unicode = 74;
},
{
glyphname = K;
lastChange = "2025-02-10 17:39:31 +0000";
layers = (
{
background = {
shapes = (
{
closed = 1;
nodes = (
(254,231,l),
(380,359,l),
(590,0,l),
(790,0,l),
(486,467,l),
(774,766,l),
(566,766,l),
(254,426,l),
(254,766,l),
(100,766,l),
(100,0,l),
(254,0,l)
);
}
);
};
layerId = m01;
shapes = (
{
closed = 1;
nodes = (
(254,0,l),
(254,231,l),
(380,359,l),
(590,0,l),
(790,0,l),
(486,467,l),
(774,766,l),
(566,766,l),
(254,426,l),
(254,766,l),
(100,766,l),
(100,0,l)
);
}
);
width = 792;
}
);
note = K;
unicode = 75;
},
{
glyphname = L;
lastChange = "2025-02-10 17:39:31 +0000";
layers = (
{
background = {
shapes = (
{
closed = 1;
nodes = (
(636,129,l),
(252,129,l),
(252,766,l),
(97,766,l),
(97,0,l),
(636,0,l)
);
}
);
};
layerId = m01;
shapes = (
{
closed = 1;
nodes = (
(636,0,l),
(636,129,l),
(252,129,l),
(252,766,l),
(97,766,l),
(97,0,l)
);
}
);
width = 682;
}
);
note = L;
unicode = 76;
},
{
glyphname = M;
lastChange = "2025-02-10 17:39:31 +0000";
layers = (
{
background = {
shapes = (
{
closed = 1;
nodes = (
(238,602,l),
(389,0,l),
(539,0,l),
(691,602,l),
(691,0,l),
(834,0,l),
(834,766,l),
(602,766,l),
(465,243,l),
(326,766,l),
(95,766,l),
(95,0,l),
(238,0,l)
);
}
);
};
layerId = m01;
shapes = (
{
closed = 1;
nodes = (
(238,0,l),
(238,602,l),
(389,0,l),
(539,0,l),
(691,602,l),
(691,0,l),
(834,0,l),
(834,766,l),
(602,766,l),
(465,243,l),
(326,766,l),
(95,766,l),
(95,0,l)
);
}
);
width = 929;
}
);
note = M;
unicode = 77;
},
{
glyphname = N;
lastChange = "2025-02-10 17:39:31 +0000";
layers = (
{
background = {
shapes = (
{
closed = 1;
nodes = (
(243,499,l),
(552,0,l),
(706,0,l),
(706,766,l),
(563,766,l),
(563,254,l),
(249,766,l),
(99,766,l),
(99,0,l),
(243,0,l)
);
}
);
};
layerId = m01;
shapes = (
{
closed = 1;
nodes = (
(243,0,l),
(243,499,l),
(552,0,l),
(706,0,l),
(706,766,l),
(563,766,l),
(563,254,l),
(249,766,l),
(99,766,l),
(99,0,l)
);
}
);
width = 813;
}
);
note = N;
unicode = 78;
},
{
glyphname = O;
lastChange = "2025-02-10 17:39:31 +0000";
layers = (
{
background = {
shapes = (
{
closed = 1;
nodes = (
(256,-13,o),
(431,-13,qs),
(604,-13,o),
(800,199,o),
(800,382,qs),
(800,543,o),
(626,778,o),
(428,778,qs),
(254,778,o),
(58,564,o),
(58,378,qs),
(58,197,o)
);
},
{
closed = 1;
nodes = (
(430,646,qs),
(641,646,o),
(641,386,qs),
(641,271,o),
(536,119,o),
(430,119,qs),
(328,119,o),
(217,264,o),
(217,383,qs),
(217,646,o)
);
}
);
};
layerId = m01;
shapes = (
{
closed = 1;
nodes = (
(662,-13,o),
(800,138,o),
(800,382,cs),
(800,597,o),
(692,778,o),
(428,778,cs),
(196,778,o),
(58,626,o),
(58,378,cs),
(58,137,o),
(198,-13,o),
(431,-13,cs)
);
},
{
closed = 1;
nodes = (
(294,119,o),
(217,224,o),
(217,383,cs),
(217,558,o),
(288,646,o),
(430,646,cs),
(571,646,o),
(641,559,o),
(641,386,cs),
(641,233,o),
(571,119,o),
(430,119,cs)
);
}
);
width = 854;
}
);
note = O;
unicode = 79;
},
{
glyphname = P;
lastChange = "2025-02-10 17:39:31 +0000";
layers = (
{
background = {
shapes = (
{
closed = 1;
nodes = (
(251,289,l),
(352,289,ls),
(492,289,o),
(610,334,o),
(683,446,o),
(683,530,qs),
(683,625,o),
(590,743,o),
(472,766,o),
(345,766,qs),
(97,766,l),
(97,0,l),
(251,0,l)
);
},
{
closed = 1;
nodes = (
(448,636,o),
(524,590,o),
(524,528,qs),
(524,464,o),
(439,419,o),
(336,419,qs),
(251,419,l),
(251,636,l),
(327,636,ls)
);
}
);
};
layerId = m01;
shapes = (
{
closed = 1;
nodes = (
(251,0,l),
(251,289,l),
(352,289,ls),
(539,289,o),
(598,315,o),
(647,390,cs),
(671,427,o),
(683,474,o),
(683,530,cs),
(683,657,o),
(610,739,o),
(531,755,cs),
(492,762,o),
(430,766,o),
(345,766,cs),
(97,766,l),
(97,0,l)
);
},
{
closed = 1;
nodes = (
(251,636,l),
(327,636,ls),
(488,636,o),
(524,611,o),
(524,528,cs),
(524,443,o),
(473,419,o),
(336,419,cs),
(251,419,l)
);
}
);
width = 745;
}
);
note = P;
unicode = 80;
},
{
glyphname = Q;
lastChange = "2025-02-10 17:39:31 +0000";
layers = (
{
background = {
shapes = (
{
closed = 1;
nodes = (
(800,383,qs),
(800,567,o),
(605,778,o),
(431,778,qs),
(255,778,o),
(58,567,o),
(58,383,qs),
(58,219,o),
(234,-13,o),
(435,-13,qs),
(526,-13,o),
(601,20,q),
(718,-62,o),
(772,-77,q),
(829,32,l),
(763,57,o),
(706,97,q),
(800,208,o)
);
},
{
closed = 1;
nodes = (
(436,262,q),
(392,174,l),
(441,157,o),
(488,126,q),
(458,115,o),
(424,115,qs),
(314,115,o),
(217,274,o),
(217,383,qs),
(217,505,o),
(327,646,o),
(429,646,qs),
(641,646,o),
(641,383,qs),
(641,254,o),
(581,184,q),
(512,237,o)
);
}
);
};
layerId = m01;
shapes = (
{
closed = 1;
nodes = (
(829,32,l),
(785,49,o),
(744,70,o),
(706,97,c),
(769,171,o),
(800,266,o),
(800,383,cs),
(800,628,o),
(663,778,o),
(431,778,cs),
(196,778,o),
(58,628,o),
(58,383,cs),
(58,164,o),
(167,-13,o),
(435,-13,cs),
(496,-13,o),
(551,-2,o),
(601,20,c),
(679,-35,o),
(736,-67,o),
(772,-77,c)
);
},
{
closed = 1;
nodes = (
(277,115,o),
(217,238,o),
(217,383,cs),
(217,546,o),
(293,646,o),
(429,646,cs),
(570,646,o),
(641,558,o),
(641,383,cs),
(641,297,o),
(621,231,o),
(581,184,c),
(535,219,o),
(487,245,o),
(436,262,c),
(392,174,l),
(425,163,o),
(457,147,o),
(488,126,c),
(468,119,o),
(447,115,o),
(424,115,cs)
);
}
);
width = 847;
}
);
note = Q;
unicode = 81;
},
{
glyphname = R;
lastChange = "2025-02-10 17:39:31 +0000";
layers = (
{
background = {
shapes = (
{
closed = 1;
nodes = (
(252,320,l),
(284,320,ls),
(349,320,o),
(410,285,o),
(435,248,qs),
(601,0,l),
(786,0,l),
(692,150,ls),
(600,297,o),
(522,338,q),
(724,367,o),
(724,551,qs),
(724,674,o),
(575,766,o),
(424,766,qs),
(98,766,l),
(98,0,l),
(252,0,l)
);
},
{
closed = 1;
nodes = (
(373,636,ls),
(498,636,o),
(565,598,o),
(565,541,qs),
(565,481,o),
(484,442,o),
(367,442,qs),
(252,442,l),
(252,636,l)
);
}
);
};
layerId = m01;
shapes = (
{
closed = 1;
nodes = (
(252,0,l),
(252,320,l),
(284,320,ls),
(371,320,o),
(402,297,o),
(435,248,cs),
(601,0,l),
(786,0,l),
(692,150,ls),
(631,248,o),
(574,311,o),
(522,338,c),
(657,357,o),
(724,428,o),
(724,551,cs),
(724,715,o),
(625,766,o),
(424,766,cs),
(98,766,l),
(98,0,l)
);
},
{
closed = 1;
nodes = (
(252,636,l),
(373,636,ls),
(456,636,o),
(509,630,o),
(532,617,cs),
(554,604,o),
(565,579,o),
(565,541,cs),
(565,501,o),
(552,475,o),
(525,462,cs),
(498,449,o),
(445,442,o),
(367,442,cs),
(252,442,l)
);
}
);
width = 793;
}
);
note = R;
unicode = 82;
},
{
glyphname = S;
lastChange = "2025-02-10 17:39:31 +0000";
layers = (
{
background = {
shapes = (
{
closed = 1;
nodes = (
(364,-14,qs),
(670,-14,o),
(670,223,qs),
(670,305,o),
(583,426,o),
(390,475,qs),
(270,506,o),
(224,550,o),
(224,575,qs),
(224,650,o),
(354,650,qs),
(476,650,o),
(494,540,q),
(649,546,l),
(641,778,o),
(355,778,qs),
(230,778,o),
(76,667,o),
(76,565,qs),
(76,397,o),
(321,335,qs),
(450,303,o),
(516,262,o),
(516,222,qs),
(516,117,o),
(366,117,qs),
(225,117,o),
(198,264,q),
(48,249,l),
(79,-14,o)
);
}
);
};
layerId = m01;
shapes = (
{
closed = 1;
nodes = (
(568,-14,o),
(670,65,o),
(670,223,cs),
(670,278,o),
(656,325,o),
(627,366,cs),
(598,406,o),
(519,442,o),
(390,475,cs),
(310,496,o),
(262,513,o),
(247,528,cs),
(232,543,o),
(224,558,o),
(224,575,cs),
(224,625,o),
(267,650,o),
(354,650,cs),
(435,650,o),
(482,613,o),
(494,540,c),
(649,546,l),
(644,701,o),
(546,778,o),
(355,778,cs),
(188,778,o),
(76,701,o),
(76,565,cs),
(76,453,o),
(158,376,o),
(321,335,cs),
(407,314,o),
(461,296,o),
(483,283,cs),
(505,269,o),
(516,249,o),
(516,222,cs),
(516,152,o),
(466,117,o),
(366,117,cs),
(272,117,o),
(216,166,o),
(198,264,c),
(48,249,l),
(69,74,o),
(174,-14,o),
(364,-14,cs)
);
}
);
width = 736;
}
);
note = S;
unicode = 83;
},
{
glyphname = T;
lastChange = "2025-02-10 17:39:31 +0000";
layers = (
{
background = {
shapes = (
{
closed = 1;
nodes = (
(411,636,l),
(637,636,l),
(637,766,l),
(29,766,l),
(29,636,l),
(256,636,l),
(256,0,l),
(411,0,l)
);
}
);
};
layerId = m01;
shapes = (
{
closed = 1;
nodes = (
(411,0,l),
(411,636,l),
(637,636,l),
(637,766,l),
(29,766,l),
(29,636,l),
(256,636,l),
(256,0,l)
);
}
);
width = 665;
}
);
note = T;
unicode = 84;
},
{
glyphname = U;
lastChange = "2025-02-10 17:39:31 +0000";
layers = (
{
background = {
shapes = (
{
closed = 1;
nodes = (
(96,198,o),
(146,68,o),
(286,-13,o),
(410,-13,qs),
(538,-13,o),
(672,82,o),
(706,222,o),
(706,363,qs),
(706,766,l),
(552,766,l),
(552,342,ls),
(552,199,o),
(490,119,o),
(406,119,qs),
(338,119,o),
(263,176,o),
(250,259,o),
(250,351,qs),
(250,766,l),
(96,766,l),
(96,358,ls)
);
}
);
};
layerId = m01;
shapes = (
{
closed = 1;
nodes = (
(581,-13,o),
(666,59,o),
(689,152,cs),
(700,199,o),
(706,269,o),
(706,363,cs),
(706,766,l),
(552,766,l),
(552,342,ls),
(552,151,o),
(518,119,o),
(406,119,cs),
(315,119,o),
(265,162,o),
(257,218,cs),
(252,245,o),
(250,290,o),
(250,351,cs),
(250,766,l),
(96,766,l),
(96,358,ls),
(96,145,o),
(123,82,o),
(216,28,cs),
(263,1,o),
(327,-13,o),
(410,-13,cs)
);
}
);
width = 812;
}
);
note = U;
unicode = 85;
},
{
glyphname = V;
lastChange = "2025-02-10 17:39:31 +0000";
layers = (
{
background = {
shapes = (
{
closed = 1;
nodes = (
(712,766,l),
(548,766,l),
(361,199,l),
(167,766,l),
(-1,766,l),
(273,0,l),
(438,0,l)
);
}
);
};
layerId = m01;
shapes = (
{
closed = 1;
nodes = (
(438,0,l),
(712,766,l),
(548,766,l),
(361,199,l),
(167,766,l),
(-1,766,l),
(273,0,l)
);
}
);
width = 714;
}
);
note = V;
unicode = 86;
},
{
glyphname = W;
lastChange = "2025-02-10 17:39:31 +0000";
layers = (
{
background = {
shapes = (
{
closed = 1;
nodes = (
(507,572,l),
(659,0,l),
(823,0,l),
(1010,766,l),
(854,766,l),
(736,231,l),
(602,766,l),
(419,766,l),
(279,240,l),
(163,766,l),
(5,766,l),
(187,0,l),
(355,0,l)
);
}
);
};
layerId = m01;
shapes = (
{
closed = 1;
nodes = (
(355,0,l),
(507,572,l),
(659,0,l),
(823,0,l),
(1010,766,l),
(854,766,l),
(736,231,l),
(602,766,l),
(419,766,l),
(279,240,l),
(163,766,l),
(5,766,l),
(187,0,l)
);
}
);
width = 1011;
}
);
note = W;
unicode = 87;
},
{
glyphname = X;
lastChange = "2025-02-10 17:39:31 +0000";
layers = (
{
background = {
shapes = (
{
closed = 1;
nodes = (
(356,265,l),
(526,0,l),
(712,0,l),
(450,394,l),
(688,766,l),
(509,766,l),
(358,520,l),
(206,766,l),
(25,766,l),
(262,399,l),
(0,0,l),
(186,0,l)
);
}
);
};
layerId = m01;
shapes = (
{
closed = 1;
nodes = (
(186,0,l),
(356,265,l),
(526,0,l),
(712,0,l),
(450,394,l),
(688,766,l),
(509,766,l),
(358,520,l),
(206,766,l),
(25,766,l),
(262,399,l),
(0,0,l)
);
}
);
width = 714;
}
);
note = X;
unicode = 88;
},
{
glyphname = Y;
lastChange = "2025-02-10 17:39:31 +0000";
layers = (
{
background = {
shapes = (
{
closed = 1;
nodes = (
(432,321,l),
(714,766,l),
(536,766,l),
(360,462,l),
(180,766,l),
(-2,766,l),
(279,322,l),
(279,0,l),
(432,0,l)
);
}
);
};
layerId = m01;
shapes = (
{
closed = 1;
nodes = (
(432,0,l),
(432,321,l),
(714,766,l),
(536,766,l),
(360,462,l),
(180,766,l),
(-2,766,l),
(279,322,l),
(279,0,l)
);
}
);
width = 713;
}
);
note = Y;
unicode = 89;
},
{
glyphname = Z;
lastChange = "2025-02-10 17:39:31 +0000";
layers = (
{
background = {
shapes = (
{
closed = 1;
nodes = (
(636,129,l),
(200,129,l),
(620,646,l),
(620,766,l),
(60,766,l),
(60,636,l),
(416,636,l),
(14,139,l),
(14,0,l),
(636,0,l)
);
}
);
};
layerId = m01;
shapes = (
{
closed = 1;
nodes = (
(636,0,l),
(636,129,l),
(200,129,l),
(620,646,l),
(620,766,l),
(60,766,l),
(60,636,l),
(416,636,l),
(14,139,l),
(14,0,l)
);
}
);
width = 661;
}
);
note = Z;
unicode = 90;
},
{
glyphname = bracketleft;
lastChange = "2025-02-10 17:39:31 +0000";
layers = (
{
background = {
shapes = (
{
closed = 1;
nodes = (
(355,-100,l),
(235,-100,l),
(235,650,l),
(355,650,l),
(355,766,l),
(95,766,l),
(95,-216,l),
(355,-216,l)
);
}
);
};
layerId = m01;
shapes = (
{
closed = 1;
nodes = (
(355,-216,l),
(355,-100,l),
(235,-100,l),
(235,650,l),
(355,650,l),
(355,766,l),
(95,766,l),
(95,-216,l)
);
}
);
width = 380;
}
);
note = bracketleft;
unicode = 91;
},
{
glyphname = backslash;
lastChange = "2025-02-10 17:39:31 +0000";
layers = (
{
background = {
shapes = (
{
closed = 1;
nodes = (
(125,774,ls),
(115,774,o),
(48,741,q),
(199,276,l),
(243,127,o),
(293,-22,q),
(338,21,l),
(351,49,o),
(373,78,q),
(314,286,o),
(143,775,q)
);
}
);
};
layerId = m01;
shapes = (
{
closed = 1;
nodes = (
(338,21,l),
(347,40,o),
(358,59,o),
(373,78,c),
(334,217,o),
(257,449,o),
(143,775,c),
(125,774,ls),
(118,774,o),
(93,763,o),
(48,741,c),
(199,276,ls),
(228,177,o),
(260,77,o),
(293,-22,c)
);
}
);
width = 423;
}
);
note = backslash;
unicode = 92;
},
{
glyphname = bracketright;
lastChange = "2025-02-10 17:39:31 +0000";
layers = (
{
background = {
shapes = (
{
closed = 1;
nodes = (
(25,651,l),
(146,651,l),
(146,-100,l),
(25,-100,l),
(25,-216,l),
(285,-216,l),
(285,766,l),
(25,766,l)
);
}
);
};
layerId = m01;
shapes = (
{
closed = 1;
nodes = (
(285,-216,l),
(285,766,l),
(25,766,l),
(25,651,l),
(146,651,l),
(146,-100,l),
(25,-100,l),
(25,-216,l)
);
}
);
width = 380;
}
);
note = bracketright;
unicode = 93;
},
{
glyphname = asciicircum;
lastChange = "2025-02-10 17:39:31 +0000";
layers = (
{
background = {
shapes = (
{
closed = 1;
nodes = (
(327,617,l),
(431,362,l),
(579,362,l),
(388,778,l),
(272,778,l),
(75,362,l),
(225,362,l)
);
}
);
};
layerId = m01;
shapes = (
{
closed = 1;
nodes = (
(225,362,l),
(327,617,l),
(431,362,l),
(579,362,l),
(388,778,l),
(272,778,l),
(75,362,l)
);
}
);
width = 655;
}
);
note = asciicircum;
unicode = 94;
},
{
glyphname = underscore;
lastChange = "2025-02-10 17:39:31 +0000";
layers = (
{
background = {
shapes = (
{
closed = 1;
nodes = (
(598,-117,l),
(-12,-117,l),
(-12,-211,l),
(598,-211,l)
);
}
);
};
layerId = m01;
shapes = (
{
closed = 1;
nodes = (
(598,-211,l),
(598,-117,l),
(-12,-117,l),
(-12,-211,l)
);
}
);
width = 592;
}
);
note = underscore;
unicode = 95;
},
{
glyphname = grave;
lastChange = "2025-02-10 17:39:31 +0000";
layers = (
{
background = {
shapes = (
{
closed = 1;
nodes = (
(27,778,l),
(172,622,l),
(264,622,l),
(192,778,l)
);
}
);
};
layerId = m01;
shapes = (
{
closed = 1;
nodes = (
(264,622,l),
(192,778,l),
(27,778,l),
(172,622,l)
);
}
);
width = 386;
}
);
note = grave;
unicode = 96;
},
{
glyphname = a;
lastChange = "2025-02-10 17:39:31 +0000";
layers = (
{
background = {
shapes = (
{
closed = 1;
nodes = (
(293,455,qs),
(393,455,o),
(393,377,qs),
(393,362,l),
(354,346,o),
(250,326,qs),
(114,299,o),
(48,211,o),
(48,151,qs),
(48,76,o),
(150,-13,o),
(232,-13,qs),
(329,-13,o),
(404,61,q),
(414,22,o),
(423,0,q),
(568,0,l),
(535,68,o),
(535,182,qs),
(537,354,ls),
(537,473,o),
(440,567,o),
(303,567,qs),
(107,567,o),
(63,410,q),
(196,386,l),
(221,455,o)
);
},
{
closed = 1;
nodes = (
(393,91,o),
(276,91,qs),
(246,91,o),
(194,130,o),
(194,166,qs),
(194,198,o),
(223,218,q),
(322,253,o),
(393,266,q),
(393,237,ls)
);
}
);
};
layerId = m01;
shapes = (
{
closed = 1;
nodes = (
(297,-13,o),
(354,12,o),
(404,61,c),
(411,35,o),
(417,15,o),
(423,0,c),
(568,0,l),
(546,45,o),
(535,106,o),
(535,182,cs),
(537,354,ls),
(537,513,o),
(486,567,o),
(303,567,cs),
(172,567,o),
(92,515,o),
(63,410,c),
(196,386,l),
(213,432,o),
(245,455,o),
(293,455,cs),
(360,455,o),
(393,429,o),
(393,377,cs),
(393,362,l),
(367,351,o),
(319,339,o),
(250,326,cs),
(69,290,o),
(48,231,o),
(48,151,cs),
(48,51,o),
(123,-13,o),
(232,-13,cs)
);
},
{
closed = 1;
nodes = (
(236,91,o),
(194,118,o),
(194,166,cs),
(194,187,o),
(204,205,o),
(223,218,c),
(289,241,o),
(346,257,o),
(393,266,c),
(393,237,ls),
(393,140,o),
(354,91,o),
(276,91,cs)
);
}
);
width = 614;
}
);
note = a;
unicode = 97;
},
{
glyphname = b;
lastChange = "2025-02-10 17:39:31 +0000";
layers = (
{
background = {
shapes = (
{
closed = 1;
nodes = (
(225,82,l),
(292,-13,o),
(398,-13,qs),
(515,-13,o),
(630,167,o),
(630,283,qs),
(630,410,o),
(506,567,o),
(396,567,qs),
(302,567,o),
(235,490,q),
(235,766,l),
(88,766,l),
(88,0,l),
(225,0,l)
);
},
{
closed = 1;
nodes = (
(357,455,qs),
(479,455,o),
(479,276,qs),
(479,103,o),
(362,103,qs),
(234,103,o),
(234,290,qs),
(234,455,o)
);
}
);
};
layerId = m01;
shapes = (
{
closed = 1;
nodes = (
(554,-13,o),
(630,128,o),
(630,283,cs),
(630,452,o),
(543,567,o),
(396,567,cs),
(333,567,o),
(280,541,o),
(235,490,c),
(235,766,l),
(88,766,l),
(88,0,l),
(225,0,l),
(225,82,l),
(270,19,o),
(327,-13,o),
(398,-13,cs)
);
},
{
closed = 1;
nodes = (
(277,103,o),
(234,165,o),
(234,290,cs),
(234,400,o),
(275,455,o),
(357,455,cs),
(438,455,o),
(479,395,o),
(479,276,cs),
(479,161,o),
(440,103,o),
(362,103,cs)
);
}
);
width = 682;
}
);
note = b;
unicode = 98;
},
{
glyphname = c;
lastChange = "2025-02-10 17:39:31 +0000";
layers = (
{
background = {
shapes = (
{
closed = 1;
nodes = (
(325,567,qs),
(182,567,o),
(55,395,o),
(55,277,qs),
(55,146,o),
(197,-13,o),
(321,-13,qs),
(533,-13,o),
(579,188,q),
(434,213,l),
(414,107,o),
(329,107,qs),
(206,107,o),
(206,287,qs),
(206,452,o),
(326,452,qs),
(412,452,o),
(427,365,q),
(571,390,l),
(520,567,o)
);
}
);
};
layerId = m01;
shapes = (
{
closed = 1;
nodes = (
(462,-13,o),
(548,54,o),
(579,188,c),
(434,213,l),
(421,142,o),
(386,107,o),
(329,107,cs),
(247,107,o),
(206,167,o),
(206,287,cs),
(206,397,o),
(246,452,o),
(326,452,cs),
(383,452,o),
(417,423,o),
(427,365,c),
(571,390,l),
(537,508,o),
(455,567,o),
(325,567,cs),
(134,567,o),
(55,434,o),
(55,277,cs),
(55,102,o),
(156,-13,o),
(321,-13,cs)
);
}
);
width = 613;
}
);
note = c;
unicode = 99;
},
{
glyphname = d;
lastChange = "2025-02-10 17:39:31 +0000";
layers = (
{
background = {
shapes = (
{
closed = 1;
nodes = (
(449,766,l),
(449,490,l),
(381,567,o),
(289,567,qs),
(177,567,o),
(55,411,o),
(55,279,qs),
(55,154,o),
(181,-13,o),
(287,-13,qs),
(393,-13,o),
(460,82,q),
(460,0,l),
(597,0,l),
(597,766,l)
);
},
{
closed = 1;
nodes = (
(328,455,qs),
(450,455,o),
(450,275,qs),
(450,201,o),
(387,103,o),
(329,103,qs),
(205,103,o),
(205,290,qs),
(205,455,o)
);
}
);
};
layerId = m01;
shapes = (
{
closed = 1;
nodes = (
(358,-13,o),
(415,19,o),
(460,82,c),
(460,0,l),
(597,0,l),
(597,766,l),
(449,766,l),
(449,490,l),
(404,541,o),
(350,567,o),
(289,567,cs),
(140,567,o),
(55,455,o),
(55,279,cs),
(55,112,o),
(146,-13,o),
(287,-13,cs)
);
},
{
closed = 1;
nodes = (
(246,103,o),
(205,165,o),
(205,290,cs),
(205,400,o),
(246,455,o),
(328,455,cs),
(409,455,o),
(450,395,o),
(450,275,cs),
(450,176,o),
(406,103,o),
(329,103,cs)
);
}
);
width = 682;
}
);
note = d;
unicode = 100;
},
{
glyphname = e;
lastChange = "2025-02-10 17:39:31 +0000";
layers = (
{
background = {
shapes = (
{
closed = 1;
nodes = (
(313,97,qs),
(200,97,o),
(192,235,q),
(560,235,l),
(560,567,o),
(296,567,qs),
(180,567,o),
(42,404,o),
(42,273,qs),
(42,154,o),
(168,-13,o),
(312,-13,qs),
(495,-13,o),
(552,152,q),
(406,177,l),
(384,97,o)
);
},
{
closed = 1;
nodes = (
(196,455,o),
(305,455,qs),
(411,455,o),
(415,325,q),
(196,325,l)
);
}
);
};
layerId = m01;
shapes = (
{
closed = 1;
nodes = (
(434,-13,o),
(514,42,o),
(552,152,c),
(406,177,l),
(391,124,o),
(360,97,o),
(313,97,cs),
(238,97,o),
(197,143,o),
(192,235,c),
(560,235,l),
(560,456,o),
(472,567,o),
(296,567,cs),
(141,567,o),
(42,448,o),
(42,273,cs),
(42,114,o),
(120,-13,o),
(312,-13,cs)
);
},
{
closed = 1;
nodes = (
(196,412,o),
(232,455,o),
(305,455,cs),
(376,455,o),
(412,412,o),
(415,325,c),
(196,325,l)
);
}
);
width = 614;
}
);
note = e;
unicode = 101;
},
{
glyphname = f;
lastChange = "2025-02-10 17:39:31 +0000";
layers = (
{
background = {
shapes = (
{
closed = 1;
nodes = (
(98,439,l),
(98,0,l),
(244,0,l),
(244,439,l),
(354,439,l),
(354,554,l),
(244,554,l),
(244,594,ls),
(244,666,o),
(303,666,qs),
(336,666,o),
(371,658,q),
(390,760,l),
(330,778,o),
(268,778,qs),
(98,778,o),
(98,596,qs),
(98,554,l),
(16,554,l),
(16,439,l)
);
}
);
};
layerId = m01;
shapes = (
{
closed = 1;
nodes = (
(244,0,l),
(244,439,l),
(354,439,l),
(354,554,l),
(244,554,l),
(244,594,ls),
(244,642,o),
(264,666,o),
(303,666,cs),
(325,666,o),
(348,663,o),
(371,658,c),
(390,760,l),
(350,772,o),
(309,778,o),
(268,778,cs),
(155,778,o),
(98,717,o),
(98,596,cs),
(98,554,l),
(16,554,l),
(16,439,l),
(98,439,l),
(98,0,l)
);
}
);
width = 351;
}
);
note = f;
unicode = 102;
},
{
glyphname = g;
lastChange = "2025-02-10 17:39:31 +0000";
layers = (
{
background = {
shapes = (
{
closed = 1;
nodes = (
(73,-55,qs),
(73,-135,o),
(132,-177,qs),
(197,-225,o),
(333,-225,qs),
(477,-225,o),
(596,-103,o),
(596,57,qs),
(596,554,l),
(458,554,l),
(458,477,l),
(392,567,o),
(289,567,qs),
(168,567,o),
(55,395,o),
(55,281,qs),
(55,164,o),
(175,0,o),
(283,0,qs),
(383,0,o),
(449,90,q),
(449,9,ls),
(449,-61,o),
(395,-113,o),
(327,-113,qs),
(250,-113,o),
(242,-57,q),
(74,-37,l),
(73,-46,o)
);
},
{
closed = 1;
nodes = (
(326,455,qs),
(452,455,o),
(452,285,qs),
(452,118,o),
(324,118,qs),
(205,118,o),
(205,289,qs),
(205,455,o)
);
}
);
};
layerId = m01;
shapes = (
{
closed = 1;
nodes = (
(525,-225,o),
(596,-156,o),
(596,57,cs),
(596,554,l),
(458,554,l),
(458,477,l),
(414,537,o),
(358,567,o),
(289,567,cs),
(128,567,o),
(55,433,o),
(55,281,cs),
(55,125,o),
(139,0,o),
(283,0,cs),
(350,0,o),
(405,30,o),
(449,90,c),
(449,9,ls),
(449,-84,o),
(418,-113,o),
(327,-113,cs),
(276,-113,o),
(247,-94,o),
(242,-57,c),
(74,-37,l),
(73,-55,ls),
(73,-108,o),
(93,-149,o),
(132,-177,cs),
(175,-209,o),
(242,-225,o),
(333,-225,cs)
);
},
{
closed = 1;
nodes = (
(245,118,o),
(205,175,o),
(205,289,cs),
(205,400,o),
(245,455,o),
(326,455,cs),
(410,455,o),
(452,398,o),
(452,285,cs),
(452,174,o),
(409,118,o),
(324,118,cs)
);
}
);
width = 682;
}
);
note = g;
unicode = 103;
},
{
glyphname = h;
lastChange = "2025-02-10 17:39:31 +0000";
layers = (
{
background = {
shapes = (
{
closed = 1;
nodes = (
(95,0,l),
(242,0,l),
(242,278,ls),
(242,455,o),
(363,455,qs),
(418,455,o),
(453,389,o),
(453,293,qs),
(453,0,l),
(601,0,l),
(601,326,ls),
(601,446,o),
(519,567,o),
(412,567,qs),
(313,567,o),
(242,484,q),
(242,766,l),
(95,766,l)
);
}
);
};
layerId = m01;
shapes = (
{
closed = 1;
nodes = (
(242,0,l),
(242,278,ls),
(242,396,o),
(282,455,o),
(363,455,cs),
(436,455,o),
(453,421,o),
(453,293,cs),
(453,0,l),
(601,0,l),
(601,326,ls),
(601,486,o),
(555,567,o),
(412,567,cs),
(346,567,o),
(289,539,o),
(242,484,c),
(242,766,l),
(95,766,l),
(95,0,l)
);
}
);
width = 691;
}
);
note = h;
unicode = 104;
},
{
glyphname = i;
lastChange = "2025-02-10 17:39:31 +0000";
layers = (
{
background = {
shapes = (
{
closed = 1;
nodes = (
(242,766,l),
(96,766,l),
(96,630,l),
(242,630,l)
);
},
{
closed = 1;
nodes = (
(242,554,l),
(96,554,l),
(96,0,l),
(242,0,l)
);
}
);
};
layerId = m01;
shapes = (
{
closed = 1;
nodes = (
(242,0,l),
(242,554,l),
(96,554,l),
(96,0,l)
);
},
{
closed = 1;
nodes = (
(242,630,l),
(242,766,l),
(96,766,l),
(96,630,l)
);
}
);
width = 334;
}
);
note = i;
unicode = 105;
},
{
glyphname = j;
lastChange = "2025-02-10 17:39:32 +0000";
layers = (
{
background = {
shapes = (
{
closed = 1;
nodes = (
(208,766,l),
(61,766,l),
(61,630,l),
(208,630,l)
);
},
{
closed = 1;
nodes = (
(61,26,ls),
(61,-50,o),
(39,-89,o),
(1,-89,qs),
(-12,-89,o),
(-35,-84,q),
(-61,-210,l),
(-3,-225,o),
(41,-225,qs),
(139,-225,o),
(208,-117,o),
(208,18,qs),
(208,554,l),
(61,554,l)
);
}
);
};
layerId = m01;
shapes = (
{
closed = 1;
nodes = (
(172,-225,o),
(208,-162,o),
(208,18,cs),
(208,554,l),
(61,554,l),
(61,26,ls),
(61,-25,o),
(57,-56,o),
(50,-69,cs),
(43,-82,o),
(26,-89,o),
(1,-89,cs),
(-8,-89,o),
(-20,-87,o),
(-35,-84,c),
(-61,-210,l),
(-22,-220,o),
(12,-225,o),
(41,-225,cs)
);
},
{
closed = 1;
nodes = (
(208,630,l),
(208,766,l),
(61,766,l),
(61,630,l)
);
}
);
width = 304;
}
);
note = j;
unicode = 106;
},
{
glyphname = k;
lastChange = "2025-02-10 17:39:32 +0000";
layers = (
{
background = {
shapes = (
{
closed = 1;
nodes = (
(236,178,l),
(304,249,l),
(444,0,l),
(602,0,l),
(399,352,l),
(589,554,l),
(408,554,l),
(236,359,l),
(236,766,l),
(89,766,l),
(89,0,l),
(236,0,l)
);
}
);
};
layerId = m01;
shapes = (
{
closed = 1;
nodes = (
(236,0,l),
(236,178,l),
(304,249,l),
(444,0,l),
(602,0,l),
(399,352,l),
(589,554,l),
(408,554,l),
(236,359,l),
(236,766,l),
(89,766,l),
(89,0,l)
);
}
);
width = 616;
}
);
note = k;
unicode = 107;
},
{
glyphname = l;
lastChange = "2025-02-10 17:39:32 +0000";
layers = (
{
background = {
shapes = (
{
closed = 1;
nodes = (
(242,766,l),
(96,766,l),
(96,0,l),
(242,0,l)
);
}
);
};
layerId = m01;
shapes = (
{
closed = 1;
nodes = (
(242,0,l),
(242,766,l),
(96,766,l),
(96,0,l)
);
}
);
width = 334;
}
);
note = l;
unicode = 108;
},
{
glyphname = m;
lastChange = "2025-02-10 17:39:32 +0000";
layers = (
{
background = {
shapes = (
{
closed = 1;
nodes = (
(229,0,l),
(229,270,ls),
(229,394,o),
(292,455,o),
(340,455,qs),
(393,455,o),
(417,372,o),
(417,304,qs),
(417,0,l),
(564,0,l),
(564,266,ls),
(564,455,o),
(673,455,qs),
(706,455,o),
(751,411,o),
(751,317,qs),
(751,0,l),
(898,0,l),
(898,354,ls),
(898,567,o),
(716,567,qs),
(620,567,o),
(547,479,q),
(497,567,o),
(390,567,qs),
(290,567,o),
(217,479,q),
(217,554,l),
(82,554,l),
(82,0,l)
);
}
);
};
layerId = m01;
shapes = (
{
closed = 1;
nodes = (
(229,0,l),
(229,270,ls),
(229,353,o),
(240,404,o),
(261,425,cs),
(282,445,o),
(308,455,o),
(340,455,cs),
(411,455,o),
(417,395,o),
(417,304,cs),
(417,0,l),
(564,0,l),
(564,266,ls),
(564,392,o),
(600,455,o),
(673,455,cs),
(695,455,o),
(714,448,o),
(729,433,cs),
(744,418,o),
(751,380,o),
(751,317,cs),
(751,0,l),
(898,0,l),
(898,354,ls),
(898,496,o),
(837,567,o),
(716,567,cs),
(652,567,o),
(596,538,o),
(547,479,c),
(514,538,o),
(461,567,o),
(390,567,cs),
(323,567,o),
(266,538,o),
(217,479,c),
(217,554,l),
(82,554,l),
(82,0,l)
);
}
);
width = 985;
}
);
note = m;
unicode = 109;
},
{
glyphname = n;
lastChange = "2025-02-10 17:39:32 +0000";
layers = (
{
background = {
shapes = (
{
closed = 1;
nodes = (
(601,567,o),
(414,567,qs),
(304,567,o),
(231,473,q),
(231,554,l),
(95,554,l),
(95,0,l),
(241,0,l),
(241,251,ls),
(241,398,o),
(314,455,o),
(363,455,qs),
(417,455,o),
(453,381,o),
(453,283,qs),
(453,0,l),
(601,0,l),
(601,345,ls)
);
}
);
};
layerId = m01;
shapes = (
{
closed = 1;
nodes = (
(241,0,l),
(241,251,ls),
(241,349,o),
(253,408,o),
(278,427,cs),
(302,446,o),
(330,455,o),
(363,455,cs),
(435,455,o),
(453,414,o),
(453,283,cs),
(453,0,l),
(601,0,l),
(601,345,ls),
(601,493,o),
(539,567,o),
(414,567,cs),
(341,567,o),
(280,536,o),
(231,473,c),
(231,554,l),
(95,554,l),
(95,0,l)
);
}
);
width = 691;
}
);
note = n;
unicode = 110;
},
{
glyphname = o;
lastChange = "2025-02-10 17:39:32 +0000";
layers = (
{
background = {
shapes = (
{
closed = 1;
nodes = (
(210,-13,o),
(340,-13,qs),
(466,-13,o),
(626,153,o),
(626,279,qs),
(626,406,o),
(467,567,o),
(340,567,qs),
(211,567,o),
(54,402,o),
(54,285,qs),
(54,142,o)
);
},
{
closed = 1;
nodes = (
(276,447,o),
(340,447,qs),
(404,447,o),
(475,354,o),
(475,278,qs),
(475,202,o),
(404,107,o),
(340,107,qs),
(276,107,o),
(204,202,o),
(204,278,qs),
(204,354,o)
);
}
);
};
layerId = m01;
shapes = (
{
closed = 1;
nodes = (
(508,-13,o),
(626,111,o),
(626,279,cs),
(626,448,o),
(509,567,o),
(340,567,cs),
(168,567,o),
(54,441,o),
(54,285,cs),
(54,94,o),
(167,-13,o),
(340,-13,cs)
);
},
{
closed = 1;
nodes = (
(255,107,o),
(204,177,o),
(204,278,cs),
(204,379,o),
(255,447,o),
(340,447,cs),
(425,447,o),
(475,379,o),
(475,278,cs),
(475,177,o),
(425,107,o),
(340,107,cs)
);
}
);
width = 674;
}
);
note = o;
unicode = 111;
},
{
glyphname = p;
lastChange = "2025-02-10 17:39:32 +0000";
layers = (
{
background = {
shapes = (
{
closed = 1;
nodes = (
(237,-211,l),
(237,69,l),
(313,-13,o),
(400,-13,qs),
(507,-13,o),
(632,154,o),
(632,281,qs),
(632,399,o),
(511,567,o),
(401,567,qs),
(288,567,o),
(228,473,q),
(228,554,l),
(91,554,l),
(91,-211,l)
);
},
{
closed = 1;
nodes = (
(361,451,qs),
(482,451,o),
(482,279,qs),
(482,104,o),
(364,104,qs),
(236,104,o),
(236,286,qs),
(236,451,o)
);
}
);
};
layerId = m01;
shapes = (
{
closed = 1;
nodes = (
(237,-211,l),
(237,69,l),
(288,14,o),
(342,-13,o),
(400,-13,cs),
(543,-13,o),
(632,112,o),
(632,281,cs),
(632,438,o),
(548,567,o),
(401,567,cs),
(326,567,o),
(268,536,o),
(228,473,c),
(228,554,l),
(91,554,l),
(91,-211,l)
);
},
{
closed = 1;
nodes = (
(279,104,o),
(236,165,o),
(236,286,cs),
(236,396,o),
(278,451,o),
(361,451,cs),
(442,451,o),
(482,394,o),
(482,279,cs),
(482,162,o),
(443,104,o),
(364,104,cs)
);
}
);
width = 682;
}
);
note = p;
unicode = 112;
},
{
glyphname = q;
lastChange = "2025-02-10 17:39:32 +0000";
layers = (
{
background = {
shapes = (
{
closed = 1;
nodes = (
(597,554,l),
(462,554,l),
(462,473,l),
(400,567,o),
(295,567,qs),
(173,567,o),
(59,395,o),
(59,283,qs),
(59,156,o),
(181,-13,o),
(287,-13,qs),
(389,-13,o),
(451,68,q),
(451,-211,l),
(597,-211,l)
);
},
{
closed = 1;
nodes = (
(391,103,o),
(329,103,qs),
(209,103,o),
(209,276,qs),
(209,452,o),
(334,452,qs),
(456,452,o),
(456,284,qs),
(456,210,o)
);
}
);
};
layerId = m01;
shapes = (
{
closed = 1;
nodes = (
(597,-211,l),
(597,554,l),
(462,554,l),
(462,473,l),
(421,536,o),
(365,567,o),
(295,567,cs),
(132,567,o),
(59,432,o),
(59,283,cs),
(59,114,o),
(146,-13,o),
(287,-13,cs),
(355,-13,o),
(410,14,o),
(451,68,c),
(451,-211,l)
);
},
{
closed = 1;
nodes = (
(249,103,o),
(209,161,o),
(209,276,cs),
(209,393,o),
(251,452,o),
(334,452,cs),
(415,452,o),
(456,396,o),
(456,284,cs),
(456,185,o),
(412,103,o),
(329,103,cs)
);
}
);
width = 682;
}
);
note = q;
unicode = 113;
},
{
glyphname = r;
lastChange = "2025-02-10 17:39:32 +0000";
layers = (
{
background = {
shapes = (
{
closed = 1;
nodes = (
(235,330,o),
(277,435,o),
(333,435,qs),
(365,435,o),
(402,411,q),
(447,539,l),
(401,567,o),
(350,567,qs),
(282,567,o),
(225,476,q),
(225,554,l),
(88,554,l),
(88,0,l),
(235,0,l),
(235,171,ls)
);
}
);
};
layerId = m01;
shapes = (
{
closed = 1;
nodes = (
(235,0,l),
(235,171,ls),
(235,277,o),
(242,348,o),
(256,383,cs),
(270,418,o),
(296,435,o),
(333,435,cs),
(354,435,o),
(377,427,o),
(402,411,c),
(447,539,l),
(416,558,o),
(384,567,o),
(350,567,cs),
(305,567,o),
(263,537,o),
(225,476,c),
(225,554,l),
(88,554,l),
(88,0,l)
);
}
);
width = 430;
}
);
note = r;
unicode = 114;
},
{
glyphname = s;
lastChange = "2025-02-10 17:39:32 +0000";
layers = (
{
background = {
shapes = (
{
closed = 1;
nodes = (
(297,-13,qs),
(401,-13,o),
(549,82,o),
(549,174,qs),
(549,244,o),
(459,319,o),
(345,344,qs),
(188,378,o),
(188,416,qs),
(188,462,o),
(288,462,qs),
(374,462,o),
(392,395,q),
(530,421,l),
(489,567,o),
(285,567,qs),
(52,567,o),
(52,397,qs),
(52,334,o),
(139,246,o),
(342,201,qs),
(402,187,o),
(402,154,qs),
(402,94,o),
(297,94,qs),
(197,94,o),
(178,181,q),
(31,158,l),
(75,-13,o)
);
}
);
};
layerId = m01;
shapes = (
{
closed = 1;
nodes = (
(436,-13,o),
(549,51,o),
(549,174,cs),
(549,267,o),
(497,311,o),
(345,344,cs),
(240,367,o),
(188,391,o),
(188,416,cs),
(188,447,o),
(221,462,o),
(288,462,cs),
(345,462,o),
(380,440,o),
(392,395,c),
(530,421,l),
(503,518,o),
(421,567,o),
(285,567,cs),
(130,567,o),
(52,510,o),
(52,397,cs),
(52,355,o),
(67,319,o),
(96,290,cs),
(125,261,o),
(207,231,o),
(342,201,cs),
(382,192,o),
(402,176,o),
(402,154,cs),
(402,114,o),
(367,94,o),
(297,94,cs),
(230,94,o),
(191,123,o),
(178,181,c),
(31,158,l),
(60,44,o),
(149,-13,o),
(297,-13,cs)
);
}
);
width = 614;
}
);
note = s;
unicode = 115;
},
{
glyphname = t;
lastChange = "2025-02-10 17:39:32 +0000";
layers = (
{
background = {
shapes = (
{
closed = 1;
nodes = (
(235,750,l),
(87,665,l),
(87,554,l),
(20,554,l),
(20,438,l),
(87,438,l),
(87,196,ls),
(87,79,o),
(140,-13,o),
(231,-13,qs),
(296,-13,o),
(347,10,q),
(334,123,l),
(296,109,o),
(275,109,qs),
(251,109,o),
(235,147,o),
(235,214,qs),
(235,438,l),
(335,438,l),
(335,554,l),
(235,554,l)
);
}
);
};
layerId = m01;
shapes = (
{
closed = 1;
nodes = (
(274,-13,o),
(313,-5,o),
(347,10,c),
(334,123,l),
(309,114,o),
(289,109,o),
(275,109,cs),
(259,109,o),
(248,115,o),
(243,128,cs),
(238,141,o),
(235,169,o),
(235,214,cs),
(235,438,l),
(335,438,l),
(335,554,l),
(235,554,l),
(235,750,l),
(87,665,l),
(87,554,l),
(20,554,l),
(20,438,l),
(87,438,l),
(87,196,ls),
(87,40,o),
(110,-13,o),
(231,-13,cs)
);
}
);
width = 363;
}
);
note = t;
unicode = 116;
},
{
glyphname = u;
lastChange = "2025-02-10 17:39:32 +0000";
layers = (
{
background = {
shapes = (
{
closed = 1;
nodes = (
(597,554,l),
(450,554,l),
(450,321,ls),
(450,185,o),
(400,99,o),
(330,99,qs),
(274,99,o),
(238,179,o),
(238,300,qs),
(238,554,l),
(92,554,l),
(92,204,ls),
(92,-13,o),
(276,-13,qs),
(395,-13,o),
(460,83,q),
(460,0,l),
(597,0,l)
);
}
);
};
layerId = m01;
shapes = (
{
closed = 1;
nodes = (
(355,-13,o),
(417,19,o),
(460,83,c),
(460,0,l),
(597,0,l),
(597,554,l),
(450,554,l),
(450,321,ls),
(450,230,o),
(442,171,o),
(425,142,cs),
(408,113,o),
(377,99,o),
(330,99,cs),
(293,99,o),
(268,112,o),
(256,139,cs),
(244,166,o),
(238,219,o),
(238,300,cs),
(238,554,l),
(92,554,l),
(92,204,ls),
(92,59,o),
(153,-13,o),
(276,-13,cs)
);
}
);
width = 691;
}
);
note = u;
unicode = 117;
},
{
glyphname = v;
lastChange = "2025-02-10 17:39:32 +0000";
layers = (
{
background = {
shapes = (
{
closed = 1;
nodes = (
(583,554,l),
(433,554,l),
(296,177,l),
(161,554,l),
(7,554,l),
(231,0,l),
(363,0,l)
);
}
);
};
layerId = m01;
shapes = (
{
closed = 1;
nodes = (
(363,0,l),
(583,554,l),
(433,554,l),
(296,177,l),
(161,554,l),
(7,554,l),
(231,0,l)
);
}
);
width = 600;
}
);
note = v;
unicode = 118;
},
{
glyphname = w;
lastChange = "2025-02-10 17:39:32 +0000";
layers = (
{
background = {
shapes = (
{
closed = 1;
nodes = (
(418,357,l),
(513,0,l),
(655,0,l),
(832,554,l),
(688,554,l),
(582,191,l),
(489,554,l),
(348,554,l),
(252,191,l),
(148,554,l),
(6,554,l),
(181,0,l),
(324,0,l)
);
}
);
};
layerId = m01;
shapes = (
{
closed = 1;
nodes = (
(324,0,l),
(418,357,l),
(513,0,l),
(655,0,l),
(832,554,l),
(688,554,l),
(582,191,l),
(489,554,l),
(348,554,l),
(252,191,l),
(148,554,l),
(6,554,l),
(181,0,l)
);
}
);
width = 833;
}
);
note = w;
unicode = 119;
},
{
glyphname = x;
lastChange = "2025-02-10 17:39:32 +0000";
layers = (
{
background = {
shapes = (
{
closed = 1;
nodes = (
(294,172,l),
(406,0,l),
(586,0,l),
(382,292,l),
(570,554,l),
(397,554,l),
(294,402,l),
(195,554,l),
(16,554,l),
(208,286,l),
(8,0,l),
(180,0,l)
);
}
);
};
layerId = m01;
shapes = (
{
closed = 1;
nodes = (
(180,0,l),
(294,172,l),
(406,0,l),
(586,0,l),
(382,292,l),
(570,554,l),
(397,554,l),
(294,402,l),
(195,554,l),
(16,554,l),
(208,286,l),
(8,0,l)
);
}
);
width = 599;
}
);
note = x;
unicode = 120;
},
{
glyphname = y;
lastChange = "2025-02-10 17:39:32 +0000";
layers = (
{
background = {
shapes = (
{
closed = 1;
nodes = (
(190,-108,o),
(107,-108,qs),
(79,-108,o),
(45,-102,q),
(58,-216,l),
(99,-225,o),
(141,-225,qs),
(294,-225,o),
(348,-76,qs),
(579,554,l),
(427,554,l),
(298,161,l),
(165,554,l),
(9,554,l),
(220,-2,l)
);
}
);
};
layerId = m01;
shapes = (
{
closed = 1;
nodes = (
(243,-225,o),
(312,-175,o),
(348,-76,cs),
(579,554,l),
(427,554,l),
(298,161,l),
(165,554,l),
(9,554,l),
(220,-2,l),
(200,-73,o),
(162,-108,o),
(107,-108,cs),
(88,-108,o),
(68,-106,o),
(45,-102,c),
(58,-216,l),
(85,-222,o),
(113,-225,o),
(141,-225,cs)
);
}
);
width = 601;
}
);
note = y;
unicode = 121;
},
{
glyphname = z;
lastChange = "2025-02-10 17:39:32 +0000";
layers = (
{
background = {
shapes = (
{
closed = 1;
nodes = (
(517,129,l),
(290,129,ls),
(276,129,o),
(214,126,q),
(289,206,l),
(501,450,l),
(501,554,l),
(43,554,l),
(43,433,l),
(238,434,l),
(306,436,l),
(279,409,o),
(230,353,qs),
(22,114,l),
(22,0,l),
(517,0,l)
);
}
);
};
layerId = m01;
shapes = (
{
closed = 1;
nodes = (
(517,0,l),
(517,129,l),
(290,129,l),
(214,126,l),
(289,206,l),
(501,450,l),
(501,554,l),
(43,554,l),
(43,433,l),
(238,434,l),
(306,436,l),
(288,418,o),
(263,390,o),
(230,353,cs),
(22,114,l),
(22,0,l)
);
}
);
width = 544;
}
);
note = z;
unicode = 122;
},
{
glyphname = braceleft;
lastChange = "2025-02-10 17:39:32 +0000";
layers = (
{
background = {
shapes = (
{
closed = 1;
nodes = (
(153,122,o),
(153,9,qs),
(153,-134,o),
(249,-225,o),
(369,-225,qs),
(397,-225,l),
(397,-100,l),
(331,-100,o),
(289,-70,o),
(289,-24,qs),
(289,121,o),
(253,241,o),
(192,277,q),
(278,326,o),
(285,457,qs),
(293,607,o),
(299,638,o),
(353,654,o),
(397,654,q),
(397,778,l),
(369,778,ls),
(238,778,o),
(153,685,o),
(153,526,qs),
(153,426,o),
(110,343,o),
(39,339,q),
(39,214,l),
(110,210,o)
);
}
);
};
layerId = m01;
shapes = (
{
closed = 1;
nodes = (
(397,-225,l),
(397,-100,l),
(309,-100,o),
(289,-85,o),
(289,-24,cs),
(289,169,o),
(273,229,o),
(192,277,c),
(249,310,o),
(280,370,o),
(285,457,cs),
(290,557,o),
(294,612,o),
(296,623,cs),
(300,642,o),
(334,654,o),
(397,654,c),
(397,778,l),
(369,778,ls),
(194,778,o),
(153,738,o),
(153,526,cs),
(153,393,o),
(134,344,o),
(39,339,c),
(39,214,l),
(134,209,o),
(153,160,o),
(153,9,cs),
(153,-182,o),
(209,-225,o),
(369,-225,cs)
);
}
);
width = 431;
}
);
note = braceleft;
unicode = 123;
},
{
glyphname = bar;
lastChange = "2025-02-10 17:39:32 +0000";
layers = (
{
background = {
shapes = (
{
closed = 1;
nodes = (
(231,778,l),
(115,778,l),
(115,-225,l),
(231,-225,l)
);
}
);
};
layerId = m01;
shapes = (
{
closed = 1;
nodes = (
(231,-225,l),
(231,778,l),
(115,778,l),
(115,-225,l)
);
}
);
width = 345;
}
);
note = bar;
unicode = 124;
},
{
glyphname = braceright;
lastChange = "2025-02-10 17:39:32 +0000";
layers = (
{
background = {
shapes = (
{
closed = 1;
nodes = (
(315,343,o),
(272,431,o),
(272,545,qs),
(272,688,o),
(176,778,o),
(57,778,qs),
(29,778,l),
(29,654,l),
(100,654,o),
(135,625,o),
(136,574,qs),
(139,414,o),
(175,315,o),
(234,277,q),
(147,229,o),
(140,94,qs),
(133,-58,o),
(115,-100,o),
(29,-100,q),
(29,-225,l),
(57,-225,ls),
(170,-225,o),
(272,-145,o),
(272,29,qs),
(272,134,o),
(324,210,o),
(387,214,q),
(387,339,l)
);
}
);
};
layerId = m01;
shapes = (
{
closed = 1;
nodes = (
(57,-225,ls),
(208,-225,o),
(272,-203,o),
(272,29,cs),
(272,169,o),
(303,209,o),
(387,214,c),
(387,339,l),
(291,344,o),
(272,393,o),
(272,545,cs),
(272,736,o),
(216,778,o),
(57,778,cs),
(29,778,l),
(29,654,l),
(124,654,o),
(135,642,o),
(136,574,cs),
(138,467,o),
(145,398,o),
(157,365,cs),
(169,332,o),
(195,302,o),
(234,277,c),
(176,245,o),
(145,184,o),
(140,94,cs),
(135,-7,o),
(130,-65,o),
(124,-79,cs),
(118,-93,o),
(86,-100,o),
(29,-100,c),
(29,-225,l)
);
}
);
width = 431;
}
);
note = braceright;
unicode = 125;
},
{
glyphname = asciitilde;
lastChange = "2025-02-10 17:39:32 +0000";
layers = (
{
background = {
shapes = (
{
closed = 1;
nodes = (
(186,344,qs),
(231,344,o),
(314,308,qs),
(398,273,o),
(442,273,qs),
(532,273,o),
(598,342,q),
(598,482,l),
(528,407,o),
(456,407,qs),
(430,407,o),
(358,436,qs),
(254,478,o),
(198,478,qs),
(110,478,o),
(44,406,q),
(44,271,l),
(114,344,o)
);
}
);
};
layerId = m01;
shapes = (
{
closed = 1;
nodes = (
(91,320,o),
(138,344,o),
(186,344,cs),
(216,344,o),
(259,332,o),
(314,308,cs),
(370,285,o),
(413,273,o),
(442,273,cs),
(502,273,o),
(554,296,o),
(598,342,c),
(598,482,l),
(551,432,o),
(504,407,o),
(456,407,cs),
(439,407,o),
(406,417,o),
(358,436,cs),
(289,464,o),
(235,478,o),
(198,478,cs),
(139,478,o),
(88,454,o),
(44,406,c),
(44,271,l)
);
}
);
width = 642;
}
);
note = asciitilde;
unicode = 126;
},
{
glyphname = exclamdown;
lastChange = "2025-02-10 17:39:32 +0000";
layers = (
{
background = {
shapes = (
{
closed = 1;
nodes = (
(336,881,o),
(293,881,qs),
(254,881,ls),
(210,881,o),
(150,821,o),
(150,777,qs),
(150,734,o),
(211,673,o),
(254,673,qs),
(293,673,ls),
(337,673,o),
(397,734,o),
(397,778,qs),
(397,821,o)
);
},
{
closed = 1;
nodes = (
(313,432,o),
(273,432,qs),
(234,432,o),
(231,374,qs),
(194,-271,ls),
(192,-306,o),
(192,-304,qs),
(192,-386,o),
(274,-386,qs),
(309,-386,o),
(333,-363,qs),
(355,-341,o),
(355,-309,qs),
(355,-306,l),
(316,374,ls)
);
}
);
};
layerId = m01;
shapes = (
{
closed = 1;
nodes = (
(297,-386,o),
(317,-378,o),
(333,-363,cs),
(348,-348,o),
(355,-330,o),
(355,-309,cs),
(355,-306,l),
(316,374,ls),
(314,413,o),
(300,432,o),
(273,432,cs),
(247,432,o),
(233,413,o),
(231,374,cs),
(194,-271,l),
(192,-304,ls),
(192,-359,o),
(219,-386,o),
(274,-386,cs)
);
},
{
closed = 1;
nodes = (
(293,673,ls),
(352,673,o),
(397,719,o),
(397,778,cs),
(397,835,o),
(350,881,o),
(293,881,cs),
(254,881,ls),
(195,881,o),
(150,836,o),
(150,777,cs),
(150,720,o),
(197,673,o),
(254,673,cs)
);
}
);
width = 547;
}
);
note = exclamdown;
unicode = 161;
},
{
glyphname = cent;
lastChange = "2025-02-10 17:39:32 +0000";
layers = (
{
background = {
shapes = (
{
closed = 1;
nodes = (
(846,445,qs),
(847,445,l),
(847,441,o),
(749,393,qs),
(641,341,o),
(548,341,qs),
(414,341,o),
(234,512,o),
(234,645,qs),
(234,782,o),
(328,868,qs),
(418,950,o),
(557,950,qs),
(666,950,o),
(727,907,qs),
(769,876,o),
(793,808,qs),
(812,755,o),
(837,755,qs),
(879,755,o),
(879,812,qs),
(879,939,ls),
(879,990,o),
(836,990,qs),
(805,990,o),
(795,956,q),
(705,1027,o),
(577,1031,q),
(577,1278,ls),
(577,1334,o),
(535,1334,qs),
(493,1334,o),
(493,1278,qs),
(493,1028,l),
(336,994,o),
(247,901,qs),
(150,799,o),
(150,644,qs),
(150,495,o),
(345,279,o),
(493,261,q),
(493,54,ls),
(493,-2,o),
(535,-2,qs),
(577,-2,o),
(577,54,qs),
(577,261,l),
(652,265,o),
(756,303,qs),
(886,350,o),
(886,404,qs),
(886,445,o)
);
}
);
};
layerId = m01;
shapes = (
{
closed = 1;
nodes = (
(563,-2,o),
(577,17,o),
(577,54,cs),
(577,261,l),
(627,264,o),
(687,278,o),
(756,303,cs),
(843,334,o),
(886,368,o),
(886,404,cs),
(886,431,o),
(873,445,o),
(846,445,cs),
(847,445,l),
(847,442,o),
(814,425,o),
(749,393,cs),
(677,358,o),
(610,341,o),
(548,341,cs),
(369,341,o),
(234,468,o),
(234,645,cs),
(234,736,o),
(265,811,o),
(328,868,cs),
(388,923,o),
(464,950,o),
(557,950,cs),
(630,950,o),
(686,936,o),
(727,907,cs),
(755,886,o),
(777,853,o),
(793,808,cs),
(806,773,o),
(820,755,o),
(837,755,cs),
(865,755,o),
(879,774,o),
(879,812,cs),
(879,939,ls),
(879,973,o),
(865,990,o),
(836,990,cs),
(815,990,o),
(802,979,o),
(795,956,c),
(735,1003,o),
(662,1028,o),
(577,1031,c),
(577,1278,ls),
(577,1315,o),
(563,1334,o),
(535,1334,cs),
(507,1334,o),
(493,1315,o),
(493,1278,cs),
(493,1028,l),
(388,1005,o),
(306,963,o),
(247,901,cs),
(182,833,o),
(150,747,o),
(150,644,cs),
(150,445,o),
(296,285,o),
(493,261,c),
(493,54,ls),
(493,17,o),
(507,-2,o),
(535,-2,cs)
);
}
);
width = 1038;
}
);
note = cent;
unicode = 162;
},
{
glyphname = sterling;
lastChange = "2025-02-10 17:39:32 +0000";
layers = (
{
background = {
shapes = (
{
closed = 1;
nodes = (
(1007,241,qs),
(978,241,o),
(967,201,qs),
(947,131,o),
(945,126,q),
(923,86,o),
(870,86,qs),
(351,86,l),
(469,236,o),
(469,448,qs),
(469,507,o),
(459,569,q),
(645,569,ls),
(701,569,o),
(701,611,qs),
(701,653,o),
(645,653,qs),
(440,653,l),
(382,860,o),
(382,906,qs),
(382,994,o),
(506,1119,o),
(594,1119,qs),
(674,1119,o),
(812,991,o),
(818,991,qs),
(860,991,o),
(860,1030,qs),
(860,1070,o),
(696,1204,o),
(591,1204,qs),
(469,1204,o),
(297,1028,o),
(297,906,qs),
(297,830,o),
(354,653,q),
(206,653,ls),
(150,653,o),
(150,611,qs),
(150,569,o),
(206,569,qs),
(375,569,l),
(387,520,o),
(387,453,qs),
(387,368,o),
(359,279,qs),
(328,178,o),
(276,125,qs),
(254,103,o),
(195,85,qs),
(150,72,o),
(150,44,qs),
(150,2,o),
(206,2,qs),
(875,2,ls),
(951,2,o),
(1002,62,qs),
(1050,119,o),
(1050,196,qs),
(1050,241,o)
);
}
);
};
layerId = m01;
shapes = (
{
closed = 1;
nodes = (
(875,2,ls),
(926,2,o),
(968,22,o),
(1002,62,cs),
(1034,100,o),
(1050,145,o),
(1050,196,cs),
(1050,226,o),
(1036,241,o),
(1007,241,cs),
(988,241,o),
(974,228,o),
(967,201,cs),
(945,126,l),
(930,99,o),
(905,86,o),
(870,86,cs),
(351,86,l),
(430,186,o),
(469,307,o),
(469,448,cs),
(469,487,o),
(466,528,o),
(459,569,c),
(645,569,ls),
(682,569,o),
(701,583,o),
(701,611,cs),
(701,639,o),
(682,653,o),
(645,653,cs),
(440,653,l),
(401,791,o),
(382,875,o),
(382,906,cs),
(382,1023,o),
(477,1119,o),
(594,1119,cs),
(647,1119,o),
(697,1098,o),
(743,1055,cs),
(789,1012,o),
(814,991,o),
(818,991,cs),
(846,991,o),
(860,1004,o),
(860,1030,cs),
(860,1083,o),
(731,1204,o),
(591,1204,cs),
(428,1204,o),
(297,1069,o),
(297,906,cs),
(297,855,o),
(316,771,o),
(354,653,c),
(206,653,ls),
(169,653,o),
(150,639,o),
(150,611,cs),
(150,583,o),
(169,569,o),
(206,569,cs),
(375,569,l),
(383,536,o),
(387,498,o),
(387,453,cs),
(387,396,o),
(378,338,o),
(359,279,cs),
(338,212,o),
(311,160,o),
(276,125,cs),
(261,110,o),
(234,97,o),
(195,85,cs),
(165,76,o),
(150,63,o),
(150,44,cs),
(150,16,o),
(169,2,o),
(206,2,cs)
);
}
);
width = 1198;
}
);
note = sterling;
unicode = 163;
},
{
glyphname = currency;
lastChange = "2025-02-10 17:39:32 +0000";
layers = (
{
background = {
shapes = (
{
closed = 1;
nodes = (
(905,324,qs),
(867,360,o),
(829,396,q),
(902,490,o),
(902,609,qs),
(902,724,o),
(830,819,q),
(868,855,o),
(906,890,qs),
(966,950,o),
(966,972,qs),
(966,1015,o),
(924,1015,qs),
(902,1015,o),
(842,955,qs),
(806,917,o),
(770,879,q),
(679,952,o),
(559,952,qs),
(437,952,o),
(346,879,q),
(310,917,o),
(274,955,qs),
(214,1015,o),
(193,1015,qs),
(150,1015,o),
(150,973,qs),
(150,951,o),
(210,891,qs),
(248,855,o),
(286,819,q),
(214,723,o),
(214,608,qs),
(214,493,o),
(288,396,q),
(250,360,o),
(211,324,qs),
(150,264,o),
(150,242,qs),
(150,199,o),
(193,199,qs),
(215,199,o),
(275,259,qs),
(312,298,o),
(348,336,q),
(443,264,o),
(558,264,qs),
(673,264,o),
(769,336,q),
(805,298,o),
(841,260,qs),
(902,199,o),
(923,199,qs),
(966,199,o),
(966,241,qs),
(966,263,o)
);
},
{
closed = 1;
nodes = (
(666,349,o),
(558,349,qs),
(450,349,o),
(299,500,o),
(299,608,qs),
(299,716,o),
(450,868,o),
(558,868,qs),
(667,868,o),
(818,717,o),
(818,608,qs),
(818,500,o)
);
}
);
};
layerId = m01;
shapes = (
{
closed = 1;
nodes = (
(208,199,o),
(235,219,o),
(275,259,cs),
(348,336,l),
(411,288,o),
(481,264,o),
(558,264,cs),
(635,264,o),
(705,288,o),
(769,336,c),
(841,260,ls),
(882,219,o),
(909,199,o),
(923,199,cs),
(952,199,o),
(966,213,o),
(966,241,cs),
(966,256,o),
(946,283,o),
(905,324,cs),
(829,396,l),
(878,459,o),
(902,530,o),
(902,609,cs),
(902,686,o),
(878,756,o),
(830,819,c),
(906,890,ls),
(946,930,o),
(966,957,o),
(966,972,cs),
(966,1001,o),
(952,1015,o),
(924,1015,cs),
(909,1015,o),
(882,995,o),
(842,955,cs),
(770,879,l),
(709,928,o),
(639,952,o),
(559,952,cs),
(478,952,o),
(407,928,o),
(346,879,c),
(274,955,ls),
(234,995,o),
(207,1015,o),
(193,1015,cs),
(164,1015,o),
(150,1001,o),
(150,973,cs),
(150,958,o),
(170,931,o),
(210,891,cs),
(286,819,l),
(238,755,o),
(214,685,o),
(214,608,cs),
(214,531,o),
(239,461,o),
(288,396,c),
(211,324,ls),
(170,284,o),
(150,257,o),
(150,242,cs),
(150,213,o),
(164,199,o),
(193,199,cs)
);
},
{
closed = 1;
nodes = (
(414,349,o),
(299,464,o),
(299,608,cs),
(299,752,o),
(414,868,o),
(558,868,cs),
(703,868,o),
(818,753,o),
(818,608,cs),
(818,464,o),
(702,349,o),
(558,349,cs)
);
}
);
width = 1105;
}
);
note = currency;
unicode = 164;
},
{
glyphname = yen;
lastChange = "2025-02-10 17:39:32 +0000";
layers = (
{
background = {
shapes = (
{
closed = 1;
nodes = (
(1165,1170,qs),
(919,1170,ls),
(863,1170,o),
(863,1128,qs),
(863,1085,o),
(919,1085,qs),
(990,1085,l),
(689,612,l),
(381,1085,l),
(452,1085,ls),
(508,1085,o),
(508,1128,qs),
(508,1170,o),
(452,1170,qs),
(206,1170,ls),
(150,1170,o),
(150,1128,qs),
(150,1085,o),
(206,1085,qs),
(277,1085,l),
(644,531,l),
(573,531,ls),
(520,531,o),
(520,489,qs),
(520,446,o),
(573,446,qs),
(646,446,l),
(646,331,l),
(573,331,ls),
(520,331,o),
(520,289,qs),
(520,246,o),
(573,246,qs),
(646,246,l),
(646,83,l),
(575,83,ls),
(519,83,o),
(519,40,qs),
(519,-2,o),
(575,-2,qs),
(802,-2,ls),
(858,-2,o),
(858,40,qs),
(858,83,o),
(802,83,qs),
(731,83,l),
(731,245,l),
(786,245,ls),
(839,245,o),
(839,287,qs),
(839,330,o),
(786,330,qs),
(731,330,l),
(731,445,l),
(786,445,ls),
(839,445,o),
(839,487,qs),
(839,530,o),
(786,530,qs),
(733,530,l),
(1094,1085,l),
(1165,1085,ls),
(1221,1085,o),
(1221,1128,qs),
(1221,1170,o)
);
}
);
};
layerId = m01;
shapes = (
{
closed = 1;
nodes = (
(802,-2,ls),
(839,-2,o),
(858,12,o),
(858,40,cs),
(858,69,o),
(839,83,o),
(802,83,cs),
(731,83,l),
(731,245,l),
(786,245,ls),
(821,245,o),
(839,259,o),
(839,287,cs),
(839,316,o),
(821,330,o),
(786,330,cs),
(731,330,l),
(731,445,l),
(786,445,ls),
(821,445,o),
(839,459,o),
(839,487,cs),
(839,516,o),
(821,530,o),
(786,530,cs),
(733,530,l),
(1094,1085,l),
(1165,1085,ls),
(1202,1085,o),
(1221,1099,o),
(1221,1128,cs),
(1221,1156,o),
(1202,1170,o),
(1165,1170,cs),
(919,1170,ls),
(882,1170,o),
(863,1156,o),
(863,1128,cs),
(863,1099,o),
(882,1085,o),
(919,1085,cs),
(990,1085,l),
(689,612,l),
(381,1085,l),
(452,1085,ls),
(489,1085,o),
(508,1099,o),
(508,1128,cs),
(508,1156,o),
(489,1170,o),
(452,1170,cs),
(206,1170,ls),
(169,1170,o),
(150,1156,o),
(150,1128,cs),
(150,1099,o),
(169,1085,o),
(206,1085,cs),
(277,1085,l),
(644,531,l),
(573,531,ls),
(538,531,o),
(520,517,o),
(520,489,cs),
(520,460,o),
(538,446,o),
(573,446,cs),
(646,446,l),
(646,331,l),
(573,331,ls),
(538,331,o),
(520,317,o),
(520,289,cs),
(520,260,o),
(538,246,o),
(573,246,cs),
(646,246,l),
(646,83,l),
(575,83,ls),
(538,83,o),
(519,69,o),
(519,40,cs),
(519,12,o),
(538,-2,o),
(575,-2,cs)
);
}
);
width = 1371;
}
);
note = yen;
unicode = 165;
},
{
glyphname = brokenbar;
lastChange = "2025-02-10 17:39:32 +0000";
layers = (
{
background = {
shapes = (
{
closed = 1;
nodes = (
(234,1207,qs),
(227,1252,o),
(192,1252,qs),
(150,1252,o),
(150,1172,qs),
(150,722,ls),
(150,642,o),
(192,642,qs),
(227,642,o),
(234,687,q),
(234,759,l),
(235,1135,ls),
(235,1202,o)
);
},
{
closed = 1;
nodes = (
(234,306,qs),
(227,347,o),
(192,347,qs),
(150,347,o),
(150,267,qs),
(150,-183,ls),
(150,-262,o),
(192,-262,qs),
(227,-262,o),
(234,-217,q),
(234,-146,l),
(235,239,ls),
(235,299,o)
);
}
);
};
layerId = m01;
shapes = (
{
closed = 1;
nodes = (
(215,642,o),
(229,657,o),
(234,687,c),
(234,759,l),
(235,1135,l),
(234,1207,l),
(229,1237,o),
(215,1252,o),
(192,1252,cs),
(164,1252,o),
(150,1225,o),
(150,1172,cs),
(150,722,ls),
(150,669,o),
(164,642,o),
(192,642,cs)
);
},
{
closed = 1;
nodes = (
(215,-262,o),
(229,-247,o),
(234,-217,c),
(234,-146,l),
(235,239,l),
(234,306,l),
(229,333,o),
(215,347,o),
(192,347,cs),
(164,347,o),
(150,320,o),
(150,267,cs),
(150,-183,ls),
(150,-236,o),
(164,-262,o),
(192,-262,cs)
);
}
);
width = 384;
}
);
note = brokenbar;
unicode = 166;
},
{
glyphname = section;
lastChange = "2025-02-10 17:39:32 +0000";
layers = (
{
background = {
shapes = (
{
closed = 1;
nodes = (
(906,615,q),
(740,712,o),
(574,808,qs),
(395,919,o),
(395,1014,qs),
(395,1087,o),
(513,1194,o),
(587,1194,qs),
(937,1194,l),
(937,1038,ls),
(937,998,o),
(968,998,qs),
(997,998,o),
(997,1038,qs),
(997,1255,l),
(582,1255,ls),
(481,1255,o),
(335,1107,o),
(335,1006,qs),
(335,958,o),
(369,907,q),
(281,902,o),
(220,867,qs),
(143,823,o),
(143,743,qs),
(143,636,o),
(322,516,q),
(489,417,o),
(656,317,qs),
(835,202,o),
(835,107,qs),
(835,29,o),
(774,-22,qs),
(716,-69,o),
(637,-69,qs),
(293,-69,l),
(293,89,ls),
(293,129,o),
(262,129,qs),
(232,129,o),
(232,89,qs),
(232,-130,l),
(638,-130,ls),
(745,-130,o),
(895,6,o),
(895,113,qs),
(895,167,o),
(861,220,q),
(948,221,o),
(1010,258,qs),
(1085,302,o),
(1085,384,qs),
(1085,497,o)
);
},
{
closed = 1;
nodes = (
(935,295,qs),
(875,285,o),
(814,275,q),
(773,315,o),
(604,415,qs),
(406,532,o),
(336,583,qs),
(203,679,o),
(203,739,qs),
(203,810,o),
(286,831,q),
(351,840,o),
(417,849,q),
(499,776,o),
(659,686,qs),
(847,580,o),
(872,564,qs),
(1025,461,o),
(1025,382,qs),
(1025,312,o)
);
}
);
};
layerId = m01;
shapes = (
{
closed = 1;
nodes = (
(638,-130,ls),
(781,-130,o),
(895,-30,o),
(895,113,cs),
(895,149,o),
(884,185,o),
(861,220,c),
(919,221,o),
(969,233,o),
(1010,258,cs),
(1060,287,o),
(1085,329,o),
(1085,384,cs),
(1085,459,o),
(1025,536,o),
(906,615,c),
(574,808,l),
(455,882,o),
(395,951,o),
(395,1014,cs),
(395,1111,o),
(488,1194,o),
(587,1194,cs),
(937,1194,l),
(937,1038,ls),
(937,1011,o),
(947,998,o),
(968,998,cs),
(987,998,o),
(997,1011,o),
(997,1038,cs),
(997,1255,l),
(582,1255,ls),
(447,1255,o),
(335,1141,o),
(335,1006,cs),
(335,974,o),
(346,941,o),
(369,907,c),
(310,904,o),
(261,890,o),
(220,867,cs),
(169,838,o),
(143,796,o),
(143,743,cs),
(143,672,o),
(203,596,o),
(322,516,c),
(656,317,l),
(775,240,o),
(835,170,o),
(835,107,cs),
(835,55,o),
(815,12,o),
(774,-22,cs),
(735,-53,o),
(690,-69,o),
(637,-69,cs),
(293,-69,l),
(293,89,ls),
(293,116,o),
(283,129,o),
(262,129,cs),
(242,129,o),
(232,116,o),
(232,89,cs),
(232,-130,l)
);
},
{
closed = 1;
nodes = (
(787,302,o),
(717,348,o),
(604,415,cs),
(472,493,o),
(383,549,o),
(336,583,cs),
(247,647,o),
(203,699,o),
(203,739,cs),
(203,786,o),
(231,817,o),
(286,831,c),
(417,849,l),
(472,800,o),
(552,746,o),
(659,686,cs),
(784,615,o),
(855,575,o),
(872,564,cs),
(974,495,o),
(1025,435,o),
(1025,382,cs),
(1025,335,o),
(995,306,o),
(935,295,cs),
(814,275,l)
);
}
);
width = 1229;
}
);
note = section;
unicode = 167;
},
{
glyphname = dieresis;
lastChange = "2025-02-10 17:39:32 +0000";
layers = (
{
background = {
shapes = (
{
closed = 1;
nodes = (
(694,1225,o),
(660,1225,qs),
(626,1225,o),
(579,1177,o),
(579,1143,qs),
(579,1109,o),
(626,1062,o),
(660,1062,qs),
(694,1062,o),
(742,1109,o),
(742,1143,qs),
(742,1177,o)
);
},
{
closed = 1;
nodes = (
(265,1225,o),
(231,1225,qs),
(197,1225,o),
(150,1177,o),
(150,1143,qs),
(150,1110,o),
(198,1062,o),
(231,1062,qs),
(265,1062,o),
(313,1109,o),
(313,1143,qs),
(313,1177,o)
);
}
);
};
layerId = m01;
shapes = (
{
closed = 1;
nodes = (
(705,1062,o),
(742,1098,o),
(742,1143,cs),
(742,1188,o),
(705,1225,o),
(660,1225,cs),
(615,1225,o),
(579,1188,o),
(579,1143,cs),
(579,1098,o),
(615,1062,o),
(660,1062,cs)
);
},
{
closed = 1;
nodes = (
(276,1062,o),
(313,1098,o),
(313,1143,cs),
(313,1188,o),
(276,1225,o),
(231,1225,cs),
(186,1225,o),
(150,1188,o),
(150,1143,cs),
(150,1099,o),
(187,1062,o),
(231,1062,cs)
);
}
);
width = 892;
}
);
note = dieresis;
unicode = 168;
},
{
glyphname = copyright;
lastChange = "2025-02-10 17:39:32 +0000";
layers = (
{
background = {
shapes = (
{
closed = 1;
nodes = (
(1017,1201,o),
(761,1201,qs),
(506,1201,o),
(150,844,o),
(150,589,qs),
(150,334,o),
(506,-22,o),
(761,-22,qs),
(1016,-22,o),
(1373,334,o),
(1373,589,qs),
(1373,845,o)
);
},
{
closed = 1;
nodes = (
(988,46,o),
(761,46,qs),
(534,46,o),
(217,362,o),
(217,589,qs),
(217,816,o),
(534,1133,o),
(761,1133,qs),
(989,1133,o),
(1305,817,o),
(1305,589,qs),
(1305,362,o)
);
},
{
closed = 1;
nodes = (
(969,434,qs),
(971,434,o),
(844,329,o),
(771,329,qs),
(678,329,o),
(545,469,o),
(545,562,qs),
(545,635,ls),
(545,725,o),
(664,860,o),
(754,860,qs),
(828,860,o),
(886,816,qs),
(919,789,o),
(928,757,qs),
(937,722,o),
(938,722,q),
(944,716,o),
(952,716,qs),
(973,716,o),
(973,744,qs),
(973,861,ls),
(973,889,o),
(952,889,qs),
(931,889,o),
(931,831,q),
(856,902,o),
(752,902,qs),
(648,902,o),
(503,746,o),
(503,641,qs),
(503,556,ls),
(503,471,o),
(562,397,qs),
(650,287,o),
(772,287,qs),
(885,287,o),
(968,380,qs),
(989,404,o),
(989,415,qs),
(989,434,o)
);
}
);
};
layerId = m01;
shapes = (
{
closed = 1;
nodes = (
(1101,-22,o),
(1373,249,o),
(1373,589,cs),
(1373,930,o),
(1102,1201,o),
(761,1201,cs),
(421,1201,o),
(150,929,o),
(150,589,cs),
(150,249,o),
(421,-22,o),
(761,-22,cs)
);
},
{
closed = 1;
nodes = (
(458,46,o),
(217,286,o),
(217,589,cs),
(217,892,o),
(458,1133,o),
(761,1133,cs),
(1065,1133,o),
(1305,893,o),
(1305,589,cs),
(1305,286,o),
(1064,46,o),
(761,46,cs)
);
},
{
closed = 1;
nodes = (
(847,287,o),
(913,318,o),
(968,380,cs),
(982,396,o),
(989,408,o),
(989,415,cs),
(989,428,o),
(982,434,o),
(969,434,cs),
(970,434,o),
(950,417,o),
(908,382,cs),
(865,347,o),
(820,329,o),
(771,329,cs),
(647,329,o),
(545,438,o),
(545,562,cs),
(545,635,ls),
(545,755,o),
(634,860,o),
(754,860,cs),
(803,860,o),
(847,845,o),
(886,816,cs),
(908,798,o),
(922,778,o),
(928,757,cs),
(934,734,o),
(937,722,o),
(938,722,c),
(942,718,o),
(947,716,o),
(952,716,cs),
(966,716,o),
(973,725,o),
(973,744,cs),
(973,861,ls),
(973,880,o),
(966,889,o),
(952,889,cs),
(938,889,o),
(931,870,o),
(931,831,c),
(881,878,o),
(821,902,o),
(752,902,cs),
(613,902,o),
(503,781,o),
(503,641,cs),
(503,556,ls),
(503,499,o),
(523,446,o),
(562,397,cs),
(621,324,o),
(691,287,o),
(772,287,cs)
);
}
);
width = 1523;
}
);
note = copyright;
unicode = 169;
},
{
glyphname = ordfeminine;
lastChange = "2025-02-10 17:39:32 +0000";
layers = (
{
background = {
shapes = (
{
closed = 1;
nodes = (
(760,821,q),
(694,821,l),
(694,1142,ls),
(694,1223,o),
(615,1270,qs),
(549,1308,o),
(462,1308,qs),
(405,1308,o),
(321,1289,qs),
(215,1264,o),
(215,1230,qs),
(215,1191,o),
(254,1191,qs),
(276,1191,o),
(421,1231,o),
(459,1231,qs),
(613,1231,o),
(613,1142,qs),
(613,1076,l),
(517,1092,o),
(447,1092,qs),
(336,1092,o),
(254,1051,qs),
(150,998,o),
(150,897,qs),
(150,812,o),
(222,764,qs),
(283,724,o),
(373,724,qs),
(498,724,o),
(613,804,q),
(613,744,l),
(754,744,ls),
(804,744,o),
(804,783,qs),
(804,815,o)
);
},
{
closed = 1;
nodes = (
(370,801,qs),
(231,801,o),
(231,897,qs),
(231,960,o),
(317,992,qs),
(380,1015,o),
(455,1015,qs),
(548,1015,o),
(612,998,q),
(613,903,l),
(497,801,o)
);
}
);
};
layerId = m01;
shapes = (
{
closed = 1;
nodes = (
(456,724,o),
(536,751,o),
(613,804,c),
(613,744,l),
(754,744,ls),
(787,744,o),
(804,757,o),
(804,783,cs),
(804,804,o),
(789,817,o),
(760,821,c),
(694,821,l),
(694,1142,ls),
(694,1196,o),
(668,1239,o),
(615,1270,cs),
(571,1295,o),
(520,1308,o),
(462,1308,cs),
(424,1308,o),
(377,1302,o),
(321,1289,cs),
(250,1272,o),
(215,1253,o),
(215,1230,cs),
(215,1204,o),
(228,1191,o),
(254,1191,cs),
(269,1191,o),
(300,1198,o),
(349,1211,cs),
(397,1224,o),
(434,1231,o),
(459,1231,cs),
(562,1231,o),
(613,1201,o),
(613,1142,cs),
(613,1076,l),
(549,1087,o),
(494,1092,o),
(447,1092,cs),
(373,1092,o),
(309,1078,o),
(254,1051,cs),
(185,1016,o),
(150,964,o),
(150,897,cs),
(150,840,o),
(174,796,o),
(222,764,cs),
(263,737,o),
(313,724,o),
(373,724,cs)
);
},
{
closed = 1;
nodes = (
(277,801,o),
(231,833,o),
(231,897,cs),
(231,939,o),
(260,971,o),
(317,992,cs),
(359,1007,o),
(405,1015,o),
(455,1015,cs),
(517,1015,o),
(569,1009,o),
(612,998,c),
(613,903,l),
(536,835,o),
(455,801,o),
(370,801,cs)
);
}
);
width = 950;
}
);
note = ordfeminine;
unicode = 170;
},
{
glyphname = guillemotleft;
lastChange = "2025-02-10 17:39:32 +0000";
layers = (
{
background = {
shapes = (
{
closed = 1;
nodes = (
(1080,85,qs),
(767,434,l),
(1080,784,ls),
(1102,809,o),
(1102,825,qs),
(1102,868,o),
(1060,868,qs),
(1042,868,o),
(1016,844,qs),
(568,434,l),
(1016,24,ls),
(1041,1,o),
(1060,1,qs),
(1102,1,o),
(1102,43,qs),
(1102,60,o)
);
},
{
closed = 1;
nodes = (
(610,85,qs),
(297,434,l),
(610,784,ls),
(633,810,o),
(633,825,qs),
(633,868,o),
(591,868,qs),
(573,868,o),
(547,844,qs),
(99,434,l),
(547,24,ls),
(572,1,o),
(591,1,qs),
(633,1,o),
(633,43,qs),
(633,59,o)
);
}
);
};
layerId = m01;
shapes = (
{
closed = 1;
nodes = (
(1088,1,o),
(1102,15,o),
(1102,43,cs),
(1102,54,o),
(1095,68,o),
(1080,85,cs),
(767,434,l),
(1080,784,ls),
(1095,801,o),
(1102,814,o),
(1102,825,cs),
(1102,854,o),
(1088,868,o),
(1060,868,cs),
(1048,868,o),
(1033,860,o),
(1016,844,cs),
(568,434,l),
(1016,24,ls),
(1033,9,o),
(1047,1,o),
(1060,1,cs)
);
},
{
closed = 1;
nodes = (
(619,1,o),
(633,15,o),
(633,43,cs),
(633,54,o),
(625,68,o),
(610,85,cs),
(297,434,l),
(610,784,ls),
(625,801,o),
(633,815,o),
(633,825,cs),
(633,854,o),
(619,868,o),
(591,868,cs),
(579,868,o),
(564,860,o),
(547,844,cs),
(99,434,l),
(547,24,ls),
(564,9,o),
(578,1,o),
(591,1,cs)
);
}
);
width = 1229;
}
);
note = guillemotleft;
unicode = 171;
},
{
glyphname = logicalnot;
lastChange = "2025-02-10 17:39:32 +0000";
layers = (
{
background = {
shapes = (
{
closed = 1;
nodes = (
(150,763,o),
(150,721,qs),
(150,679,o),
(206,679,qs),
(1126,679,l),
(1126,259,ls),
(1126,203,o),
(1169,203,qs),
(1211,203,o),
(1211,256,qs),
(1211,763,l),
(203,763,ls)
);
}
);
};
layerId = m01;
shapes = (
{
closed = 1;
nodes = (
(1197,203,o),
(1211,221,o),
(1211,256,cs),
(1211,763,l),
(203,763,ls),
(168,763,o),
(150,749,o),
(150,721,cs),
(150,693,o),
(169,679,o),
(206,679,cs),
(1126,679,l),
(1126,259,ls),
(1126,222,o),
(1140,203,o),
(1169,203,cs)
);
}
);
width = 1359;
}
);
note = logicalnot;
unicode = 172;
},
{
glyphname = registered;
lastChange = "2025-02-10 17:39:32 +0000";
layers = (
{
background = {
shapes = (
{
closed = 1;
nodes = (
(1017,1194,o),
(761,1194,qs),
(506,1194,o),
(150,837,o),
(150,582,qs),
(150,327,o),
(506,-29,o),
(761,-29,qs),
(1016,-29,o),
(1373,327,o),
(1373,582,qs),
(1373,838,o)
);
},
{
closed = 1;
nodes = (
(988,39,o),
(761,39,qs),
(534,39,o),
(217,355,o),
(217,582,qs),
(217,809,o),
(534,1126,o),
(761,1126,qs),
(989,1126,o),
(1305,810,o),
(1305,582,qs),
(1305,355,o)
);
},
{
closed = 1;
nodes = (
(1027,342,qs),
(992,342,l),
(842,572,l),
(987,621,o),
(987,723,qs),
(987,793,o),
(927,840,qs),
(872,885,o),
(801,885,qs),
(568,886,ls),
(540,886,o),
(540,865,qs),
(540,843,o),
(568,843,qs),
(603,843,l),
(603,342,l),
(568,342,ls),
(540,342,o),
(540,321,qs),
(540,300,o),
(568,300,qs),
(681,300,ls),
(709,300,o),
(709,321,qs),
(709,342,o),
(681,342,qs),
(645,342,l),
(645,561,l),
(789,561,l),
(958,300,l),
(1029,300,ls),
(1055,300,o),
(1055,321,qs),
(1055,342,o)
);
},
{
closed = 1;
nodes = (
(878,632,qs),
(823,603,o),
(760,603,qs),
(645,603,l),
(645,843,l),
(800,843,ls),
(851,843,o),
(896,811,qs),
(945,775,o),
(945,725,qs),
(945,667,o)
);
}
);
};
layerId = m01;
shapes = (
{
closed = 1;
nodes = (
(1101,-29,o),
(1373,242,o),
(1373,582,cs),
(1373,923,o),
(1102,1194,o),
(761,1194,cs),
(421,1194,o),
(150,922,o),
(150,582,cs),
(150,242,o),
(421,-29,o),
(761,-29,cs)
);
},
{
closed = 1;
nodes = (
(458,39,o),
(217,279,o),
(217,582,cs),
(217,885,o),
(458,1126,o),
(761,1126,cs),
(1065,1126,o),
(1305,886,o),
(1305,582,cs),
(1305,279,o),
(1064,39,o),
(761,39,cs)
);
},
{
closed = 1;
nodes = (
(681,300,ls),
(700,300,o),
(709,307,o),
(709,321,cs),
(709,335,o),
(700,342,o),
(681,342,cs),
(645,342,l),
(645,561,l),
(789,561,l),
(958,300,l),
(1029,300,ls),
(1046,300,o),
(1055,307,o),
(1055,321,cs),
(1055,335,o),
(1046,342,o),
(1027,342,cs),
(992,342,l),
(842,572,l),
(939,605,o),
(987,655,o),
(987,723,cs),
(987,770,o),
(967,809,o),
(927,840,cs),
(890,870,o),
(848,885,o),
(801,885,cs),
(568,886,ls),
(549,886,o),
(540,879,o),
(540,865,cs),
(540,850,o),
(549,843,o),
(568,843,cs),
(603,843,l),
(603,342,l),
(568,342,ls),
(549,342,o),
(540,335,o),
(540,321,cs),
(540,307,o),
(549,300,o),
(568,300,cs)
);
},
{
closed = 1;
nodes = (
(645,843,l),
(800,843,ls),
(834,843,o),
(866,832,o),
(896,811,cs),
(929,787,o),
(945,758,o),
(945,725,cs),
(945,686,o),
(923,655,o),
(878,632,cs),
(841,613,o),
(802,603,o),
(760,603,cs),
(645,603,l)
);
}
);
width = 1523;
}
);
note = registered;
unicode = 174;
},
{
glyphname = overscore;
lastChange = "2025-02-10 17:39:32 +0000";
layers = (
{
background = {
shapes = (
{
closed = 1;
nodes = (
(1203,1425,qs),
(26,1425,ls),
(-27,1425,o),
(-27,1383,qs),
(-27,1340,o),
(26,1340,qs),
(1203,1340,ls),
(1256,1340,o),
(1256,1382,qs),
(1256,1425,o)
);
}
);
};
layerId = m01;
shapes = (
{
closed = 1;
nodes = (
(1203,1340,ls),
(1238,1340,o),
(1256,1354,o),
(1256,1382,cs),
(1256,1411,o),
(1238,1425,o),
(1203,1425,cs),
(26,1425,ls),
(-9,1425,o),
(-27,1411,o),
(-27,1383,cs),
(-27,1354,o),
(-9,1340,o),
(26,1340,cs)
);
}
);
width = 1229;
}
);
note = overscore;
unicode = 713;
},
{
glyphname = degree;
lastChange = "2025-02-10 17:39:32 +0000";
layers = (
{
background = {
shapes = (
{
closed = 1;
nodes = (
(342,1389,o),
(286,1389,qs),
(230,1389,o),
(150,1311,o),
(150,1255,qs),
(150,1199,o),
(230,1122,o),
(286,1122,qs),
(342,1122,o),
(422,1199,o),
(422,1255,qs),
(422,1311,o)
);
},
{
closed = 1;
nodes = (
(323,1167,o),
(286,1167,qs),
(249,1167,o),
(195,1218,o),
(195,1255,qs),
(195,1292,o),
(249,1344,o),
(286,1344,qs),
(323,1344,o),
(377,1292,o),
(377,1255,qs),
(377,1218,o)
);
}
);
};
layerId = m01;
shapes = (
{
closed = 1;
nodes = (
(361,1122,o),
(422,1180,o),
(422,1255,cs),
(422,1330,o),
(361,1389,o),
(286,1389,cs),
(211,1389,o),
(150,1330,o),
(150,1255,cs),
(150,1180,o),
(211,1122,o),
(286,1122,cs)
);
},
{
closed = 1;
nodes = (
(237,1167,o),
(195,1206,o),
(195,1255,cs),
(195,1304,o),
(237,1344,o),
(286,1344,cs),
(335,1344,o),
(377,1304,o),
(377,1255,cs),
(377,1206,o),
(335,1167,o),
(286,1167,cs)
);
}
);
width = 570;
}
);
note = degree;
unicode = 176;
},
{
glyphname = plusminus;
lastChange = "2025-02-10 17:39:32 +0000";
layers = (
{
background = {
shapes = (
{
closed = 1;
nodes = (
(1029,760,qs),
(657,760,l),
(657,1178,ls),
(657,1234,o),
(615,1234,qs),
(572,1234,o),
(572,1178,qs),
(572,760,l),
(200,760,ls),
(144,760,o),
(144,718,qs),
(144,676,o),
(200,676,qs),
(572,676,l),
(572,256,ls),
(572,200,o),
(614,200,qs),
(657,200,o),
(657,256,qs),
(657,676,l),
(1029,676,ls),
(1085,676,o),
(1085,718,qs),
(1085,760,o)
);
},
{
closed = 1;
nodes = (
(1040,84,q),
(968,84,l),
(261,85,ls),
(193,85,o),
(189,84,qs),
(144,78,o),
(144,42,qs),
(144,0,o),
(222,0,qs),
(1007,0,ls),
(1085,0,o),
(1085,42,qs),
(1085,78,o)
);
}
);
};
layerId = m01;
shapes = (
{
closed = 1;
nodes = (
(643,200,o),
(657,219,o),
(657,256,cs),
(657,676,l),
(1029,676,ls),
(1066,676,o),
(1085,690,o),
(1085,718,cs),
(1085,746,o),
(1066,760,o),
(1029,760,cs),
(657,760,l),
(657,1178,ls),
(657,1215,o),
(643,1234,o),
(615,1234,cs),
(586,1234,o),
(572,1215,o),
(572,1178,cs),
(572,760,l),
(200,760,ls),
(163,760,o),
(144,746,o),
(144,718,cs),
(144,690,o),
(163,676,o),
(200,676,cs),
(572,676,l),
(572,256,ls),
(572,219,o),
(586,200,o),
(614,200,cs)
);
},
{
closed = 1;
nodes = (
(1007,0,ls),
(1059,0,o),
(1085,14,o),
(1085,42,cs),
(1085,66,o),
(1070,80,o),
(1040,84,c),
(261,85,l),
(189,84,l),
(159,80,o),
(144,66,o),
(144,42,cs),
(144,14,o),
(170,0,o),
(222,0,cs)
);
}
);
width = 1229;
}
);
note = plusminus;
unicode = 177;
},
{
glyphname = twosuperior;
lastChange = "2025-02-10 17:39:32 +0000";
layers = (
{
background = {
shapes = (
{
closed = 1;
nodes = (
(593,585,q),
(594,578,ls),
(591,615,o),
(571,615,qs),
(550,615,o),
(550,571,q),
(247,571,l),
(247,574,l),
(324,640,o),
(429,750,qs),
(562,888,o),
(582,940,qs),
(592,964,o),
(592,993,qs),
(592,1067,o),
(475,1171,o),
(400,1171,qs),
(289,1171,o),
(233,1083,qs),
(207,1042,o),
(207,1018,qs),
(207,999,o),
(227,999,qs),
(235,999,o),
(241,1004,q),
(246,1013,o),
(248,1019,qs),
(281,1129,o),
(401,1129,qs),
(459,1129,o),
(549,1049,o),
(549,992,qs),
(549,972,o),
(541,952,qs),
(524,907,o),
(387,766,qs),
(285,662,o),
(206,591,q),
(206,529,l),
(592,529,l),
(592,585,o)
);
}
);
};
layerId = m01;
shapes = (
{
closed = 1;
nodes = (
(592,529,l),
(593,585,l),
(594,578,ls),
(592,603,o),
(584,615,o),
(571,615,cs),
(557,615,o),
(550,600,o),
(550,571,c),
(247,571,l),
(247,574,l),
(298,618,o),
(359,677,o),
(429,750,cs),
(518,842,o),
(569,905,o),
(582,940,cs),
(589,956,o),
(592,974,o),
(592,993,cs),
(592,1092,o),
(500,1171,o),
(400,1171,cs),
(326,1171,o),
(270,1142,o),
(233,1083,cs),
(216,1056,o),
(207,1034,o),
(207,1018,cs),
(207,1005,o),
(214,999,o),
(227,999,cs),
(232,999,o),
(237,1001,o),
(241,1004,c),
(244,1010,o),
(247,1015,o),
(248,1019,cs),
(270,1092,o),
(321,1129,o),
(401,1129,cs),
(478,1129,o),
(549,1068,o),
(549,992,cs),
(549,979,o),
(546,965,o),
(541,952,cs),
(530,922,o),
(478,860,o),
(387,766,cs),
(319,697,o),
(259,638,o),
(206,591,c),
(206,529,l)
);
}
);
width = 800;
}
);
note = twosuperior;
unicode = 178;
},
{
glyphname = threesuperior;
lastChange = "2025-02-10 17:39:32 +0000";
layers = (
{
background = {
shapes = (
{
closed = 1;
nodes = (
(482,870,q),
(579,916,o),
(579,1010,qs),
(579,1082,o),
(523,1128,qs),
(471,1171,o),
(397,1171,qs),
(320,1171,o),
(260,1129,qs),
(216,1098,o),
(216,1078,qs),
(216,1059,o),
(237,1059,qs),
(246,1059,o),
(259,1073,qs),
(307,1129,o),
(397,1129,qs),
(452,1129,o),
(492,1098,qs),
(536,1064,o),
(536,1010,qs),
(536,959,o),
(495,926,qs),
(458,896,o),
(406,896,qs),
(345,896,o),
(345,875,qs),
(345,854,o),
(373,854,qs),
(442,854,o),
(498,814,qs),
(559,770,o),
(559,703,qs),
(559,639,o),
(504,596,qs),
(453,556,o),
(388,556,qs),
(330,556,o),
(273,586,qs),
(221,614,o),
(221,616,q),
(201,616,o),
(201,596,qs),
(201,566,o),
(275,537,qs),
(333,514,o),
(387,514,qs),
(471,514,o),
(534,566,qs),
(601,621,o),
(601,705,qs),
(601,817,o)
);
}
);
};
layerId = m01;
shapes = (
{
closed = 1;
nodes = (
(443,514,o),
(492,531,o),
(534,566,cs),
(579,603,o),
(601,649,o),
(601,705,cs),
(601,780,o),
(561,835,o),
(482,870,c),
(547,901,o),
(579,947,o),
(579,1010,cs),
(579,1058,o),
(560,1097,o),
(523,1128,cs),
(488,1157,o),
(446,1171,o),
(397,1171,cs),
(346,1171,o),
(300,1157,o),
(260,1129,cs),
(231,1108,o),
(216,1091,o),
(216,1078,cs),
(216,1065,o),
(223,1059,o),
(237,1059,cs),
(243,1059,o),
(250,1064,o),
(259,1073,cs),
(291,1110,o),
(337,1129,o),
(397,1129,cs),
(434,1129,o),
(465,1119,o),
(492,1098,cs),
(521,1075,o),
(536,1046,o),
(536,1010,cs),
(536,976,o),
(522,948,o),
(495,926,cs),
(470,906,o),
(441,896,o),
(406,896,cs),
(365,896,o),
(345,889,o),
(345,875,cs),
(345,861,o),
(354,854,o),
(373,854,cs),
(419,854,o),
(461,841,o),
(498,814,cs),
(539,785,o),
(559,748,o),
(559,703,cs),
(559,660,o),
(541,625,o),
(504,596,cs),
(470,569,o),
(431,556,o),
(388,556,cs),
(349,556,o),
(311,566,o),
(273,586,cs),
(238,605,o),
(221,615,o),
(221,616,c),
(208,616,o),
(201,609,o),
(201,596,cs),
(201,576,o),
(226,556,o),
(275,537,cs),
(314,522,o),
(351,514,o),
(387,514,cs)
);
}
);
width = 800;
}
);
note = threesuperior;
unicode = 179;
},
{
glyphname = acute;
lastChange = "2025-02-10 17:39:32 +0000";
layers = (
{
background = {
shapes = (
{
closed = 1;
nodes = (
(450,1321,qs),
(434,1321,o),
(411,1301,qs),
(175,1097,ls),
(150,1075,o),
(150,1056,qs),
(150,1013,o),
(192,1013,qs),
(207,1013,o),
(230,1033,qs),
(467,1237,ls),
(492,1259,o),
(492,1278,qs),
(492,1321,o)
);
}
);
};
layerId = m01;
shapes = (
{
closed = 1;
nodes = (
(202,1013,o),
(215,1020,o),
(230,1033,cs),
(467,1237,ls),
(484,1252,o),
(492,1265,o),
(492,1278,cs),
(492,1307,o),
(478,1321,o),
(450,1321,cs),
(439,1321,o),
(426,1314,o),
(411,1301,cs),
(175,1097,ls),
(158,1082,o),
(150,1069,o),
(150,1056,cs),
(150,1027,o),
(164,1013,o),
(192,1013,cs)
);
}
);
width = 705;
}
);
note = acute;
unicode = 180;
},
{
glyphname = mu1;
lastChange = "2025-02-10 17:39:32 +0000";
layers = (
{
background = {
shapes = (
{
closed = 1;
nodes = (
(1074,84,qs),
(1003,84,l),
(1003,866,l),
(848,866,ls),
(792,866,o),
(792,824,qs),
(792,781,o),
(848,781,qs),
(919,781,l),
(919,239,l),
(748,51,o),
(543,51,qs),
(463,51,o),
(361,158,o),
(361,239,qs),
(361,866,l),
(206,866,ls),
(150,866,o),
(150,824,qs),
(150,781,o),
(206,781,qs),
(277,781,l),
(277,-330,ls),
(277,-386,o),
(319,-386,qs),
(361,-386,o),
(361,-330,qs),
(361,34,l),
(436,-33,o),
(545,-33,qs),
(747,-33,o),
(919,123,q),
(919,0,l),
(1074,-1,l),
(1117,11,l),
(1130,23,o),
(1130,41,qs),
(1130,84,o)
);
}
);
};
layerId = m01;
shapes = (
{
closed = 1;
nodes = (
(347,-386,o),
(361,-367,o),
(361,-330,cs),
(361,34,l),
(411,-11,o),
(472,-33,o),
(545,-33,cs),
(680,-33,o),
(804,19,o),
(919,123,c),
(919,0,l),
(1074,-1,l),
(1117,11,l),
(1126,19,o),
(1130,29,o),
(1130,41,cs),
(1130,70,o),
(1111,84,o),
(1074,84,cs),
(1003,84,l),
(1003,866,l),
(848,866,ls),
(811,866,o),
(792,852,o),
(792,824,cs),
(792,795,o),
(811,781,o),
(848,781,cs),
(919,781,l),
(919,239,l),
(805,114,o),
(680,51,o),
(543,51,cs),
(436,51,o),
(361,131,o),
(361,239,cs),
(361,866,l),
(206,866,ls),
(169,866,o),
(150,852,o),
(150,824,cs),
(150,795,o),
(169,781,o),
(206,781,cs),
(277,781,l),
(277,-330,ls),
(277,-367,o),
(291,-386,o),
(319,-386,cs)
);
}
);
width = 1280;
}
);
note = mu1;
unicode = 956;
},
{
glyphname = paragraph;
lastChange = "2025-02-10 17:39:32 +0000";
layers = (
{
background = {
shapes = (
{
closed = 1;
nodes = (
(1006,-69,qs),
(935,-69,l),
(933,1169,l),
(1004,1169,ls),
(1060,1169,o),
(1060,1212,qs),
(1060,1230,o),
(1047,1242,q),
(1021,1252,o),
(1004,1254,q),
(606,1255,ls),
(450,1255,o),
(324,1184,qs),
(171,1098,o),
(171,954,qs),
(171,853,o),
(170,853,q),
(170,855,ls),
(173,796,o),
(195,760,qs),
(303,584,o),
(597,564,q),
(594,-69,l),
(523,-69,ls),
(467,-69,o),
(467,-112,qs),
(467,-154,o),
(523,-154,qs),
(1006,-154,ls),
(1062,-154,o),
(1062,-112,qs),
(1062,-69,o)
);
},
{
closed = 1;
nodes = (
(395,696,qs),
(292,765,o),
(292,872,qs),
(292,949,ls),
(292,1054,o),
(395,1113,qs),
(474,1158,o),
(596,1169,q),
(597,627,l),
(481,637,o)
);
},
{
closed = 1;
nodes = (
(678,-69,l),
(676,1169,l),
(852,1169,l),
(851,-69,l)
);
}
);
};
layerId = m01;
shapes = (
{
closed = 1;
nodes = (
(1006,-154,ls),
(1043,-154,o),
(1062,-140,o),
(1062,-112,cs),
(1062,-83,o),
(1043,-69,o),
(1006,-69,cs),
(935,-69,l),
(933,1169,l),
(1004,1169,ls),
(1041,1169,o),
(1060,1183,o),
(1060,1212,cs),
(1060,1224,o),
(1056,1234,o),
(1047,1242,c),
(1030,1249,o),
(1015,1253,o),
(1004,1254,c),
(606,1255,ls),
(502,1255,o),
(408,1231,o),
(324,1184,cs),
(222,1127,o),
(171,1050,o),
(171,954,cs),
(170,853,l),
(170,855,ls),
(172,816,o),
(180,784,o),
(195,760,cs),
(267,643,o),
(401,577,o),
(597,564,c),
(594,-69,l),
(523,-69,ls),
(486,-69,o),
(467,-83,o),
(467,-112,cs),
(467,-140,o),
(486,-154,o),
(523,-154,cs)
);
},
{
closed = 1;
nodes = (
(676,1169,l),
(852,1169,l),
(851,-69,l),
(678,-69,l)
);
},
{
closed = 1;
nodes = (
(520,634,o),
(452,657,o),
(395,696,cs),
(326,742,o),
(292,801,o),
(292,872,cs),
(292,949,ls),
(292,1019,o),
(326,1074,o),
(395,1113,cs),
(448,1143,o),
(515,1162,o),
(596,1169,c),
(597,627,l)
);
}
);
width = 1229;
}
);
note = paragraph;
unicode = 182;
},
{
glyphname = middot;
lastChange = "2025-02-10 17:39:32 +0000";
layers = (
{
background = {
shapes = (
{
closed = 1;
nodes = (
(496,781,o),
(453,781,qs),
(410,781,o),
(350,721,o),
(350,678,qs),
(350,635,o),
(410,576,o),
(453,576,qs),
(495,576,o),
(555,636,o),
(555,678,qs),
(555,721,o)
);
}
);
};
layerId = m01;
shapes = (
{
closed = 1;
nodes = (
(509,576,o),
(555,622,o),
(555,678,cs),
(555,735,o),
(510,781,o),
(453,781,cs),
(396,781,o),
(350,735,o),
(350,678,cs),
(350,621,o),
(396,576,o),
(453,576,cs)
);
}
);
width = 903;
}
);
note = middot;
unicode = 264;
},
{
glyphname = cedilla;
lastChange = "2025-02-10 17:39:32 +0000";
layers = (
{
background = {
shapes = (
{
closed = 1;
nodes = (
(354,-110,q),
(354,-7,o),
(355,-7,qs),
(356,-7,o),
(357,-32,qs),
(355,26,o),
(324,26,qs),
(294,26,o),
(294,-14,qs),
(294,-167,l),
(411,-167,o),
(411,-218,qs),
(411,-277,o),
(328,-277,qs),
(289,-277,o),
(185,-232,o),
(180,-232,qs),
(150,-232,o),
(150,-262,qs),
(150,-295,o),
(224,-318,qs),
(284,-337,o),
(328,-337,qs),
(387,-337,o),
(427,-309,qs),
(472,-277,o),
(472,-220,qs),
(472,-127,o)
);
}
);
};
layerId = m01;
shapes = (
{
closed = 1;
nodes = (
(367,-337,o),
(400,-328,o),
(427,-309,cs),
(457,-288,o),
(472,-258,o),
(472,-220,cs),
(472,-158,o),
(433,-121,o),
(354,-110,c),
(355,-7,l),
(356,-7,o),
(356,-15,o),
(357,-32,cs),
(356,7,o),
(345,26,o),
(324,26,cs),
(304,26,o),
(294,13,o),
(294,-14,cs),
(294,-167,l),
(372,-167,o),
(411,-184,o),
(411,-218,cs),
(411,-257,o),
(383,-277,o),
(328,-277,cs),
(302,-277,o),
(272,-269,o),
(237,-254,cs),
(202,-239,o),
(183,-232,o),
(180,-232,cs),
(160,-232,o),
(150,-242,o),
(150,-262,cs),
(150,-284,o),
(175,-303,o),
(224,-318,cs),
(264,-331,o),
(299,-337,o),
(328,-337,cs)
);
}
);
width = 605;
}
);
note = cedilla;
unicode = 184;
},
{
glyphname = onesuperior;
lastChange = "2025-02-10 17:39:32 +0000";
layers = (
{
background = {
shapes = (
{
closed = 1;
nodes = (
(462,577,qs),
(426,577,l),
(426,1171,l),
(341,1140,ls),
(320,1132,o),
(320,1117,qs),
(320,1096,o),
(340,1096,qs),
(352,1096,o),
(360,1101,qs),
(373,1110,o),
(384,1113,q),
(384,577,l),
(349,577,ls),
(321,577,o),
(321,556,qs),
(321,535,o),
(349,535,qs),
(462,535,ls),
(490,535,o),
(490,556,qs),
(490,577,o)
);
}
);
};
layerId = m01;
shapes = (
{
closed = 1;
nodes = (
(462,535,ls),
(481,535,o),
(490,542,o),
(490,556,cs),
(490,570,o),
(481,577,o),
(462,577,cs),
(426,577,l),
(426,1171,l),
(341,1140,ls),
(327,1135,o),
(320,1127,o),
(320,1117,cs),
(320,1103,o),
(327,1096,o),
(340,1096,cs),
(348,1096,o),
(355,1098,o),
(360,1101,cs),
(369,1107,o),
(377,1111,o),
(384,1113,c),
(384,577,l),
(349,577,ls),
(330,577,o),
(321,570,o),
(321,556,cs),
(321,542,o),
(330,535,o),
(349,535,cs)
);
}
);
width = 800;
}
);
note = onesuperior;
unicode = 185;
},
{
glyphname = ordmasculine;
lastChange = "2025-02-10 17:39:32 +0000";
layers = (
{
background = {
shapes = (
{
closed = 1;
nodes = (
(689,1228,qs),
(596,1309,o),
(468,1309,qs),
(340,1309,o),
(247,1228,qs),
(150,1143,o),
(150,1017,qs),
(150,891,o),
(247,806,qs),
(341,725,o),
(468,725,qs),
(596,725,o),
(689,806,qs),
(786,891,o),
(786,1017,qs),
(786,1143,o)
);
},
{
closed = 1;
nodes = (
(632,861,qs),
(563,802,o),
(468,802,qs),
(373,802,o),
(304,861,qs),
(231,924,o),
(231,1017,qs),
(231,1110,o),
(304,1173,qs),
(373,1232,o),
(468,1232,qs),
(563,1232,o),
(632,1173,qs),
(705,1111,o),
(705,1017,qs),
(705,924,o)
);
}
);
};
layerId = m01;
shapes = (
{
closed = 1;
nodes = (
(553,725,o),
(627,752,o),
(689,806,cs),
(754,863,o),
(786,933,o),
(786,1017,cs),
(786,1101,o),
(754,1171,o),
(689,1228,cs),
(627,1282,o),
(553,1309,o),
(468,1309,cs),
(383,1309,o),
(309,1282,o),
(247,1228,cs),
(182,1171,o),
(150,1101,o),
(150,1017,cs),
(150,933,o),
(182,863,o),
(247,806,cs),
(310,752,o),
(383,725,o),
(468,725,cs)
);
},
{
closed = 1;
nodes = (
(405,802,o),
(350,822,o),
(304,861,cs),
(255,903,o),
(231,955,o),
(231,1017,cs),
(231,1079,o),
(255,1131,o),
(304,1173,cs),
(350,1212,o),
(405,1232,o),
(468,1232,cs),
(531,1232,o),
(586,1212,o),
(632,1173,cs),
(681,1132,o),
(705,1080,o),
(705,1017,cs),
(705,955,o),
(681,903,o),
(632,861,cs),
(586,822,o),
(531,802,o),
(468,802,cs)
);
}
);
width = 912;
}
);
note = ordmasculine;
unicode = 186;
},
{
glyphname = guillemotright;
lastChange = "2025-02-10 17:39:32 +0000";
layers = (
{
background = {
shapes = (
{
closed = 1;
nodes = (
(656,868,o),
(638,868,qs),
(596,868,o),
(596,826,qs),
(596,809,o),
(618,784,qs),
(931,434,l),
(618,85,ls),
(596,60,o),
(596,43,qs),
(596,1,o),
(638,1,qs),
(657,1,o),
(682,24,qs),
(1130,434,l),
(682,844,ls)
);
},
{
closed = 1;
nodes = (
(186,868,o),
(169,868,qs),
(127,868,o),
(127,826,qs),
(127,809,o),
(149,784,qs),
(462,434,l),
(149,85,ls),
(127,60,o),
(127,43,qs),
(127,1,o),
(169,1,qs),
(187,1,o),
(212,24,qs),
(661,434,l),
(212,844,ls)
);
}
);
};
layerId = m01;
shapes = (
{
closed = 1;
nodes = (
(651,1,o),
(665,9,o),
(682,24,cs),
(1130,434,l),
(682,844,ls),
(665,860,o),
(650,868,o),
(638,868,cs),
(610,868,o),
(596,854,o),
(596,826,cs),
(596,815,o),
(603,801,o),
(618,784,cs),
(931,434,l),
(618,85,ls),
(603,68,o),
(596,54,o),
(596,43,cs),
(596,15,o),
(610,1,o),
(638,1,cs)
);
},
{
closed = 1;
nodes = (
(181,1,o),
(195,9,o),
(212,24,cs),
(661,434,l),
(212,844,ls),
(195,860,o),
(180,868,o),
(169,868,cs),
(141,868,o),
(127,854,o),
(127,826,cs),
(127,815,o),
(134,801,o),
(149,784,cs),
(462,434,l),
(149,85,ls),
(134,68,o),
(127,54,o),
(127,43,cs),
(127,15,o),
(141,1,o),
(169,1,cs)
);
}
);
width = 1229;
}
);
note = guillemotright;
unicode = 187;
},
{
glyphname = onequarter;
lastChange = "2025-02-10 17:39:32 +0000";
layers = (
{
background = {
shapes = (
{
closed = 1;
nodes = (
(980,1173,qs),
(969,1173,o),
(956,1165,qs),
(944,1158,o),
(933,1135,qs),
(435,167,ls),
(425,148,o),
(425,133,qs),
(425,122,o),
(430,114,qs),
(443,90,o),
(463,90,qs),
(474,90,o),
(487,98,qs),
(499,105,o),
(510,128,qs),
(1008,1096,ls),
(1018,1115,o),
(1018,1130,qs),
(1018,1141,o),
(1013,1149,qs),
(1000,1173,o)
);
},
{
closed = 1;
nodes = (
(485,577,qs),
(449,577,l),
(449,1171,l),
(364,1140,ls),
(343,1132,o),
(343,1117,qs),
(343,1096,o),
(363,1096,qs),
(375,1096,o),
(383,1101,qs),
(396,1110,o),
(407,1113,q),
(407,577,l),
(372,577,ls),
(344,577,o),
(344,556,qs),
(344,535,o),
(372,535,qs),
(485,535,ls),
(513,535,o),
(513,556,qs),
(513,577,o)
);
},
{
closed = 1;
nodes = (
(1102,43,qs),
(1067,43,l),
(1067,176,l),
(1130,176,o),
(1130,197,qs),
(1130,218,o),
(1067,218,q),
(1067,628,l),
(979,628,l),
(746,225,l),
(746,176,l),
(1024,176,l),
(1025,43,l),
(989,43,ls),
(961,43,o),
(961,21,qs),
(961,0,o),
(989,0,qs),
(1102,0,ls),
(1130,0,o),
(1130,21,qs),
(1130,43,o)
);
},
{
closed = 1;
nodes = (
(1002,586,l),
(1024,586,l),
(1024,218,l),
(790,218,l)
);
}
);
};
layerId = m01;
shapes = (
{
closed = 1;
nodes = (
(470,90,o),
(478,93,o),
(487,98,cs),
(495,103,o),
(503,113,o),
(510,128,cs),
(1008,1096,ls),
(1015,1109,o),
(1018,1120,o),
(1018,1130,cs),
(1018,1137,o),
(1016,1144,o),
(1013,1149,cs),
(1004,1165,o),
(993,1173,o),
(980,1173,cs),
(973,1173,o),
(965,1170,o),
(956,1165,cs),
(948,1160,o),
(940,1150,o),
(933,1135,cs),
(435,167,ls),
(428,154,o),
(425,143,o),
(425,133,cs),
(425,126,o),
(427,119,o),
(430,114,cs),
(439,98,o),
(450,90,o),
(463,90,cs)
);
},
{
closed = 1;
nodes = (
(1102,0,ls),
(1121,0,o),
(1130,7,o),
(1130,21,cs),
(1130,36,o),
(1121,43,o),
(1102,43,cs),
(1067,43,l),
(1067,176,l),
(1109,176,o),
(1130,183,o),
(1130,197,cs),
(1130,211,o),
(1109,218,o),
(1067,218,c),
(1067,628,l),
(979,628,l),
(746,225,l),
(746,176,l),
(1024,176,l),
(1025,43,l),
(989,43,ls),
(970,43,o),
(961,36,o),
(961,21,cs),
(961,7,o),
(970,0,o),
(989,0,cs)
);
},
{
closed = 1;
nodes = (
(485,535,ls),
(504,535,o),
(513,542,o),
(513,556,cs),
(513,570,o),
(504,577,o),
(485,577,cs),
(449,577,l),
(449,1171,l),
(364,1140,ls),
(350,1135,o),
(343,1127,o),
(343,1117,cs),
(343,1103,o),
(350,1096,o),
(363,1096,cs),
(371,1096,o),
(378,1098,o),
(383,1101,cs),
(392,1107,o),
(400,1111,o),
(407,1113,c),
(407,577,l),
(372,577,ls),
(353,577,o),
(344,570,o),
(344,556,cs),
(344,542,o),
(353,535,o),
(372,535,cs)
);
},
{
closed = 1;
nodes = (
(1002,586,l),
(1024,586,l),
(1024,218,l),
(790,218,l)
);
}
);
width = 1280;
}
);
note = onequarter;
unicode = 188;
},
{
glyphname = onehalf;
lastChange = "2025-02-10 17:39:32 +0000";
layers = (
{
background = {
shapes = (
{
closed = 1;
nodes = (
(940,1173,qs),
(929,1173,o),
(916,1165,qs),
(904,1158,o),
(893,1135,qs),
(395,167,ls),
(385,148,o),
(385,133,qs),
(385,122,o),
(390,114,qs),
(403,90,o),
(423,90,qs),
(434,90,o),
(447,98,qs),
(459,105,o),
(470,128,qs),
(968,1096,ls),
(978,1115,o),
(978,1130,qs),
(978,1141,o),
(973,1149,qs),
(960,1173,o)
);
},
{
closed = 1;
nodes = (
(485,577,qs),
(449,577,l),
(449,1171,l),
(364,1140,ls),
(343,1132,o),
(343,1117,qs),
(343,1096,o),
(363,1096,qs),
(375,1096,o),
(383,1101,qs),
(396,1110,o),
(407,1113,q),
(407,577,l),
(372,577,ls),
(344,577,o),
(344,556,qs),
(344,535,o),
(372,535,qs),
(485,535,ls),
(513,535,o),
(513,556,qs),
(513,577,o)
);
},
{
closed = 1;
nodes = (
(1130,57,q),
(1131,50,ls),
(1128,87,o),
(1108,87,qs),
(1087,87,o),
(1087,42,q),
(784,42,l),
(784,45,l),
(861,112,o),
(966,221,qs),
(1099,359,o),
(1119,411,qs),
(1129,436,o),
(1129,465,qs),
(1129,538,o),
(1012,643,o),
(937,643,qs),
(826,643,o),
(770,555,qs),
(744,514,o),
(744,490,qs),
(744,470,o),
(764,470,qs),
(772,470,o),
(778,475,q),
(783,485,o),
(785,491,qs),
(818,600,o),
(938,600,qs),
(996,600,o),
(1086,521,o),
(1086,463,qs),
(1086,443,o),
(1078,423,qs),
(1061,378,o),
(924,238,qs),
(822,133,o),
(743,62,q),
(743,0,l),
(1129,0,l),
(1129,57,o)
);
}
);
};
layerId = m01;
shapes = (
{
closed = 1;
nodes = (
(430,90,o),
(438,93,o),
(447,98,cs),
(455,103,o),
(463,113,o),
(470,128,cs),
(968,1096,ls),
(975,1109,o),
(978,1120,o),
(978,1130,cs),
(978,1137,o),
(976,1144,o),
(973,1149,cs),
(964,1165,o),
(953,1173,o),
(940,1173,cs),
(933,1173,o),
(925,1170,o),
(916,1165,cs),
(908,1160,o),
(900,1150,o),
(893,1135,cs),
(395,167,ls),
(388,154,o),
(385,143,o),
(385,133,cs),
(385,126,o),
(387,119,o),
(390,114,cs),
(399,98,o),
(410,90,o),
(423,90,cs)
);
},
{
closed = 1;
nodes = (
(1129,0,l),
(1130,57,l),
(1131,50,ls),
(1129,75,o),
(1121,87,o),
(1108,87,cs),
(1094,87,o),
(1087,72,o),
(1087,42,c),
(784,42,l),
(784,45,l),
(835,90,o),
(896,148,o),
(966,221,cs),
(1055,313,o),
(1106,376,o),
(1119,411,cs),
(1126,428,o),
(1129,446,o),
(1129,465,cs),
(1129,562,o),
(1037,643,o),
(937,643,cs),
(863,643,o),
(807,614,o),
(770,555,cs),
(753,528,o),
(744,506,o),
(744,490,cs),
(744,477,o),
(751,470,o),
(764,470,cs),
(769,470,o),
(774,472,o),
(778,475,c),
(785,491,l),
(807,564,o),
(858,600,o),
(938,600,cs),
(1015,600,o),
(1086,540,o),
(1086,463,cs),
(1086,450,o),
(1083,436,o),
(1078,423,cs),
(1067,393,o),
(1015,331,o),
(924,238,cs),
(856,168,o),
(796,109,o),
(743,62,c),
(743,0,l)
);
},
{
closed = 1;
nodes = (
(485,535,ls),
(504,535,o),
(513,542,o),
(513,556,cs),
(513,570,o),
(504,577,o),
(485,577,cs),
(449,577,l),
(449,1171,l),
(364,1140,ls),
(350,1135,o),
(343,1127,o),
(343,1117,cs),
(343,1103,o),
(350,1096,o),
(363,1096,cs),
(371,1096,o),
(378,1098,o),
(383,1101,cs),
(392,1107,o),
(400,1111,o),
(407,1113,c),
(407,577,l),
(372,577,ls),
(353,577,o),
(344,570,o),
(344,556,cs),
(344,542,o),
(353,535,o),
(372,535,cs)
);
}
);
width = 1280;
}
);
note = onehalf;
unicode = 189;
},
{
glyphname = threequarters;
lastChange = "2025-02-10 17:39:32 +0000";
layers = (
{
background = {
shapes = (
{
closed = 1;
nodes = (
(980,1173,qs),
(969,1173,o),
(956,1165,qs),
(944,1158,o),
(933,1135,qs),
(435,167,ls),
(425,148,o),
(425,133,qs),
(425,122,o),
(430,114,qs),
(443,90,o),
(463,90,qs),
(474,90,o),
(487,98,qs),
(499,105,o),
(510,128,qs),
(1008,1096,ls),
(1018,1115,o),
(1018,1130,qs),
(1018,1141,o),
(1013,1149,qs),
(1000,1173,o)
);
},
{
closed = 1;
nodes = (
(1102,43,qs),
(1067,43,l),
(1067,176,l),
(1130,176,o),
(1130,197,qs),
(1130,218,o),
(1067,218,q),
(1067,628,l),
(979,628,l),
(746,225,l),
(746,176,l),
(1024,176,l),
(1025,43,l),
(989,43,ls),
(961,43,o),
(961,21,qs),
(961,0,o),
(989,0,qs),
(1102,0,ls),
(1130,0,o),
(1130,21,qs),
(1130,43,o)
);
},
{
closed = 1;
nodes = (
(482,870,q),
(579,916,o),
(579,1010,qs),
(579,1082,o),
(523,1128,qs),
(471,1171,o),
(397,1171,qs),
(320,1171,o),
(260,1129,qs),
(216,1098,o),
(216,1078,qs),
(216,1059,o),
(237,1059,qs),
(246,1059,o),
(259,1073,qs),
(307,1129,o),
(397,1129,qs),
(452,1129,o),
(492,1098,qs),
(536,1064,o),
(536,1010,qs),
(536,959,o),
(495,926,qs),
(458,896,o),
(406,896,qs),
(345,896,o),
(345,875,qs),
(345,854,o),
(373,854,qs),
(442,854,o),
(498,814,qs),
(559,770,o),
(559,703,qs),
(559,639,o),
(504,596,qs),
(453,556,o),
(388,556,qs),
(330,556,o),
(273,586,qs),
(221,614,o),
(221,616,q),
(201,616,o),
(201,596,qs),
(201,566,o),
(275,537,qs),
(333,514,o),
(387,514,qs),
(471,514,o),
(534,566,qs),
(601,621,o),
(601,705,qs),
(601,817,o)
);
},
{
closed = 1;
nodes = (
(1002,586,l),
(1024,586,l),
(1024,218,l),
(790,218,l)
);
}
);
};
layerId = m01;
shapes = (
{
closed = 1;
nodes = (
(470,90,o),
(478,93,o),
(487,98,cs),
(495,103,o),
(503,113,o),
(510,128,cs),
(1008,1096,ls),
(1015,1109,o),
(1018,1120,o),
(1018,1130,cs),
(1018,1137,o),
(1016,1144,o),
(1013,1149,cs),
(1004,1165,o),
(993,1173,o),
(980,1173,cs),
(973,1173,o),
(965,1170,o),
(956,1165,cs),
(948,1160,o),
(940,1150,o),
(933,1135,cs),
(435,167,ls),
(428,154,o),
(425,143,o),
(425,133,cs),
(425,126,o),
(427,119,o),
(430,114,cs),
(439,98,o),
(450,90,o),
(463,90,cs)
);
},
{
closed = 1;
nodes = (
(443,514,o),
(492,531,o),
(534,566,cs),
(579,603,o),
(601,649,o),
(601,705,cs),
(601,780,o),
(561,835,o),
(482,870,c),
(547,901,o),
(579,947,o),
(579,1010,cs),
(579,1058,o),
(560,1097,o),
(523,1128,cs),
(488,1157,o),
(446,1171,o),
(397,1171,cs),
(346,1171,o),
(300,1157,o),
(260,1129,cs),
(231,1108,o),
(216,1091,o),
(216,1078,cs),
(216,1065,o),
(223,1059,o),
(237,1059,cs),
(243,1059,o),
(250,1064,o),
(259,1073,cs),
(291,1110,o),
(337,1129,o),
(397,1129,cs),
(434,1129,o),
(465,1119,o),
(492,1098,cs),
(521,1075,o),
(536,1046,o),
(536,1010,cs),
(536,976,o),
(522,948,o),
(495,926,cs),
(470,906,o),
(441,896,o),
(406,896,cs),
(365,896,o),
(345,889,o),
(345,875,cs),
(345,861,o),
(354,854,o),
(373,854,cs),
(419,854,o),
(461,841,o),
(498,814,cs),
(539,785,o),
(559,748,o),
(559,703,cs),
(559,660,o),
(541,625,o),
(504,596,cs),
(470,569,o),
(431,556,o),
(388,556,cs),
(349,556,o),
(311,566,o),
(273,586,cs),
(238,605,o),
(221,615,o),
(221,616,c),
(208,616,o),
(201,609,o),
(201,596,cs),
(201,576,o),
(226,556,o),
(275,537,cs),
(314,522,o),
(351,514,o),
(387,514,cs)
);
},
{
closed = 1;
nodes = (
(1102,0,ls),
(1121,0,o),
(1130,7,o),
(1130,21,cs),
(1130,36,o),
(1121,43,o),
(1102,43,cs),
(1067,43,l),
(1067,176,l),
(1109,176,o),
(1130,183,o),
(1130,197,cs),
(1130,211,o),
(1109,218,o),
(1067,218,c),
(1067,628,l),
(979,628,l),
(746,225,l),
(746,176,l),
(1024,176,l),
(1025,43,l),
(989,43,ls),
(970,43,o),
(961,36,o),
(961,21,cs),
(961,7,o),
(970,0,o),
(989,0,cs)
);
},
{
closed = 1;
nodes = (
(1002,586,l),
(1024,586,l),
(1024,218,l),
(790,218,l)
);
}
);
width = 1280;
}
);
note = threequarters;
unicode = 190;
},
{
glyphname = questiondown;
lastChange = "2025-02-10 17:39:32 +0000";
layers = (
{
background = {
shapes = (
{
closed = 1;
nodes = (
(622,883,o),
(579,883,qs),
(495,883,ls),
(451,883,o),
(391,822,o),
(391,778,qs),
(391,735,o),
(452,675,o),
(495,675,qs),
(579,675,ls),
(623,675,o),
(683,735,o),
(683,779,qs),
(683,822,o)
);
},
{
closed = 1;
nodes = (
(878,-116,o),
(836,-116,qs),
(800,-116,o),
(794,-165,q),
(794,-241,l),
(645,-312,o),
(527,-312,qs),
(405,-312,o),
(322,-238,qs),
(234,-161,o),
(234,-41,qs),
(234,58,o),
(362,138,qs),
(430,180,o),
(578,234,q),
(578,375,ls),
(578,432,o),
(536,432,qs),
(497,432,o),
(491,375,qs),
(491,377,l),
(493,377,o),
(493,290,q),
(328,220,o),
(265,172,qs),
(150,85,o),
(150,-42,qs),
(150,-201,o),
(256,-300,qs),
(359,-396,o),
(520,-396,qs),
(613,-396,o),
(705,-366,qs),
(755,-350,o),
(878,-295,q),
(878,-173,ls)
);
}
);
};
layerId = m01;
shapes = (
{
closed = 1;
nodes = (
(582,-396,o),
(644,-386,o),
(705,-366,cs),
(738,-355,o),
(796,-332,o),
(878,-295,c),
(878,-173,ls),
(878,-135,o),
(864,-116,o),
(836,-116,cs),
(812,-116,o),
(798,-132,o),
(794,-165,c),
(794,-241,l),
(695,-288,o),
(606,-312,o),
(527,-312,cs),
(446,-312,o),
(377,-287,o),
(322,-238,cs),
(263,-187,o),
(234,-121,o),
(234,-41,cs),
(234,25,o),
(277,85,o),
(362,138,cs),
(407,166,o),
(479,198,o),
(578,234,c),
(578,375,ls),
(578,413,o),
(564,432,o),
(536,432,cs),
(510,432,o),
(495,413,o),
(491,375,cs),
(491,377,l),
(492,377,o),
(493,348,o),
(493,290,c),
(383,243,o),
(307,204,o),
(265,172,cs),
(188,114,o),
(150,43,o),
(150,-42,cs),
(150,-148,o),
(185,-234,o),
(256,-300,cs),
(325,-364,o),
(413,-396,o),
(520,-396,cs)
);
},
{
closed = 1;
nodes = (
(579,675,ls),
(638,675,o),
(683,720,o),
(683,779,cs),
(683,836,o),
(636,883,o),
(579,883,cs),
(495,883,ls),
(436,883,o),
(391,837,o),
(391,778,cs),
(391,721,o),
(438,675,o),
(495,675,cs)
);
}
);
width = 1029;
}
);
note = questiondown;
unicode = 191;
},
{
glyphname = Agrave;
lastChange = "2025-02-10 17:39:32 +0000";
layers = (
{
background = {
shapes = (
{
closed = 1;
nodes = (
(787,1284,q),
(775,1303,o),
(650,1413,qs),
(516,1533,o),
(491,1533,qs),
(448,1533,o),
(448,1490,qs),
(448,1471,o),
(473,1449,qs),
(709,1245,ls),
(732,1225,o),
(747,1225,qs),
(790,1225,o),
(790,1268,qs),
(790,1275,o)
);
},
{
closed = 1;
nodes = (
(1300,88,qs),
(1229,88,l),
(823,1174,l),
(683,1175,l),
(277,88,l),
(206,88,ls),
(150,88,o),
(150,45,qs),
(150,3,o),
(206,3,qs),
(432,3,ls),
(488,3,o),
(488,45,qs),
(488,88,o),
(432,88,qs),
(371,88,l),
(478,395,l),
(1030,395,l),
(1145,88,l),
(1074,88,ls),
(1018,88,o),
(1018,45,qs),
(1018,3,o),
(1074,3,qs),
(1300,3,ls),
(1356,3,o),
(1356,45,qs),
(1356,88,o)
);
},
{
closed = 1;
nodes = (
(735,1090,l),
(766,1090,l),
(998,479,l),
(510,479,l)
);
}
);
};
layerId = m01;
shapes = (
{
closed = 1;
nodes = (
(432,3,ls),
(469,3,o),
(488,17,o),
(488,45,cs),
(488,74,o),
(469,88,o),
(432,88,cs),
(371,88,l),
(478,395,l),
(1030,395,l),
(1145,88,l),
(1074,88,ls),
(1037,88,o),
(1018,74,o),
(1018,45,cs),
(1018,17,o),
(1037,3,o),
(1074,3,cs),
(1300,3,ls),
(1337,3,o),
(1356,17,o),
(1356,45,cs),
(1356,74,o),
(1337,88,o),
(1300,88,cs),
(1229,88,l),
(823,1174,l),
(683,1175,l),
(277,88,l),
(206,88,ls),
(169,88,o),
(150,74,o),
(150,45,cs),
(150,17,o),
(169,3,o),
(206,3,cs)
);
},
{
closed = 1;
nodes = (
(735,1090,l),
(766,1090,l),
(998,479,l),
(510,479,l)
);
},
{
closed = 1;
nodes = (
(776,1225,o),
(790,1239,o),
(790,1268,cs),
(790,1273,o),
(789,1278,o),
(787,1284,c),
(779,1297,o),
(733,1340,o),
(650,1413,cs),
(561,1493,o),
(508,1533,o),
(491,1533,cs),
(462,1533,o),
(448,1519,o),
(448,1490,cs),
(448,1477,o),
(456,1464,o),
(473,1449,cs),
(709,1245,ls),
(724,1232,o),
(737,1225,o),
(747,1225,cs)
);
}
);
width = 1504;
}
);
note = Agrave;
unicode = 192;
},
{
glyphname = Aacute;
lastChange = "2025-02-10 17:39:32 +0000";
layers = (
{
background = {
shapes = (
{
closed = 1;
nodes = (
(1007,1533,qs),
(982,1533,o),
(848,1413,qs),
(723,1303,o),
(711,1284,q),
(708,1275,o),
(708,1268,qs),
(708,1225,o),
(751,1225,qs),
(766,1225,o),
(789,1245,qs),
(1025,1449,ls),
(1050,1471,o),
(1050,1490,qs),
(1050,1533,o)
);
},
{
closed = 1;
nodes = (
(1300,88,qs),
(1229,88,l),
(823,1174,l),
(683,1175,l),
(277,88,l),
(206,88,ls),
(150,88,o),
(150,45,qs),
(150,3,o),
(206,3,qs),
(432,3,ls),
(488,3,o),
(488,45,qs),
(488,88,o),
(432,88,qs),
(371,88,l),
(478,395,l),
(1030,395,l),
(1145,88,l),
(1074,88,ls),
(1018,88,o),
(1018,45,qs),
(1018,3,o),
(1074,3,qs),
(1300,3,ls),
(1356,3,o),
(1356,45,qs),
(1356,88,o)
);
},
{
closed = 1;
nodes = (
(735,1090,l),
(766,1090,l),
(998,479,l),
(510,479,l)
);
}
);
};
layerId = m01;
shapes = (
{
closed = 1;
nodes = (
(432,3,ls),
(469,3,o),
(488,17,o),
(488,45,cs),
(488,74,o),
(469,88,o),
(432,88,cs),
(371,88,l),
(478,395,l),
(1030,395,l),
(1145,88,l),
(1074,88,ls),
(1037,88,o),
(1018,74,o),
(1018,45,cs),
(1018,17,o),
(1037,3,o),
(1074,3,cs),
(1300,3,ls),
(1337,3,o),
(1356,17,o),
(1356,45,cs),
(1356,74,o),
(1337,88,o),
(1300,88,cs),
(1229,88,l),
(823,1174,l),
(683,1175,l),
(277,88,l),
(206,88,ls),
(169,88,o),
(150,74,o),
(150,45,cs),
(150,17,o),
(169,3,o),
(206,3,cs)
);
},
{
closed = 1;
nodes = (
(735,1090,l),
(766,1090,l),
(998,479,l),
(510,479,l)
);
},
{
closed = 1;
nodes = (
(761,1225,o),
(774,1232,o),
(789,1245,cs),
(1025,1449,ls),
(1042,1464,o),
(1050,1477,o),
(1050,1490,cs),
(1050,1519,o),
(1036,1533,o),
(1007,1533,cs),
(990,1533,o),
(937,1493,o),
(848,1413,cs),
(765,1340,o),
(719,1297,o),
(711,1284,c),
(709,1278,o),
(708,1273,o),
(708,1268,cs),
(708,1239,o),
(722,1225,o),
(751,1225,cs)
);
}
);
width = 1504;
}
);
note = Aacute;
unicode = 193;
},
{
glyphname = Acircumflex;
lastChange = "2025-02-10 17:39:32 +0000";
layers = (
{
background = {
shapes = (
{
closed = 1;
nodes = (
(1013,1308,qs),
(742,1514,l),
(472,1308,ls),
(444,1287,o),
(444,1266,qs),
(444,1224,o),
(486,1224,qs),
(508,1224,o),
(619,1310,qs),
(680,1360,o),
(742,1410,q),
(804,1360,o),
(866,1311,qs),
(977,1224,o),
(998,1224,qs),
(1041,1224,o),
(1041,1266,qs),
(1041,1287,o)
);
},
{
closed = 1;
nodes = (
(1300,88,qs),
(1229,88,l),
(823,1174,l),
(683,1175,l),
(277,88,l),
(206,88,ls),
(150,88,o),
(150,45,qs),
(150,3,o),
(206,3,qs),
(432,3,ls),
(488,3,o),
(488,45,qs),
(488,88,o),
(432,88,qs),
(371,88,l),
(478,395,l),
(1030,395,l),
(1145,88,l),
(1074,88,ls),
(1018,88,o),
(1018,45,qs),
(1018,3,o),
(1074,3,qs),
(1300,3,ls),
(1356,3,o),
(1356,45,qs),
(1356,88,o)
);
},
{
closed = 1;
nodes = (
(735,1090,l),
(766,1090,l),
(998,479,l),
(510,479,l)
);
}
);
};
layerId = m01;
shapes = (
{
closed = 1;
nodes = (
(432,3,ls),
(469,3,o),
(488,17,o),
(488,45,cs),
(488,74,o),
(469,88,o),
(432,88,cs),
(371,88,l),
(478,395,l),
(1030,395,l),
(1145,88,l),
(1074,88,ls),
(1037,88,o),
(1018,74,o),
(1018,45,cs),
(1018,17,o),
(1037,3,o),
(1074,3,cs),
(1300,3,ls),
(1337,3,o),
(1356,17,o),
(1356,45,cs),
(1356,74,o),
(1337,88,o),
(1300,88,cs),
(1229,88,l),
(823,1174,l),
(683,1175,l),
(277,88,l),
(206,88,ls),
(169,88,o),
(150,74,o),
(150,45,cs),
(150,17,o),
(169,3,o),
(206,3,cs)
);
},
{
closed = 1;
nodes = (
(735,1090,l),
(766,1090,l),
(998,479,l),
(510,479,l)
);
},
{
closed = 1;
nodes = (
(501,1224,o),
(545,1253,o),
(619,1310,cs),
(742,1410,l),
(866,1311,ls),
(940,1253,o),
(984,1224,o),
(998,1224,cs),
(1027,1224,o),
(1041,1238,o),
(1041,1266,cs),
(1041,1280,o),
(1032,1294,o),
(1013,1308,cs),
(742,1514,l),
(472,1308,ls),
(453,1294,o),
(444,1280,o),
(444,1266,cs),
(444,1238,o),
(458,1224,o),
(486,1224,cs)
);
}
);
width = 1504;
}
);
note = Acircumflex;
unicode = 194;
},
{
glyphname = Atilde;
lastChange = "2025-02-10 17:39:32 +0000";
layers = (
{
background = {
shapes = (
{
closed = 1;
nodes = (
(1028,1390,qs),
(1014,1390,o),
(913,1309,o),
(883,1309,qs),
(852,1309,o),
(673,1430,o),
(619,1430,qs),
(575,1430,o),
(506,1388,qs),
(432,1343,o),
(432,1305,qs),
(432,1265,o),
(473,1265,qs),
(489,1265,o),
(586,1346,o),
(620,1346,qs),
(647,1346,o),
(827,1224,o),
(883,1224,qs),
(928,1224,o),
(996,1266,qs),
(1070,1311,o),
(1070,1351,qs),
(1070,1390,o)
);
},
{
closed = 1;
nodes = (
(1300,88,qs),
(1229,88,l),
(823,1174,l),
(683,1175,l),
(277,88,l),
(206,88,ls),
(150,88,o),
(150,45,qs),
(150,3,o),
(206,3,qs),
(432,3,ls),
(488,3,o),
(488,45,qs),
(488,88,o),
(432,88,qs),
(371,88,l),
(478,395,l),
(1030,395,l),
(1145,88,l),
(1074,88,ls),
(1018,88,o),
(1018,45,qs),
(1018,3,o),
(1074,3,qs),
(1300,3,ls),
(1356,3,o),
(1356,45,qs),
(1356,88,o)
);
},
{
closed = 1;
nodes = (
(735,1090,l),
(766,1090,l),
(998,479,l),
(510,479,l)
);
}
);
};
layerId = m01;
shapes = (
{
closed = 1;
nodes = (
(432,3,ls),
(469,3,o),
(488,17,o),
(488,45,cs),
(488,74,o),
(469,88,o),
(432,88,cs),
(371,88,l),
(478,395,l),
(1030,395,l),
(1145,88,l),
(1074,88,ls),
(1037,88,o),
(1018,74,o),
(1018,45,cs),
(1018,17,o),
(1037,3,o),
(1074,3,cs),
(1300,3,ls),
(1337,3,o),
(1356,17,o),
(1356,45,cs),
(1356,74,o),
(1337,88,o),
(1300,88,cs),
(1229,88,l),
(823,1174,l),
(683,1175,l),
(277,88,l),
(206,88,ls),
(169,88,o),
(150,74,o),
(150,45,cs),
(150,17,o),
(169,3,o),
(206,3,cs)
);
},
{
closed = 1;
nodes = (
(735,1090,l),
(766,1090,l),
(998,479,l),
(510,479,l)
);
},
{
closed = 1;
nodes = (
(913,1224,o),
(951,1238,o),
(996,1266,cs),
(1045,1296,o),
(1070,1324,o),
(1070,1351,cs),
(1070,1377,o),
(1056,1390,o),
(1028,1390,cs),
(1019,1390,o),
(997,1377,o),
(964,1350,cs),
(930,1323,o),
(903,1309,o),
(883,1309,cs),
(862,1309,o),
(822,1329,o),
(763,1370,cs),
(703,1410,o),
(655,1430,o),
(619,1430,cs),
(590,1430,o),
(552,1416,o),
(506,1388,cs),
(457,1358,o),
(432,1330,o),
(432,1305,cs),
(432,1278,o),
(446,1265,o),
(473,1265,cs),
(484,1265,o),
(505,1279,o),
(538,1306,cs),
(570,1333,o),
(597,1346,o),
(620,1346,cs),
(638,1346,o),
(677,1326,o),
(737,1285,cs),
(797,1244,o),
(846,1224,o),
(883,1224,cs)
);
}
);
width = 1504;
}
);
note = Atilde;
unicode = 195;
},
{
glyphname = Adieresis;
lastChange = "2025-02-10 17:39:32 +0000";
layers = (
{
background = {
shapes = (
{
closed = 1;
nodes = (
(935,1378,o),
(903,1378,qs),
(871,1378,o),
(826,1333,o),
(826,1301,qs),
(826,1269,o),
(871,1224,o),
(903,1224,qs),
(935,1224,o),
(980,1269,o),
(980,1301,qs),
(980,1332,o)
);
},
{
closed = 1;
nodes = (
(635,1378,o),
(603,1378,qs),
(571,1378,o),
(526,1333,o),
(526,1301,qs),
(526,1269,o),
(571,1224,o),
(603,1224,qs),
(635,1224,o),
(680,1269,o),
(680,1301,qs),
(680,1332,o)
);
},
{
closed = 1;
nodes = (
(1300,88,qs),
(1229,88,l),
(823,1174,l),
(683,1175,l),
(277,88,l),
(206,88,ls),
(150,88,o),
(150,45,qs),
(150,3,o),
(206,3,qs),
(432,3,ls),
(488,3,o),
(488,45,qs),
(488,88,o),
(432,88,qs),
(371,88,l),
(478,395,l),
(1030,395,l),
(1145,88,l),
(1074,88,ls),
(1018,88,o),
(1018,45,qs),
(1018,3,o),
(1074,3,qs),
(1300,3,ls),
(1356,3,o),
(1356,45,qs),
(1356,88,o)
);
},
{
closed = 1;
nodes = (
(735,1090,l),
(766,1090,l),
(998,479,l),
(510,479,l)
);
}
);
};
layerId = m01;
shapes = (
{
closed = 1;
nodes = (
(432,3,ls),
(469,3,o),
(488,17,o),
(488,45,cs),
(488,74,o),
(469,88,o),
(432,88,cs),
(371,88,l),
(478,395,l),
(1030,395,l),
(1145,88,l),
(1074,88,ls),
(1037,88,o),
(1018,74,o),
(1018,45,cs),
(1018,17,o),
(1037,3,o),
(1074,3,cs),
(1300,3,ls),
(1337,3,o),
(1356,17,o),
(1356,45,cs),
(1356,74,o),
(1337,88,o),
(1300,88,cs),
(1229,88,l),
(823,1174,l),
(683,1175,l),
(277,88,l),
(206,88,ls),
(169,88,o),
(150,74,o),
(150,45,cs),
(150,17,o),
(169,3,o),
(206,3,cs)
);
},
{
closed = 1;
nodes = (
(735,1090,l),
(766,1090,l),
(998,479,l),
(510,479,l)
);
},
{
closed = 1;
nodes = (
(646,1224,o),
(680,1258,o),
(680,1301,cs),
(680,1342,o),
(646,1378,o),
(603,1378,cs),
(560,1378,o),
(526,1344,o),
(526,1301,cs),
(526,1258,o),
(560,1224,o),
(603,1224,cs)
);
},
{
closed = 1;
nodes = (
(946,1224,o),
(980,1258,o),
(980,1301,cs),
(980,1342,o),
(946,1378,o),
(903,1378,cs),
(860,1378,o),
(826,1344,o),
(826,1301,cs),
(826,1258,o),
(860,1224,o),
(903,1224,cs)
);
}
);
width = 1504;
}
);
note = Adieresis;
unicode = 196;
},
{
glyphname = Aring;
lastChange = "2025-02-10 17:39:32 +0000";
layers = (
{
background = {
shapes = (
{
closed = 1;
nodes = (
(809,1492,o),
(753,1492,qs),
(697,1492,o),
(617,1414,o),
(617,1359,qs),
(617,1303,o),
(697,1225,o),
(753,1225,qs),
(809,1225,o),
(889,1303,o),
(889,1359,qs),
(889,1414,o)
);
},
{
closed = 1;
nodes = (
(1300,88,qs),
(1229,88,l),
(823,1174,l),
(683,1175,l),
(277,88,l),
(206,88,ls),
(150,88,o),
(150,45,qs),
(150,3,o),
(206,3,qs),
(432,3,ls),
(488,3,o),
(488,45,qs),
(488,88,o),
(432,88,qs),
(371,88,l),
(478,395,l),
(1030,395,l),
(1145,88,l),
(1074,88,ls),
(1018,88,o),
(1018,45,qs),
(1018,3,o),
(1074,3,qs),
(1300,3,ls),
(1356,3,o),
(1356,45,qs),
(1356,88,o)
);
},
{
closed = 1;
nodes = (
(790,1270,o),
(753,1270,qs),
(716,1270,o),
(662,1322,o),
(662,1359,qs),
(662,1396,o),
(716,1447,o),
(753,1447,qs),
(790,1447,o),
(844,1396,o),
(844,1359,qs),
(844,1321,o)
);
},
{
closed = 1;
nodes = (
(735,1090,l),
(766,1090,l),
(998,479,l),
(510,479,l)
);
}
);
};
layerId = m01;
shapes = (
{
closed = 1;
nodes = (
(432,3,ls),
(469,3,o),
(488,17,o),
(488,45,cs),
(488,74,o),
(469,88,o),
(432,88,cs),
(371,88,l),
(478,395,l),
(1030,395,l),
(1145,88,l),
(1074,88,ls),
(1037,88,o),
(1018,74,o),
(1018,45,cs),
(1018,17,o),
(1037,3,o),
(1074,3,cs),
(1300,3,ls),
(1337,3,o),
(1356,17,o),
(1356,45,cs),
(1356,74,o),
(1337,88,o),
(1300,88,cs),
(1229,88,l),
(823,1174,l),
(683,1175,l),
(277,88,l),
(206,88,ls),
(169,88,o),
(150,74,o),
(150,45,cs),
(150,17,o),
(169,3,o),
(206,3,cs)
);
},
{
closed = 1;
nodes = (
(735,1090,l),
(766,1090,l),
(998,479,l),
(510,479,l)
);
},
{
closed = 1;
nodes = (
(828,1225,o),
(889,1284,o),
(889,1359,cs),
(889,1432,o),
(828,1492,o),
(753,1492,cs),
(678,1492,o),
(617,1432,o),
(617,1359,cs),
(617,1284,o),
(678,1225,o),
(753,1225,cs)
);
},
{
closed = 1;
nodes = (
(704,1270,o),
(662,1310,o),
(662,1359,cs),
(662,1408,o),
(704,1447,o),
(753,1447,cs),
(802,1447,o),
(844,1408,o),
(844,1359,cs),
(844,1308,o),
(802,1270,o),
(753,1270,cs)
);
}
);
width = 1504;
}
);
note = Aring;
unicode = 197;
},
{
glyphname = AE;
lastChange = "2025-02-10 17:39:32 +0000";
layers = (
{
background = {
shapes = (
{
closed = 1;
nodes = (
(1470,210,o),
(1428,210,qs),
(1385,210,o),
(1385,156,qs),
(1385,154,l),
(1386,83,l),
(820,83,l),
(820,564,l),
(1071,564,l),
(1071,493,ls),
(1071,437,o),
(1114,437,qs),
(1156,437,o),
(1156,493,qs),
(1156,719,ls),
(1156,775,o),
(1114,775,qs),
(1071,775,o),
(1071,719,qs),
(1071,648,l),
(820,648,l),
(820,1085,l),
(1342,1085,l),
(1341,1014,l),
(1341,1012,ls),
(1341,958,o),
(1384,958,qs),
(1426,958,o),
(1426,1014,qs),
(1426,1169,l),
(665,1170,ls),
(609,1170,o),
(609,1128,qs),
(609,1093,o),
(646,1087,q),
(277,84,l),
(206,84,ls),
(150,84,o),
(150,41,qs),
(150,-1,o),
(206,-1,qs),
(432,-1,ls),
(488,-1,o),
(488,41,qs),
(488,84,o),
(432,84,qs),
(371,84,l),
(478,391,l),
(736,391,l),
(736,83,l),
(665,83,ls),
(609,83,o),
(609,40,qs),
(609,22,o),
(622,10,q),
(648,0,o),
(665,-2,q),
(1470,-1,l),
(1470,154,ls)
);
},
{
closed = 1;
nodes = (
(736,1082,l),
(736,475,l),
(510,475,l)
);
}
);
};
layerId = m01;
shapes = (
{
closed = 1;
nodes = (
(1470,-1,l),
(1470,154,ls),
(1470,191,o),
(1456,210,o),
(1428,210,cs),
(1399,210,o),
(1385,192,o),
(1385,156,cs),
(1385,154,l),
(1386,83,l),
(820,83,l),
(820,564,l),
(1071,564,l),
(1071,493,ls),
(1071,456,o),
(1085,437,o),
(1114,437,cs),
(1142,437,o),
(1156,456,o),
(1156,493,cs),
(1156,719,ls),
(1156,756,o),
(1142,775,o),
(1114,775,cs),
(1085,775,o),
(1071,756,o),
(1071,719,cs),
(1071,648,l),
(820,648,l),
(820,1085,l),
(1342,1085,l),
(1341,1014,l),
(1341,1012,ls),
(1341,976,o),
(1355,958,o),
(1384,958,cs),
(1412,958,o),
(1426,977,o),
(1426,1014,cs),
(1426,1169,l),
(665,1170,ls),
(628,1170,o),
(609,1156,o),
(609,1128,cs),
(609,1105,o),
(621,1091,o),
(646,1087,c),
(277,84,l),
(206,84,ls),
(169,84,o),
(150,70,o),
(150,41,cs),
(150,13,o),
(169,-1,o),
(206,-1,cs),
(432,-1,ls),
(469,-1,o),
(488,13,o),
(488,41,cs),
(488,70,o),
(469,84,o),
(432,84,cs),
(371,84,l),
(478,391,l),
(736,391,l),
(736,83,l),
(665,83,ls),
(628,83,o),
(609,69,o),
(609,40,cs),
(609,28,o),
(613,18,o),
(622,10,c),
(639,3,o),
(654,-1,o),
(665,-2,c)
);
},
{
closed = 1;
nodes = (
(736,1082,l),
(736,475,l),
(510,475,l)
);
}
);
width = 1620;
}
);
note = AE;
unicode = 198;
},
{
glyphname = Ccedilla;
lastChange = "2025-02-10 17:39:32 +0000";
layers = (
{
background = {
shapes = (
{
closed = 1;
nodes = (
(1083,259,qs),
(1070,259,o),
(1015,205,qs),
(947,137,o),
(888,103,qs),
(794,49,o),
(686,49,qs),
(501,49,o),
(367,190,qs),
(234,328,o),
(234,514,qs),
(234,661,ls),
(234,841,o),
(352,974,qs),
(474,1111,o),
(652,1111,qs),
(800,1111,o),
(916,1022,qs),
(984,970,o),
(1001,905,qs),
(1019,835,o),
(1021,834,q),
(1032,822,o),
(1049,822,qs),
(1091,822,o),
(1091,879,qs),
(1091,1112,ls),
(1091,1168,o),
(1049,1168,qs),
(1014,1168,o),
(1007,1124,q),
(1007,1053,l),
(857,1195,o),
(649,1195,qs),
(440,1195,o),
(150,884,o),
(150,673,qs),
(150,502,ls),
(150,333,o),
(269,185,qs),
(432,-20,o),
(649,-34,q),
(649,-165,l),
(766,-165,o),
(766,-216,qs),
(766,-275,o),
(683,-275,qs),
(644,-275,o),
(540,-230,o),
(535,-230,qs),
(505,-230,o),
(505,-260,qs),
(505,-293,o),
(579,-316,qs),
(639,-335,o),
(683,-335,qs),
(742,-335,o),
(782,-307,qs),
(827,-275,o),
(827,-218,qs),
(827,-125,o),
(709,-108,q),
(709,-107,o),
(713,-53,o),
(713,-34,q),
(926,-23,o),
(1080,150,qs),
(1123,198,o),
(1123,220,qs),
(1123,259,o)
);
}
);
};
layerId = m01;
shapes = (
{
closed = 1;
nodes = (
(722,-335,o),
(755,-326,o),
(782,-307,cs),
(812,-286,o),
(827,-256,o),
(827,-218,cs),
(827,-156,o),
(788,-119,o),
(709,-108,c),
(711,-80,l),
(713,-34,l),
(855,-27,o),
(977,35,o),
(1080,150,cs),
(1109,182,o),
(1123,205,o),
(1123,220,cs),
(1123,246,o),
(1110,259,o),
(1083,259,cs),
(1074,259,o),
(1052,241,o),
(1015,205,cs),
(970,160,o),
(927,126,o),
(888,103,cs),
(825,67,o),
(758,49,o),
(686,49,cs),
(563,49,o),
(456,96,o),
(367,190,cs),
(278,282,o),
(234,390,o),
(234,514,cs),
(234,661,ls),
(234,781,o),
(273,885,o),
(352,974,cs),
(433,1065,o),
(533,1111,o),
(652,1111,cs),
(751,1111,o),
(839,1081,o),
(916,1022,cs),
(961,987,o),
(990,948,o),
(1001,905,cs),
(1013,858,o),
(1020,835,o),
(1021,834,cs),
(1028,826,o),
(1038,822,o),
(1049,822,cs),
(1077,822,o),
(1091,841,o),
(1091,879,cs),
(1091,1112,ls),
(1091,1149,o),
(1077,1168,o),
(1049,1168,cs),
(1026,1168,o),
(1012,1153,o),
(1007,1124,c),
(1007,1053,l),
(907,1148,o),
(788,1195,o),
(649,1195,cs),
(370,1195,o),
(150,954,o),
(150,673,cs),
(150,502,ls),
(150,389,o),
(190,284,o),
(269,185,cs),
(378,48,o),
(504,-25,o),
(649,-34,c),
(649,-165,l),
(727,-165,o),
(766,-182,o),
(766,-216,cs),
(766,-255,o),
(738,-275,o),
(683,-275,cs),
(657,-275,o),
(627,-267,o),
(592,-252,cs),
(557,-237,o),
(538,-230,o),
(535,-230,cs),
(515,-230,o),
(505,-240,o),
(505,-260,cs),
(505,-282,o),
(530,-301,o),
(579,-316,cs),
(619,-329,o),
(654,-335,o),
(683,-335,cs)
);
}
);
width = 1229;
}
);
note = Ccedilla;
unicode = 199;
},
{
glyphname = Egrave;
lastChange = "2025-02-10 17:39:32 +0000";
layers = (
{
background = {
shapes = (
{
closed = 1;
nodes = (
(668,1281,q),
(656,1300,o),
(531,1410,qs),
(397,1530,o),
(372,1530,qs),
(329,1530,o),
(329,1487,qs),
(329,1468,o),
(354,1446,qs),
(590,1242,ls),
(613,1222,o),
(628,1222,qs),
(671,1222,o),
(671,1265,qs),
(671,1272,o)
);
},
{
closed = 1;
nodes = (
(1091,211,o),
(1049,211,qs),
(1006,211,o),
(1006,157,qs),
(1006,155,l),
(1007,84,l),
(361,84,l),
(361,565,l),
(662,565,l),
(662,494,ls),
(662,438,o),
(705,438,qs),
(747,438,o),
(747,494,qs),
(747,720,ls),
(747,776,o),
(705,776,qs),
(662,776,o),
(662,720,qs),
(662,649,l),
(361,649,l),
(361,1086,l),
(963,1086,l),
(962,1015,l),
(962,1013,ls),
(962,959,o),
(1005,959,qs),
(1047,959,o),
(1047,1015,qs),
(1047,1170,l),
(206,1171,ls),
(150,1171,o),
(150,1129,qs),
(150,1086,o),
(206,1086,qs),
(277,1086,l),
(277,84,l),
(206,84,ls),
(150,84,o),
(150,41,qs),
(150,23,o),
(163,11,q),
(189,1,o),
(206,-1,q),
(1091,0,l),
(1091,155,ls)
);
}
);
};
layerId = m01;
shapes = (
{
closed = 1;
nodes = (
(1091,0,l),
(1091,155,ls),
(1091,192,o),
(1077,211,o),
(1049,211,cs),
(1020,211,o),
(1006,193,o),
(1006,157,cs),
(1006,155,l),
(1007,84,l),
(361,84,l),
(361,565,l),
(662,565,l),
(662,494,ls),
(662,457,o),
(676,438,o),
(705,438,cs),
(733,438,o),
(747,457,o),
(747,494,cs),
(747,720,ls),
(747,757,o),
(733,776,o),
(705,776,cs),
(676,776,o),
(662,757,o),
(662,720,cs),
(662,649,l),
(361,649,l),
(361,1086,l),
(963,1086,l),
(962,1015,l),
(962,1013,ls),
(962,977,o),
(976,959,o),
(1005,959,cs),
(1033,959,o),
(1047,978,o),
(1047,1015,cs),
(1047,1170,l),
(206,1171,ls),
(169,1171,o),
(150,1157,o),
(150,1129,cs),
(150,1100,o),
(169,1086,o),
(206,1086,cs),
(277,1086,l),
(277,84,l),
(206,84,ls),
(169,84,o),
(150,70,o),
(150,41,cs),
(150,29,o),
(154,19,o),
(163,11,c),
(180,4,o),
(195,0,o),
(206,-1,c)
);
},
{
closed = 1;
nodes = (
(657,1222,o),
(671,1236,o),
(671,1265,cs),
(671,1270,o),
(670,1275,o),
(668,1281,c),
(660,1294,o),
(614,1337,o),
(531,1410,cs),
(442,1490,o),
(389,1530,o),
(372,1530,cs),
(343,1530,o),
(329,1516,o),
(329,1487,cs),
(329,1474,o),
(337,1461,o),
(354,1446,cs),
(590,1242,ls),
(605,1229,o),
(618,1222,o),
(628,1222,cs)
);
}
);
width = 1241;
}
);
note = Egrave;
unicode = 200;
},
{
glyphname = Eacute;
lastChange = "2025-02-10 17:39:32 +0000";
layers = (
{
background = {
shapes = (
{
closed = 1;
nodes = (
(878,1530,qs),
(853,1530,o),
(719,1410,qs),
(594,1300,o),
(582,1281,q),
(579,1272,o),
(579,1265,qs),
(579,1222,o),
(622,1222,qs),
(637,1222,o),
(660,1242,qs),
(896,1446,ls),
(921,1468,o),
(921,1487,qs),
(921,1530,o)
);
},
{
closed = 1;
nodes = (
(1091,211,o),
(1049,211,qs),
(1006,211,o),
(1006,157,qs),
(1006,155,l),
(1007,84,l),
(361,84,l),
(361,565,l),
(662,565,l),
(662,494,ls),
(662,438,o),
(705,438,qs),
(747,438,o),
(747,494,qs),
(747,720,ls),
(747,776,o),
(705,776,qs),
(662,776,o),
(662,720,qs),
(662,649,l),
(361,649,l),
(361,1086,l),
(963,1086,l),
(962,1015,l),
(962,1013,ls),
(962,959,o),
(1005,959,qs),
(1047,959,o),
(1047,1015,qs),
(1047,1170,l),
(206,1171,ls),
(150,1171,o),
(150,1129,qs),
(150,1086,o),
(206,1086,qs),
(277,1086,l),
(277,84,l),
(206,84,ls),
(150,84,o),
(150,41,qs),
(150,23,o),
(163,11,q),
(189,1,o),
(206,-1,q),
(1091,0,l),
(1091,155,ls)
);
}
);
};
layerId = m01;
shapes = (
{
closed = 1;
nodes = (
(1091,0,l),
(1091,155,ls),
(1091,192,o),
(1077,211,o),
(1049,211,cs),
(1020,211,o),
(1006,193,o),
(1006,157,cs),
(1006,155,l),
(1007,84,l),
(361,84,l),
(361,565,l),
(662,565,l),
(662,494,ls),
(662,457,o),
(676,438,o),
(705,438,cs),
(733,438,o),
(747,457,o),
(747,494,cs),
(747,720,ls),
(747,757,o),
(733,776,o),
(705,776,cs),
(676,776,o),
(662,757,o),
(662,720,cs),
(662,649,l),
(361,649,l),
(361,1086,l),
(963,1086,l),
(962,1015,l),
(962,1013,ls),
(962,977,o),
(976,959,o),
(1005,959,cs),
(1033,959,o),
(1047,978,o),
(1047,1015,cs),
(1047,1170,l),
(206,1171,ls),
(169,1171,o),
(150,1157,o),
(150,1129,cs),
(150,1100,o),
(169,1086,o),
(206,1086,cs),
(277,1086,l),
(277,84,l),
(206,84,ls),
(169,84,o),
(150,70,o),
(150,41,cs),
(150,29,o),
(154,19,o),
(163,11,c),
(180,4,o),
(195,0,o),
(206,-1,c)
);
},
{
closed = 1;
nodes = (
(632,1222,o),
(645,1229,o),
(660,1242,cs),
(896,1446,ls),
(913,1461,o),
(921,1474,o),
(921,1487,cs),
(921,1516,o),
(907,1530,o),
(878,1530,cs),
(861,1530,o),
(808,1490,o),
(719,1410,cs),
(636,1337,o),
(590,1294,o),
(582,1281,c),
(580,1275,o),
(579,1270,o),
(579,1265,cs),
(579,1236,o),
(593,1222,o),
(622,1222,cs)
);
}
);
width = 1241;
}
);
note = Eacute;
unicode = 201;
},
{
glyphname = Ecircumflex;
lastChange = "2025-02-10 17:39:32 +0000";
layers = (
{
background = {
shapes = (
{
closed = 1;
nodes = (
(893,1304,qs),
(622,1510,l),
(352,1304,ls),
(324,1283,o),
(324,1262,qs),
(324,1220,o),
(366,1220,qs),
(388,1220,o),
(499,1306,qs),
(560,1356,o),
(622,1406,q),
(684,1356,o),
(746,1307,qs),
(857,1220,o),
(878,1220,qs),
(921,1220,o),
(921,1262,qs),
(921,1283,o)
);
},
{
closed = 1;
nodes = (
(1091,211,o),
(1049,211,qs),
(1006,211,o),
(1006,157,qs),
(1006,155,l),
(1007,84,l),
(361,84,l),
(361,565,l),
(662,565,l),
(662,494,ls),
(662,438,o),
(705,438,qs),
(747,438,o),
(747,494,qs),
(747,720,ls),
(747,776,o),
(705,776,qs),
(662,776,o),
(662,720,qs),
(662,649,l),
(361,649,l),
(361,1086,l),
(963,1086,l),
(962,1015,l),
(962,1013,ls),
(962,959,o),
(1005,959,qs),
(1047,959,o),
(1047,1015,qs),
(1047,1170,l),
(206,1171,ls),
(150,1171,o),
(150,1129,qs),
(150,1086,o),
(206,1086,qs),
(277,1086,l),
(277,84,l),
(206,84,ls),
(150,84,o),
(150,41,qs),
(150,23,o),
(163,11,q),
(189,1,o),
(206,-1,q),
(1091,0,l),
(1091,155,ls)
);
}
);
};
layerId = m01;
shapes = (
{
closed = 1;
nodes = (
(1091,0,l),
(1091,155,ls),
(1091,192,o),
(1077,211,o),
(1049,211,cs),
(1020,211,o),
(1006,193,o),
(1006,157,cs),
(1006,155,l),
(1007,84,l),
(361,84,l),
(361,565,l),
(662,565,l),
(662,494,ls),
(662,457,o),
(676,438,o),
(705,438,cs),
(733,438,o),
(747,457,o),
(747,494,cs),
(747,720,ls),
(747,757,o),
(733,776,o),
(705,776,cs),
(676,776,o),
(662,757,o),
(662,720,cs),
(662,649,l),
(361,649,l),
(361,1086,l),
(963,1086,l),
(962,1015,l),
(962,1013,ls),
(962,977,o),
(976,959,o),
(1005,959,cs),
(1033,959,o),
(1047,978,o),
(1047,1015,cs),
(1047,1170,l),
(206,1171,ls),
(169,1171,o),
(150,1157,o),
(150,1129,cs),
(150,1100,o),
(169,1086,o),
(206,1086,cs),
(277,1086,l),
(277,84,l),
(206,84,ls),
(169,84,o),
(150,70,o),
(150,41,cs),
(150,29,o),
(154,19,o),
(163,11,c),
(180,4,o),
(195,0,o),
(206,-1,c)
);
},
{
closed = 1;
nodes = (
(381,1220,o),
(425,1249,o),
(499,1306,cs),
(622,1406,l),
(746,1307,ls),
(820,1249,o),
(864,1220,o),
(878,1220,cs),
(907,1220,o),
(921,1234,o),
(921,1262,cs),
(921,1276,o),
(912,1290,o),
(893,1304,cs),
(622,1510,l),
(352,1304,ls),
(333,1290,o),
(324,1276,o),
(324,1262,cs),
(324,1234,o),
(338,1220,o),
(366,1220,cs)
);
}
);
width = 1241;
}
);
note = Ecircumflex;
unicode = 202;
},
{
glyphname = Edieresis;
lastChange = "2025-02-10 17:39:32 +0000";
layers = (
{
background = {
shapes = (
{
closed = 1;
nodes = (
(817,1374,o),
(785,1374,qs),
(753,1374,o),
(708,1329,o),
(708,1297,qs),
(708,1265,o),
(753,1220,o),
(785,1220,qs),
(817,1220,o),
(862,1265,o),
(862,1297,qs),
(862,1328,o)
);
},
{
closed = 1;
nodes = (
(517,1374,o),
(485,1374,qs),
(453,1374,o),
(408,1329,o),
(408,1297,qs),
(408,1265,o),
(453,1220,o),
(485,1220,qs),
(517,1220,o),
(562,1265,o),
(562,1297,qs),
(562,1328,o)
);
},
{
closed = 1;
nodes = (
(1091,211,o),
(1049,211,qs),
(1006,211,o),
(1006,157,qs),
(1006,155,l),
(1007,84,l),
(361,84,l),
(361,565,l),
(662,565,l),
(662,494,ls),
(662,438,o),
(705,438,qs),
(747,438,o),
(747,494,qs),
(747,720,ls),
(747,776,o),
(705,776,qs),
(662,776,o),
(662,720,qs),
(662,649,l),
(361,649,l),
(361,1086,l),
(963,1086,l),
(962,1015,l),
(962,1013,ls),
(962,959,o),
(1005,959,qs),
(1047,959,o),
(1047,1015,qs),
(1047,1170,l),
(206,1171,ls),
(150,1171,o),
(150,1129,qs),
(150,1086,o),
(206,1086,qs),
(277,1086,l),
(277,84,l),
(206,84,ls),
(150,84,o),
(150,41,qs),
(150,23,o),
(163,11,q),
(189,1,o),
(206,-1,q),
(1091,0,l),
(1091,155,ls)
);
}
);
};
layerId = m01;
shapes = (
{
closed = 1;
nodes = (
(1091,0,l),
(1091,155,ls),
(1091,192,o),
(1077,211,o),
(1049,211,cs),
(1020,211,o),
(1006,193,o),
(1006,157,cs),
(1006,155,l),
(1007,84,l),
(361,84,l),
(361,565,l),
(662,565,l),
(662,494,ls),
(662,457,o),
(676,438,o),
(705,438,cs),
(733,438,o),
(747,457,o),
(747,494,cs),
(747,720,ls),
(747,757,o),
(733,776,o),
(705,776,cs),
(676,776,o),
(662,757,o),
(662,720,cs),
(662,649,l),
(361,649,l),
(361,1086,l),
(963,1086,l),
(962,1015,l),
(962,1013,ls),
(962,977,o),
(976,959,o),
(1005,959,cs),
(1033,959,o),
(1047,978,o),
(1047,1015,cs),
(1047,1170,l),
(206,1171,ls),
(169,1171,o),
(150,1157,o),
(150,1129,cs),
(150,1100,o),
(169,1086,o),
(206,1086,cs),
(277,1086,l),
(277,84,l),
(206,84,ls),
(169,84,o),
(150,70,o),
(150,41,cs),
(150,29,o),
(154,19,o),
(163,11,c),
(180,4,o),
(195,0,o),
(206,-1,c)
);
},
{
closed = 1;
nodes = (
(528,1220,o),
(562,1254,o),
(562,1297,cs),
(562,1338,o),
(528,1374,o),
(485,1374,cs),
(442,1374,o),
(408,1340,o),
(408,1297,cs),
(408,1254,o),
(442,1220,o),
(485,1220,cs)
);
},
{
closed = 1;
nodes = (
(828,1220,o),
(862,1254,o),
(862,1297,cs),
(862,1338,o),
(828,1374,o),
(785,1374,cs),
(742,1374,o),
(708,1340,o),
(708,1297,cs),
(708,1254,o),
(742,1220,o),
(785,1220,cs)
);
}
);
width = 1241;
}
);
note = Edieresis;
unicode = 203;
},
{
glyphname = Igrave;
lastChange = "2025-02-10 17:39:32 +0000";
layers = (
{
background = {
shapes = (
{
closed = 1;
nodes = (
(468,1281,q),
(456,1300,o),
(331,1410,qs),
(197,1530,o),
(172,1530,qs),
(129,1530,o),
(129,1487,qs),
(129,1468,o),
(154,1446,qs),
(390,1242,ls),
(413,1222,o),
(428,1222,qs),
(471,1222,o),
(471,1265,qs),
(471,1272,o)
);
},
{
closed = 1;
nodes = (
(432,84,qs),
(361,84,l),
(361,1086,l),
(432,1086,ls),
(488,1086,o),
(488,1129,qs),
(488,1171,o),
(432,1171,qs),
(206,1171,ls),
(150,1171,o),
(150,1129,qs),
(150,1086,o),
(206,1086,qs),
(277,1086,l),
(277,84,l),
(206,84,ls),
(150,84,o),
(150,41,qs),
(150,-1,o),
(206,-1,qs),
(432,-1,ls),
(488,-1,o),
(488,41,qs),
(488,84,o)
);
}
);
};
layerId = m01;
shapes = (
{
closed = 1;
nodes = (
(432,-1,ls),
(469,-1,o),
(488,13,o),
(488,41,cs),
(488,70,o),
(469,84,o),
(432,84,cs),
(361,84,l),
(361,1086,l),
(432,1086,ls),
(469,1086,o),
(488,1100,o),
(488,1129,cs),
(488,1157,o),
(469,1171,o),
(432,1171,cs),
(206,1171,ls),
(169,1171,o),
(150,1157,o),
(150,1129,cs),
(150,1100,o),
(169,1086,o),
(206,1086,cs),
(277,1086,l),
(277,84,l),
(206,84,ls),
(169,84,o),
(150,70,o),
(150,41,cs),
(150,13,o),
(169,-1,o),
(206,-1,cs)
);
},
{
closed = 1;
nodes = (
(457,1222,o),
(471,1236,o),
(471,1265,cs),
(471,1270,o),
(470,1275,o),
(468,1281,c),
(460,1294,o),
(414,1337,o),
(331,1410,cs),
(242,1490,o),
(189,1530,o),
(172,1530,cs),
(143,1530,o),
(129,1516,o),
(129,1487,cs),
(129,1474,o),
(137,1461,o),
(154,1446,cs),
(390,1242,ls),
(405,1229,o),
(418,1222,o),
(428,1222,cs)
);
}
);
width = 638;
}
);
note = Igrave;
unicode = 204;
},
{
glyphname = Iacute;
lastChange = "2025-02-10 17:39:32 +0000";
layers = (
{
background = {
shapes = (
{
closed = 1;
nodes = (
(468,1530,qs),
(443,1530,o),
(309,1410,qs),
(184,1300,o),
(172,1281,q),
(169,1272,o),
(169,1265,qs),
(169,1222,o),
(212,1222,qs),
(227,1222,o),
(250,1242,qs),
(486,1446,ls),
(511,1468,o),
(511,1487,qs),
(511,1530,o)
);
},
{
closed = 1;
nodes = (
(432,84,qs),
(361,84,l),
(361,1086,l),
(432,1086,ls),
(488,1086,o),
(488,1129,qs),
(488,1171,o),
(432,1171,qs),
(206,1171,ls),
(150,1171,o),
(150,1129,qs),
(150,1086,o),
(206,1086,qs),
(277,1086,l),
(277,84,l),
(206,84,ls),
(150,84,o),
(150,41,qs),
(150,-1,o),
(206,-1,qs),
(432,-1,ls),
(488,-1,o),
(488,41,qs),
(488,84,o)
);
}
);
};
layerId = m01;
shapes = (
{
closed = 1;
nodes = (
(432,-1,ls),
(469,-1,o),
(488,13,o),
(488,41,cs),
(488,70,o),
(469,84,o),
(432,84,cs),
(361,84,l),
(361,1086,l),
(432,1086,ls),
(469,1086,o),
(488,1100,o),
(488,1129,cs),
(488,1157,o),
(469,1171,o),
(432,1171,cs),
(206,1171,ls),
(169,1171,o),
(150,1157,o),
(150,1129,cs),
(150,1100,o),
(169,1086,o),
(206,1086,cs),
(277,1086,l),
(277,84,l),
(206,84,ls),
(169,84,o),
(150,70,o),
(150,41,cs),
(150,13,o),
(169,-1,o),
(206,-1,cs)
);
},
{
closed = 1;
nodes = (
(222,1222,o),
(235,1229,o),
(250,1242,cs),
(486,1446,ls),
(503,1461,o),
(511,1474,o),
(511,1487,cs),
(511,1516,o),
(497,1530,o),
(468,1530,cs),
(451,1530,o),
(398,1490,o),
(309,1410,cs),
(226,1337,o),
(180,1294,o),
(172,1281,c),
(170,1275,o),
(169,1270,o),
(169,1265,cs),
(169,1236,o),
(183,1222,o),
(212,1222,cs)
);
}
);
width = 638;
}
);
note = Iacute;
unicode = 205;
},
{
glyphname = Icircumflex;
lastChange = "2025-02-10 17:39:32 +0000";
layers = (
{
background = {
shapes = (
{
closed = 1;
nodes = (
(593,1304,qs),
(322,1510,l),
(52,1304,ls),
(24,1283,o),
(24,1262,qs),
(24,1220,o),
(66,1220,qs),
(88,1220,o),
(199,1306,qs),
(260,1356,o),
(322,1406,q),
(384,1356,o),
(446,1307,qs),
(557,1220,o),
(578,1220,qs),
(621,1220,o),
(621,1262,qs),
(621,1283,o)
);
},
{
closed = 1;
nodes = (
(432,84,qs),
(361,84,l),
(361,1086,l),
(432,1086,ls),
(488,1086,o),
(488,1129,qs),
(488,1171,o),
(432,1171,qs),
(206,1171,ls),
(150,1171,o),
(150,1129,qs),
(150,1086,o),
(206,1086,qs),
(277,1086,l),
(277,84,l),
(206,84,ls),
(150,84,o),
(150,41,qs),
(150,-1,o),
(206,-1,qs),
(432,-1,ls),
(488,-1,o),
(488,41,qs),
(488,84,o)
);
}
);
};
layerId = m01;
shapes = (
{
closed = 1;
nodes = (
(432,-1,ls),
(469,-1,o),
(488,13,o),
(488,41,cs),
(488,70,o),
(469,84,o),
(432,84,cs),
(361,84,l),
(361,1086,l),
(432,1086,ls),
(469,1086,o),
(488,1100,o),
(488,1129,cs),
(488,1157,o),
(469,1171,o),
(432,1171,cs),
(206,1171,ls),
(169,1171,o),
(150,1157,o),
(150,1129,cs),
(150,1100,o),
(169,1086,o),
(206,1086,cs),
(277,1086,l),
(277,84,l),
(206,84,ls),
(169,84,o),
(150,70,o),
(150,41,cs),
(150,13,o),
(169,-1,o),
(206,-1,cs)
);
},
{
closed = 1;
nodes = (
(81,1220,o),
(125,1249,o),
(199,1306,cs),
(322,1406,l),
(446,1307,ls),
(520,1249,o),
(564,1220,o),
(578,1220,cs),
(607,1220,o),
(621,1234,o),
(621,1262,cs),
(621,1276,o),
(612,1290,o),
(593,1304,cs),
(322,1510,l),
(52,1304,ls),
(33,1290,o),
(24,1276,o),
(24,1262,cs),
(24,1234,o),
(38,1220,o),
(66,1220,cs)
);
}
);
width = 638;
}
);
note = Icircumflex;
unicode = 206;
},
{
glyphname = Idieresis;
lastChange = "2025-02-10 17:39:32 +0000";
layers = (
{
background = {
shapes = (
{
closed = 1;
nodes = (
(507,1374,o),
(475,1374,qs),
(443,1374,o),
(398,1329,o),
(398,1297,qs),
(398,1265,o),
(443,1220,o),
(475,1220,qs),
(507,1220,o),
(552,1265,o),
(552,1297,qs),
(552,1328,o)
);
},
{
closed = 1;
nodes = (
(207,1374,o),
(175,1374,qs),
(143,1374,o),
(98,1329,o),
(98,1297,qs),
(98,1265,o),
(143,1220,o),
(175,1220,qs),
(207,1220,o),
(252,1265,o),
(252,1297,qs),
(252,1328,o)
);
},
{
closed = 1;
nodes = (
(432,84,qs),
(361,84,l),
(361,1086,l),
(432,1086,ls),
(488,1086,o),
(488,1129,qs),
(488,1171,o),
(432,1171,qs),
(206,1171,ls),
(150,1171,o),
(150,1129,qs),
(150,1086,o),
(206,1086,qs),
(277,1086,l),
(277,84,l),
(206,84,ls),
(150,84,o),
(150,41,qs),
(150,-1,o),
(206,-1,qs),
(432,-1,ls),
(488,-1,o),
(488,41,qs),
(488,84,o)
);
}
);
};
layerId = m01;
shapes = (
{
closed = 1;
nodes = (
(432,-1,ls),
(469,-1,o),
(488,13,o),
(488,41,cs),
(488,70,o),
(469,84,o),
(432,84,cs),
(361,84,l),
(361,1086,l),
(432,1086,ls),
(469,1086,o),
(488,1100,o),
(488,1129,cs),
(488,1157,o),
(469,1171,o),
(432,1171,cs),
(206,1171,ls),
(169,1171,o),
(150,1157,o),
(150,1129,cs),
(150,1100,o),
(169,1086,o),
(206,1086,cs),
(277,1086,l),
(277,84,l),
(206,84,ls),
(169,84,o),
(150,70,o),
(150,41,cs),
(150,13,o),
(169,-1,o),
(206,-1,cs)
);
},
{
closed = 1;
nodes = (
(218,1220,o),
(252,1254,o),
(252,1297,cs),
(252,1338,o),
(218,1374,o),
(175,1374,cs),
(132,1374,o),
(98,1340,o),
(98,1297,cs),
(98,1254,o),
(132,1220,o),
(175,1220,cs)
);
},
{
closed = 1;
nodes = (
(518,1220,o),
(552,1254,o),
(552,1297,cs),
(552,1338,o),
(518,1374,o),
(475,1374,cs),
(432,1374,o),
(398,1340,o),
(398,1297,cs),
(398,1254,o),
(432,1220,o),
(475,1220,cs)
);
}
);
width = 638;
}
);
note = Idieresis;
unicode = 207;
},
{
glyphname = Eth;
lastChange = "2025-02-10 17:39:32 +0000";
layers = (
{
background = {
shapes = (
{
closed = 1;
nodes = (
(1105,825,qs),
(974,1170,o),
(658,1170,qs),
(206,1169,ls),
(150,1169,o),
(150,1127,qs),
(150,1084,o),
(206,1084,qs),
(277,1084,l),
(277,627,l),
(206,627,ls),
(150,627,o),
(150,585,qs),
(150,543,o),
(206,543,qs),
(277,543,l),
(277,84,l),
(206,84,ls),
(150,84,o),
(150,41,qs),
(150,23,o),
(163,11,q),
(189,1,o),
(206,-1,q),
(658,0,ls),
(862,0,o),
(1001,164,qs),
(1134,320,o),
(1134,527,qs),
(1134,749,o)
);
},
{
closed = 1;
nodes = (
(938,220,qs),
(821,84,o),
(666,84,qs),
(361,84,l),
(361,543,l),
(435,543,ls),
(491,543,o),
(491,585,qs),
(491,627,o),
(435,627,qs),
(361,627,l),
(361,1086,l),
(666,1086,ls),
(823,1086,o),
(939,950,qs),
(1050,820,o),
(1050,661,qs),
(1050,509,ls),
(1050,351,o)
);
}
);
};
layerId = m01;
shapes = (
{
closed = 1;
nodes = (
(658,0,ls),
(794,0,o),
(908,55,o),
(1001,164,cs),
(1090,268,o),
(1134,389,o),
(1134,527,cs),
(1134,675,o),
(1124,774,o),
(1105,825,cs),
(1018,1055,o),
(869,1170,o),
(658,1170,cs),
(206,1169,ls),
(169,1169,o),
(150,1155,o),
(150,1127,cs),
(150,1098,o),
(169,1084,o),
(206,1084,cs),
(277,1084,l),
(277,627,l),
(206,627,ls),
(169,627,o),
(150,613,o),
(150,585,cs),
(150,557,o),
(169,543,o),
(206,543,cs),
(277,543,l),
(277,84,l),
(206,84,ls),
(169,84,o),
(150,70,o),
(150,41,cs),
(150,29,o),
(154,19,o),
(163,11,c),
(180,4,o),
(195,0,o),
(206,-1,c)
);
},
{
closed = 1;
nodes = (
(361,543,l),
(435,543,ls),
(472,543,o),
(491,557,o),
(491,585,cs),
(491,613,o),
(472,627,o),
(435,627,cs),
(361,627,l),
(361,1086,l),
(666,1086,ls),
(771,1086,o),
(862,1041,o),
(939,950,cs),
(1013,863,o),
(1050,767,o),
(1050,661,cs),
(1050,509,ls),
(1050,404,o),
(1013,307,o),
(938,220,cs),
(860,129,o),
(769,84,o),
(666,84,cs),
(361,84,l)
);
}
);
width = 1283;
}
);
note = Eth;
unicode = 208;
},
{
glyphname = Ntilde;
lastChange = "2025-02-10 17:39:32 +0000";
layers = (
{
background = {
shapes = (
{
closed = 1;
nodes = (
(948,1386,qs),
(934,1386,o),
(833,1305,o),
(803,1305,qs),
(772,1305,o),
(593,1426,o),
(539,1426,qs),
(495,1426,o),
(426,1384,qs),
(352,1339,o),
(352,1301,qs),
(352,1261,o),
(393,1261,qs),
(409,1261,o),
(506,1342,o),
(540,1342,qs),
(567,1342,o),
(747,1220,o),
(803,1220,qs),
(848,1220,o),
(916,1262,qs),
(990,1307,o),
(990,1347,qs),
(990,1386,o)
);
},
{
closed = 1;
nodes = (
(1159,1171,qs),
(933,1171,ls),
(877,1171,o),
(877,1129,qs),
(877,1086,o),
(933,1086,qs),
(1004,1086,l),
(1004,121,l),
(384,1170,l),
(206,1171,ls),
(150,1171,o),
(150,1129,qs),
(150,1086,o),
(206,1086,qs),
(277,1086,l),
(277,84,l),
(206,84,ls),
(150,84,o),
(150,41,qs),
(150,-1,o),
(206,-1,qs),
(432,-1,ls),
(488,-1,o),
(488,41,qs),
(488,84,o),
(432,84,qs),
(361,84,l),
(361,1047,l),
(980,0,l),
(1088,0,l),
(1088,1086,l),
(1159,1086,ls),
(1215,1086,o),
(1215,1129,qs),
(1215,1171,o)
);
}
);
};
layerId = m01;
shapes = (
{
closed = 1;
nodes = (
(432,-1,ls),
(469,-1,o),
(488,13,o),
(488,41,cs),
(488,70,o),
(469,84,o),
(432,84,cs),
(361,84,l),
(361,1047,l),
(980,0,l),
(1088,0,l),
(1088,1086,l),
(1159,1086,ls),
(1196,1086,o),
(1215,1100,o),
(1215,1129,cs),
(1215,1157,o),
(1196,1171,o),
(1159,1171,cs),
(933,1171,ls),
(896,1171,o),
(877,1157,o),
(877,1129,cs),
(877,1100,o),
(896,1086,o),
(933,1086,cs),
(1004,1086,l),
(1004,121,l),
(384,1170,l),
(206,1171,ls),
(169,1171,o),
(150,1157,o),
(150,1129,cs),
(150,1100,o),
(169,1086,o),
(206,1086,cs),
(277,1086,l),
(277,84,l),
(206,84,ls),
(169,84,o),
(150,70,o),
(150,41,cs),
(150,13,o),
(169,-1,o),
(206,-1,cs)
);
},
{
closed = 1;
nodes = (
(833,1220,o),
(871,1234,o),
(916,1262,cs),
(965,1292,o),
(990,1320,o),
(990,1347,cs),
(990,1373,o),
(976,1386,o),
(948,1386,cs),
(939,1386,o),
(917,1373,o),
(884,1346,cs),
(850,1319,o),
(823,1305,o),
(803,1305,cs),
(782,1305,o),
(742,1325,o),
(683,1366,cs),
(623,1406,o),
(575,1426,o),
(539,1426,cs),
(510,1426,o),
(472,1412,o),
(426,1384,cs),
(377,1354,o),
(352,1326,o),
(352,1301,cs),
(352,1274,o),
(366,1261,o),
(393,1261,cs),
(404,1261,o),
(425,1275,o),
(458,1302,cs),
(490,1329,o),
(517,1342,o),
(540,1342,cs),
(558,1342,o),
(597,1322,o),
(657,1281,cs),
(717,1240,o),
(766,1220,o),
(803,1220,cs)
);
}
);
width = 1364;
}
);
note = Ntilde;
unicode = 209;
},
{
glyphname = Ograve;
lastChange = "2025-02-10 17:39:32 +0000";
layers = (
{
background = {
shapes = (
{
closed = 1;
nodes = (
(698,1311,q),
(686,1330,o),
(561,1440,qs),
(427,1560,o),
(402,1560,qs),
(359,1560,o),
(359,1517,qs),
(359,1498,o),
(384,1476,qs),
(620,1272,ls),
(643,1252,o),
(658,1252,qs),
(701,1252,o),
(701,1295,qs),
(701,1302,o)
);
},
{
closed = 1;
nodes = (
(1040,1002,qs),
(894,1199,o),
(662,1199,qs),
(430,1199,o),
(283,1002,qs),
(150,823,o),
(150,584,qs),
(150,345,o),
(283,166,qs),
(430,-31,o),
(662,-31,qs),
(894,-31,o),
(1041,166,qs),
(1174,344,o),
(1174,584,qs),
(1174,823,o)
);
},
{
closed = 1;
nodes = (
(979,226,qs),
(856,53,o),
(662,53,qs),
(468,53,o),
(345,227,qs),
(234,383,o),
(234,584,qs),
(234,786,o),
(345,941,qs),
(468,1115,o),
(662,1115,qs),
(856,1115,o),
(979,942,qs),
(1089,786,o),
(1089,584,qs),
(1089,381,o)
);
}
);
};
layerId = m01;
shapes = (
{
closed = 1;
nodes = (
(817,-31,o),
(943,35,o),
(1041,166,cs),
(1130,285,o),
(1174,424,o),
(1174,584,cs),
(1174,743,o),
(1129,883,o),
(1040,1002,cs),
(943,1133,o),
(817,1199,o),
(662,1199,cs),
(507,1199,o),
(381,1133,o),
(283,1002,cs),
(194,883,o),
(150,743,o),
(150,584,cs),
(150,425,o),
(194,285,o),
(283,166,cs),
(381,35,o),
(507,-31,o),
(662,-31,cs)
);
},
{
closed = 1;
nodes = (
(533,53,o),
(427,111,o),
(345,227,cs),
(271,331,o),
(234,450,o),
(234,584,cs),
(234,719,o),
(271,838,o),
(345,941,cs),
(427,1057,o),
(533,1115,o),
(662,1115,cs),
(791,1115,o),
(897,1057,o),
(979,942,cs),
(1052,838,o),
(1089,719,o),
(1089,584,cs),
(1089,449,o),
(1052,329,o),
(979,226,cs),
(897,111,o),
(791,53,o),
(662,53,cs)
);
},
{
closed = 1;
nodes = (
(687,1252,o),
(701,1266,o),
(701,1295,cs),
(701,1300,o),
(700,1305,o),
(698,1311,c),
(690,1324,o),
(644,1367,o),
(561,1440,cs),
(472,1520,o),
(419,1560,o),
(402,1560,cs),
(373,1560,o),
(359,1546,o),
(359,1517,cs),
(359,1504,o),
(367,1491,o),
(384,1476,cs),
(620,1272,ls),
(635,1259,o),
(648,1252,o),
(658,1252,cs)
);
}
);
width = 1324;
}
);
note = Ograve;
unicode = 210;
},
{
glyphname = Oacute;
lastChange = "2025-02-10 17:39:32 +0000";
layers = (
{
background = {
shapes = (
{
closed = 1;
nodes = (
(918,1560,qs),
(893,1560,o),
(759,1440,qs),
(634,1330,o),
(622,1311,q),
(619,1302,o),
(619,1295,qs),
(619,1252,o),
(662,1252,qs),
(677,1252,o),
(700,1272,qs),
(936,1476,ls),
(961,1498,o),
(961,1517,qs),
(961,1560,o)
);
},
{
closed = 1;
nodes = (
(1040,1002,qs),
(894,1199,o),
(662,1199,qs),
(430,1199,o),
(283,1002,qs),
(150,823,o),
(150,584,qs),
(150,345,o),
(283,166,qs),
(430,-31,o),
(662,-31,qs),
(894,-31,o),
(1041,166,qs),
(1174,344,o),
(1174,584,qs),
(1174,823,o)
);
},
{
closed = 1;
nodes = (
(979,226,qs),
(856,53,o),
(662,53,qs),
(468,53,o),
(345,227,qs),
(234,383,o),
(234,584,qs),
(234,786,o),
(345,941,qs),
(468,1115,o),
(662,1115,qs),
(856,1115,o),
(979,942,qs),
(1089,786,o),
(1089,584,qs),
(1089,381,o)
);
}
);
};
layerId = m01;
shapes = (
{
closed = 1;
nodes = (
(817,-31,o),
(943,35,o),
(1041,166,cs),
(1130,285,o),
(1174,424,o),
(1174,584,cs),
(1174,743,o),
(1129,883,o),
(1040,1002,cs),
(943,1133,o),
(817,1199,o),
(662,1199,cs),
(507,1199,o),
(381,1133,o),
(283,1002,cs),
(194,883,o),
(150,743,o),
(150,584,cs),
(150,425,o),
(194,285,o),
(283,166,cs),
(381,35,o),
(507,-31,o),
(662,-31,cs)
);
},
{
closed = 1;
nodes = (
(533,53,o),
(427,111,o),
(345,227,cs),
(271,331,o),
(234,450,o),
(234,584,cs),
(234,719,o),
(271,838,o),
(345,941,cs),
(427,1057,o),
(533,1115,o),
(662,1115,cs),
(791,1115,o),
(897,1057,o),
(979,942,cs),
(1052,838,o),
(1089,719,o),
(1089,584,cs),
(1089,449,o),
(1052,329,o),
(979,226,cs),
(897,111,o),
(791,53,o),
(662,53,cs)
);
},
{
closed = 1;
nodes = (
(672,1252,o),
(685,1259,o),
(700,1272,cs),
(936,1476,ls),
(953,1491,o),
(961,1504,o),
(961,1517,cs),
(961,1546,o),
(947,1560,o),
(918,1560,cs),
(901,1560,o),
(848,1520,o),
(759,1440,cs),
(676,1367,o),
(630,1324,o),
(622,1311,c),
(620,1305,o),
(619,1300,o),
(619,1295,cs),
(619,1266,o),
(633,1252,o),
(662,1252,cs)
);
}
);
width = 1324;
}
);
note = Oacute;
unicode = 211;
},
{
glyphname = Ocircumflex;
lastChange = "2025-02-10 17:39:32 +0000";
layers = (
{
background = {
shapes = (
{
closed = 1;
nodes = (
(923,1324,qs),
(652,1530,l),
(382,1324,ls),
(354,1303,o),
(354,1282,qs),
(354,1240,o),
(396,1240,qs),
(418,1240,o),
(529,1326,qs),
(590,1376,o),
(652,1426,q),
(714,1376,o),
(776,1327,qs),
(887,1240,o),
(908,1240,qs),
(951,1240,o),
(951,1282,qs),
(951,1303,o)
);
},
{
closed = 1;
nodes = (
(1040,1002,qs),
(894,1199,o),
(662,1199,qs),
(430,1199,o),
(283,1002,qs),
(150,823,o),
(150,584,qs),
(150,345,o),
(283,166,qs),
(430,-31,o),
(662,-31,qs),
(894,-31,o),
(1041,166,qs),
(1174,344,o),
(1174,584,qs),
(1174,823,o)
);
},
{
closed = 1;
nodes = (
(979,226,qs),
(856,53,o),
(662,53,qs),
(468,53,o),
(345,227,qs),
(234,383,o),
(234,584,qs),
(234,786,o),
(345,941,qs),
(468,1115,o),
(662,1115,qs),
(856,1115,o),
(979,942,qs),
(1089,786,o),
(1089,584,qs),
(1089,381,o)
);
}
);
};
layerId = m01;
shapes = (
{
closed = 1;
nodes = (
(817,-31,o),
(943,35,o),
(1041,166,cs),
(1130,285,o),
(1174,424,o),
(1174,584,cs),
(1174,743,o),
(1129,883,o),
(1040,1002,cs),
(943,1133,o),
(817,1199,o),
(662,1199,cs),
(507,1199,o),
(381,1133,o),
(283,1002,cs),
(194,883,o),
(150,743,o),
(150,584,cs),
(150,425,o),
(194,285,o),
(283,166,cs),
(381,35,o),
(507,-31,o),
(662,-31,cs)
);
},
{
closed = 1;
nodes = (
(533,53,o),
(427,111,o),
(345,227,cs),
(271,331,o),
(234,450,o),
(234,584,cs),
(234,719,o),
(271,838,o),
(345,941,cs),
(427,1057,o),
(533,1115,o),
(662,1115,cs),
(791,1115,o),
(897,1057,o),
(979,942,cs),
(1052,838,o),
(1089,719,o),
(1089,584,cs),
(1089,449,o),
(1052,329,o),
(979,226,cs),
(897,111,o),
(791,53,o),
(662,53,cs)
);
},
{
closed = 1;
nodes = (
(411,1240,o),
(455,1269,o),
(529,1326,cs),
(652,1426,l),
(776,1327,ls),
(850,1269,o),
(894,1240,o),
(908,1240,cs),
(937,1240,o),
(951,1254,o),
(951,1282,cs),
(951,1296,o),
(942,1310,o),
(923,1324,cs),
(652,1530,l),
(382,1324,ls),
(363,1310,o),
(354,1296,o),
(354,1282,cs),
(354,1254,o),
(368,1240,o),
(396,1240,cs)
);
}
);
width = 1324;
}
);
note = Ocircumflex;
unicode = 212;
},
{
glyphname = Otilde;
lastChange = "2025-02-10 17:39:32 +0000";
layers = (
{
background = {
shapes = (
{
closed = 1;
nodes = (
(948,1406,qs),
(934,1406,o),
(833,1325,o),
(803,1325,qs),
(772,1325,o),
(593,1446,o),
(539,1446,qs),
(495,1446,o),
(426,1404,qs),
(352,1359,o),
(352,1321,qs),
(352,1281,o),
(393,1281,qs),
(409,1281,o),
(506,1362,o),
(540,1362,qs),
(567,1362,o),
(747,1240,o),
(803,1240,qs),
(848,1240,o),
(916,1282,qs),
(990,1327,o),
(990,1367,qs),
(990,1406,o)
);
},
{
closed = 1;
nodes = (
(1040,1002,qs),
(894,1199,o),
(662,1199,qs),
(430,1199,o),
(283,1002,qs),
(150,823,o),
(150,584,qs),
(150,345,o),
(283,166,qs),
(430,-31,o),
(662,-31,qs),
(894,-31,o),
(1041,166,qs),
(1174,344,o),
(1174,584,qs),
(1174,823,o)
);
},
{
closed = 1;
nodes = (
(979,226,qs),
(856,53,o),
(662,53,qs),
(468,53,o),
(345,227,qs),
(234,383,o),
(234,584,qs),
(234,786,o),
(345,941,qs),
(468,1115,o),
(662,1115,qs),
(856,1115,o),
(979,942,qs),
(1089,786,o),
(1089,584,qs),
(1089,381,o)
);
}
);
};
layerId = m01;
shapes = (
{
closed = 1;
nodes = (
(817,-31,o),
(943,35,o),
(1041,166,cs),
(1130,285,o),
(1174,424,o),
(1174,584,cs),
(1174,743,o),
(1129,883,o),
(1040,1002,cs),
(943,1133,o),
(817,1199,o),
(662,1199,cs),
(507,1199,o),
(381,1133,o),
(283,1002,cs),
(194,883,o),
(150,743,o),
(150,584,cs),
(150,425,o),
(194,285,o),
(283,166,cs),
(381,35,o),
(507,-31,o),
(662,-31,cs)
);
},
{
closed = 1;
nodes = (
(533,53,o),
(427,111,o),
(345,227,cs),
(271,331,o),
(234,450,o),
(234,584,cs),
(234,719,o),
(271,838,o),
(345,941,cs),
(427,1057,o),
(533,1115,o),
(662,1115,cs),
(791,1115,o),
(897,1057,o),
(979,942,cs),
(1052,838,o),
(1089,719,o),
(1089,584,cs),
(1089,449,o),
(1052,329,o),
(979,226,cs),
(897,111,o),
(791,53,o),
(662,53,cs)
);
},
{
closed = 1;
nodes = (
(833,1240,o),
(871,1254,o),
(916,1282,cs),
(965,1312,o),
(990,1340,o),
(990,1367,cs),
(990,1393,o),
(976,1406,o),
(948,1406,cs),
(939,1406,o),
(917,1393,o),
(884,1366,cs),
(850,1339,o),
(823,1325,o),
(803,1325,cs),
(782,1325,o),
(742,1345,o),
(683,1386,cs),
(623,1426,o),
(575,1446,o),
(539,1446,cs),
(510,1446,o),
(472,1432,o),
(426,1404,cs),
(377,1374,o),
(352,1346,o),
(352,1321,cs),
(352,1294,o),
(366,1281,o),
(393,1281,cs),
(404,1281,o),
(425,1295,o),
(458,1322,cs),
(490,1349,o),
(517,1362,o),
(540,1362,cs),
(558,1362,o),
(597,1342,o),
(657,1301,cs),
(717,1260,o),
(766,1240,o),
(803,1240,cs)
);
}
);
width = 1324;
}
);
note = Otilde;
unicode = 213;
},
{
glyphname = Odieresis;
lastChange = "2025-02-10 17:39:32 +0000";
layers = (
{
background = {
shapes = (
{
closed = 1;
nodes = (
(837,1394,o),
(805,1394,qs),
(773,1394,o),
(728,1349,o),
(728,1317,qs),
(728,1285,o),
(773,1240,o),
(805,1240,qs),
(837,1240,o),
(882,1285,o),
(882,1317,qs),
(882,1348,o)
);
},
{
closed = 1;
nodes = (
(537,1394,o),
(505,1394,qs),
(473,1394,o),
(428,1349,o),
(428,1317,qs),
(428,1285,o),
(473,1240,o),
(505,1240,qs),
(537,1240,o),
(582,1285,o),
(582,1317,qs),
(582,1348,o)
);
},
{
closed = 1;
nodes = (
(1040,1002,qs),
(894,1199,o),
(662,1199,qs),
(430,1199,o),
(283,1002,qs),
(150,823,o),
(150,584,qs),
(150,345,o),
(283,166,qs),
(430,-31,o),
(662,-31,qs),
(894,-31,o),
(1041,166,qs),
(1174,344,o),
(1174,584,qs),
(1174,823,o)
);
},
{
closed = 1;
nodes = (
(979,226,qs),
(856,53,o),
(662,53,qs),
(468,53,o),
(345,227,qs),
(234,383,o),
(234,584,qs),
(234,786,o),
(345,941,qs),
(468,1115,o),
(662,1115,qs),
(856,1115,o),
(979,942,qs),
(1089,786,o),
(1089,584,qs),
(1089,381,o)
);
}
);
};
layerId = m01;
shapes = (
{
closed = 1;
nodes = (
(817,-31,o),
(943,35,o),
(1041,166,cs),
(1130,285,o),
(1174,424,o),
(1174,584,cs),
(1174,743,o),
(1129,883,o),
(1040,1002,cs),
(943,1133,o),
(817,1199,o),
(662,1199,cs),
(507,1199,o),
(381,1133,o),
(283,1002,cs),
(194,883,o),
(150,743,o),
(150,584,cs),
(150,425,o),
(194,285,o),
(283,166,cs),
(381,35,o),
(507,-31,o),
(662,-31,cs)
);
},
{
closed = 1;
nodes = (
(533,53,o),
(427,111,o),
(345,227,cs),
(271,331,o),
(234,450,o),
(234,584,cs),
(234,719,o),
(271,838,o),
(345,941,cs),
(427,1057,o),
(533,1115,o),
(662,1115,cs),
(791,1115,o),
(897,1057,o),
(979,942,cs),
(1052,838,o),
(1089,719,o),
(1089,584,cs),
(1089,449,o),
(1052,329,o),
(979,226,cs),
(897,111,o),
(791,53,o),
(662,53,cs)
);
},
{
closed = 1;
nodes = (
(548,1240,o),
(582,1274,o),
(582,1317,cs),
(582,1358,o),
(548,1394,o),
(505,1394,cs),
(462,1394,o),
(428,1360,o),
(428,1317,cs),
(428,1274,o),
(462,1240,o),
(505,1240,cs)
);
},
{
closed = 1;
nodes = (
(848,1240,o),
(882,1274,o),
(882,1317,cs),
(882,1358,o),
(848,1394,o),
(805,1394,cs),
(762,1394,o),
(728,1360,o),
(728,1317,cs),
(728,1274,o),
(762,1240,o),
(805,1240,cs)
);
}
);
width = 1324;
}
);
note = Odieresis;
unicode = 214;
},
{
glyphname = multiply;
lastChange = "2025-02-10 17:39:32 +0000";
layers = (
{
background = {
shapes = (
{
closed = 1;
nodes = (
(818,322,qs),
(555,585,l),
(816,846,ls),
(838,868,o),
(838,885,qs),
(838,928,o),
(796,928,qs),
(778,928,o),
(756,906,qs),
(495,644,l),
(232,907,ls),
(209,930,o),
(193,930,qs),
(150,930,o),
(150,887,qs),
(150,870,o),
(172,848,qs),
(435,585,l),
(173,322,ls),
(150,299,o),
(150,283,qs),
(150,240,o),
(193,240,qs),
(210,240,o),
(232,262,qs),
(495,525,l),
(758,262,ls),
(781,239,o),
(797,239,qs),
(840,239,o),
(840,282,qs),
(840,300,o)
);
}
);
};
layerId = m01;
shapes = (
{
closed = 1;
nodes = (
(826,239,o),
(840,253,o),
(840,282,cs),
(840,294,o),
(833,307,o),
(818,322,cs),
(555,585,l),
(816,846,ls),
(831,861,o),
(838,874,o),
(838,885,cs),
(838,914,o),
(824,928,o),
(796,928,cs),
(784,928,o),
(771,921,o),
(756,906,cs),
(495,644,l),
(232,907,ls),
(217,922,o),
(204,930,o),
(193,930,cs),
(164,930,o),
(150,916,o),
(150,887,cs),
(150,876,o),
(157,863,o),
(172,848,cs),
(435,585,l),
(173,322,ls),
(158,307,o),
(150,294,o),
(150,283,cs),
(150,254,o),
(164,240,o),
(193,240,cs),
(204,240,o),
(217,247,o),
(232,262,cs),
(495,525,l),
(758,262,ls),
(773,247,o),
(786,239,o),
(797,239,cs)
);
}
);
width = 985;
}
);
note = multiply;
unicode = 215;
},
{
glyphname = Oslash;
lastChange = "2025-02-10 17:39:32 +0000";
layers = (
{
background = {
shapes = (
{
closed = 1;
nodes = (
(1153,1251,qs),
(1127,1251,o),
(1062,1169,qs),
(1023,1115,o),
(984,1062,q),
(845,1196,o),
(662,1196,qs),
(430,1196,o),
(283,999,qs),
(150,820,o),
(150,580,qs),
(150,349,o),
(281,168,q),
(126,-29,o),
(126,-42,qs),
(126,-85,o),
(169,-85,qs),
(194,-85,o),
(259,-3,qs),
(298,50,o),
(337,103,q),
(478,-34,o),
(662,-34,qs),
(893,-34,o),
(1040,163,qs),
(1174,343,o),
(1174,581,qs),
(1174,821,o),
(1041,998,q),
(1195,1194,o),
(1195,1208,qs),
(1195,1251,o)
);
},
{
closed = 1;
nodes = (
(234,390,o),
(234,581,qs),
(234,782,o),
(345,938,qs),
(468,1112,o),
(662,1112,qs),
(809,1112,o),
(930,994,q),
(336,238,l)
);
},
{
closed = 1;
nodes = (
(979,224,qs),
(855,50,o),
(662,50,qs),
(511,50,o),
(390,171,q),
(986,928,l),
(1089,777,o),
(1089,581,qs),
(1089,380,o)
);
}
);
};
layerId = m01;
shapes = (
{
closed = 1;
nodes = (
(186,-85,o),
(216,-58,o),
(259,-3,cs),
(337,103,l),
(431,12,o),
(539,-34,o),
(662,-34,cs),
(816,-34,o),
(942,32,o),
(1040,163,cs),
(1129,283,o),
(1174,422,o),
(1174,581,cs),
(1174,741,o),
(1130,880,o),
(1041,998,c),
(1144,1129,o),
(1195,1199,o),
(1195,1208,cs),
(1195,1237,o),
(1181,1251,o),
(1153,1251,cs),
(1136,1251,o),
(1105,1224,o),
(1062,1169,cs),
(984,1062,l),
(891,1151,o),
(784,1196,o),
(662,1196,cs),
(507,1196,o),
(381,1130,o),
(283,999,cs),
(194,880,o),
(150,740,o),
(150,580,cs),
(150,426,o),
(194,289,o),
(281,168,c),
(178,37,o),
(126,-33,o),
(126,-42,cs),
(126,-71,o),
(140,-85,o),
(169,-85,cs)
);
},
{
closed = 1;
nodes = (
(561,50,o),
(471,90,o),
(390,171,c),
(986,928,l),
(1055,827,o),
(1089,712,o),
(1089,581,cs),
(1089,447,o),
(1052,328,o),
(979,224,cs),
(896,108,o),
(791,50,o),
(662,50,cs)
);
},
{
closed = 1;
nodes = (
(268,339,o),
(234,454,o),
(234,581,cs),
(234,715,o),
(271,834,o),
(345,938,cs),
(427,1054,o),
(533,1112,o),
(662,1112,cs),
(760,1112,o),
(849,1073,o),
(930,994,c),
(336,238,l)
);
}
);
width = 1324;
}
);
note = Oslash;
unicode = 216;
},
{
glyphname = Ugrave;
lastChange = "2025-02-10 17:39:32 +0000";
layers = (
{
background = {
shapes = (
{
closed = 1;
nodes = (
(698,1311,q),
(686,1330,o),
(561,1440,qs),
(427,1560,o),
(402,1560,qs),
(359,1560,o),
(359,1517,qs),
(359,1498,o),
(384,1476,qs),
(620,1272,ls),
(643,1252,o),
(658,1252,qs),
(701,1252,o),
(701,1295,qs),
(701,1302,o)
);
},
{
closed = 1;
nodes = (
(1159,1172,qs),
(933,1172,ls),
(877,1172,o),
(877,1130,qs),
(877,1087,o),
(933,1087,qs),
(1004,1087,l),
(1004,385,ls),
(1004,250,o),
(816,52,o),
(681,52,qs),
(546,52,o),
(453,152,qs),
(361,249,o),
(361,385,qs),
(361,1087,l),
(432,1087,ls),
(488,1087,o),
(488,1130,qs),
(488,1172,o),
(432,1172,qs),
(206,1172,ls),
(150,1172,o),
(150,1130,qs),
(150,1087,o),
(206,1087,qs),
(277,1087,l),
(277,385,ls),
(277,211,o),
(512,-32,o),
(685,-32,qs),
(857,-32,o),
(974,91,qs),
(1088,211,o),
(1088,385,qs),
(1088,1087,l),
(1159,1087,ls),
(1215,1087,o),
(1215,1130,qs),
(1215,1172,o)
);
}
);
};
layerId = m01;
shapes = (
{
closed = 1;
nodes = (
(800,-32,o),
(896,9,o),
(974,91,cs),
(1050,171,o),
(1088,269,o),
(1088,385,cs),
(1088,1087,l),
(1159,1087,ls),
(1196,1087,o),
(1215,1101,o),
(1215,1130,cs),
(1215,1158,o),
(1196,1172,o),
(1159,1172,cs),
(933,1172,ls),
(896,1172,o),
(877,1158,o),
(877,1130,cs),
(877,1101,o),
(896,1087,o),
(933,1087,cs),
(1004,1087,l),
(1004,385,ls),
(1004,205,o),
(861,52,o),
(681,52,cs),
(591,52,o),
(515,85,o),
(453,152,cs),
(392,217,o),
(361,294,o),
(361,385,cs),
(361,1087,l),
(432,1087,ls),
(469,1087,o),
(488,1101,o),
(488,1130,cs),
(488,1158,o),
(469,1172,o),
(432,1172,cs),
(206,1172,ls),
(169,1172,o),
(150,1158,o),
(150,1130,cs),
(150,1101,o),
(169,1087,o),
(206,1087,cs),
(277,1087,l),
(277,385,ls),
(277,153,o),
(454,-32,o),
(685,-32,cs)
);
},
{
closed = 1;
nodes = (
(687,1252,o),
(701,1266,o),
(701,1295,cs),
(701,1300,o),
(700,1305,o),
(698,1311,c),
(690,1324,o),
(644,1367,o),
(561,1440,cs),
(472,1520,o),
(419,1560,o),
(402,1560,cs),
(373,1560,o),
(359,1546,o),
(359,1517,cs),
(359,1504,o),
(367,1491,o),
(384,1476,cs),
(620,1272,ls),
(635,1259,o),
(648,1252,o),
(658,1252,cs)
);
}
);
width = 1360;
}
);
note = Ugrave;
unicode = 217;
},
{
glyphname = Uacute;
lastChange = "2025-02-10 17:39:32 +0000";
layers = (
{
background = {
shapes = (
{
closed = 1;
nodes = (
(918,1560,qs),
(893,1560,o),
(759,1440,qs),
(634,1330,o),
(622,1311,q),
(619,1302,o),
(619,1295,qs),
(619,1252,o),
(662,1252,qs),
(677,1252,o),
(700,1272,qs),
(936,1476,ls),
(961,1498,o),
(961,1517,qs),
(961,1560,o)
);
},
{
closed = 1;
nodes = (
(1159,1172,qs),
(933,1172,ls),
(877,1172,o),
(877,1130,qs),
(877,1087,o),
(933,1087,qs),
(1004,1087,l),
(1004,385,ls),
(1004,250,o),
(816,52,o),
(681,52,qs),
(546,52,o),
(453,152,qs),
(361,249,o),
(361,385,qs),
(361,1087,l),
(432,1087,ls),
(488,1087,o),
(488,1130,qs),
(488,1172,o),
(432,1172,qs),
(206,1172,ls),
(150,1172,o),
(150,1130,qs),
(150,1087,o),
(206,1087,qs),
(277,1087,l),
(277,385,ls),
(277,211,o),
(512,-32,o),
(685,-32,qs),
(857,-32,o),
(974,91,qs),
(1088,211,o),
(1088,385,qs),
(1088,1087,l),
(1159,1087,ls),
(1215,1087,o),
(1215,1130,qs),
(1215,1172,o)
);
}
);
};
layerId = m01;
shapes = (
{
closed = 1;
nodes = (
(800,-32,o),
(896,9,o),
(974,91,cs),
(1050,171,o),
(1088,269,o),
(1088,385,cs),
(1088,1087,l),
(1159,1087,ls),
(1196,1087,o),
(1215,1101,o),
(1215,1130,cs),
(1215,1158,o),
(1196,1172,o),
(1159,1172,cs),
(933,1172,ls),
(896,1172,o),
(877,1158,o),
(877,1130,cs),
(877,1101,o),
(896,1087,o),
(933,1087,cs),
(1004,1087,l),
(1004,385,ls),
(1004,205,o),
(861,52,o),
(681,52,cs),
(591,52,o),
(515,85,o),
(453,152,cs),
(392,217,o),
(361,294,o),
(361,385,cs),
(361,1087,l),
(432,1087,ls),
(469,1087,o),
(488,1101,o),
(488,1130,cs),
(488,1158,o),
(469,1172,o),
(432,1172,cs),
(206,1172,ls),
(169,1172,o),
(150,1158,o),
(150,1130,cs),
(150,1101,o),
(169,1087,o),
(206,1087,cs),
(277,1087,l),
(277,385,ls),
(277,153,o),
(454,-32,o),
(685,-32,cs)
);
},
{
closed = 1;
nodes = (
(672,1252,o),
(685,1259,o),
(700,1272,cs),
(936,1476,ls),
(953,1491,o),
(961,1504,o),
(961,1517,cs),
(961,1546,o),
(947,1560,o),
(918,1560,cs),
(901,1560,o),
(848,1520,o),
(759,1440,cs),
(676,1367,o),
(630,1324,o),
(622,1311,c),
(620,1305,o),
(619,1300,o),
(619,1295,cs),
(619,1266,o),
(633,1252,o),
(662,1252,cs)
);
}
);
width = 1360;
}
);
note = Uacute;
unicode = 218;
},
{
glyphname = Ucircumflex;
lastChange = "2025-02-10 17:39:32 +0000";
layers = (
{
background = {
shapes = (
{
closed = 1;
nodes = (
(923,1324,qs),
(652,1530,l),
(382,1324,ls),
(354,1303,o),
(354,1282,qs),
(354,1240,o),
(396,1240,qs),
(418,1240,o),
(529,1326,qs),
(590,1376,o),
(652,1426,q),
(714,1376,o),
(776,1327,qs),
(887,1240,o),
(908,1240,qs),
(951,1240,o),
(951,1282,qs),
(951,1303,o)
);
},
{
closed = 1;
nodes = (
(1159,1172,qs),
(933,1172,ls),
(877,1172,o),
(877,1130,qs),
(877,1087,o),
(933,1087,qs),
(1004,1087,l),
(1004,385,ls),
(1004,250,o),
(816,52,o),
(681,52,qs),
(546,52,o),
(453,152,qs),
(361,249,o),
(361,385,qs),
(361,1087,l),
(432,1087,ls),
(488,1087,o),
(488,1130,qs),
(488,1172,o),
(432,1172,qs),
(206,1172,ls),
(150,1172,o),
(150,1130,qs),
(150,1087,o),
(206,1087,qs),
(277,1087,l),
(277,385,ls),
(277,211,o),
(512,-32,o),
(685,-32,qs),
(857,-32,o),
(974,91,qs),
(1088,211,o),
(1088,385,qs),
(1088,1087,l),
(1159,1087,ls),
(1215,1087,o),
(1215,1130,qs),
(1215,1172,o)
);
}
);
};
layerId = m01;
shapes = (
{
closed = 1;
nodes = (
(800,-32,o),
(896,9,o),
(974,91,cs),
(1050,171,o),
(1088,269,o),
(1088,385,cs),
(1088,1087,l),
(1159,1087,ls),
(1196,1087,o),
(1215,1101,o),
(1215,1130,cs),
(1215,1158,o),
(1196,1172,o),
(1159,1172,cs),
(933,1172,ls),
(896,1172,o),
(877,1158,o),
(877,1130,cs),
(877,1101,o),
(896,1087,o),
(933,1087,cs),
(1004,1087,l),
(1004,385,ls),
(1004,205,o),
(861,52,o),
(681,52,cs),
(591,52,o),
(515,85,o),
(453,152,cs),
(392,217,o),
(361,294,o),
(361,385,cs),
(361,1087,l),
(432,1087,ls),
(469,1087,o),
(488,1101,o),
(488,1130,cs),
(488,1158,o),
(469,1172,o),
(432,1172,cs),
(206,1172,ls),
(169,1172,o),
(150,1158,o),
(150,1130,cs),
(150,1101,o),
(169,1087,o),
(206,1087,cs),
(277,1087,l),
(277,385,ls),
(277,153,o),
(454,-32,o),
(685,-32,cs)
);
},
{
closed = 1;
nodes = (
(411,1240,o),
(455,1269,o),
(529,1326,cs),
(652,1426,l),
(776,1327,ls),
(850,1269,o),
(894,1240,o),
(908,1240,cs),
(937,1240,o),
(951,1254,o),
(951,1282,cs),
(951,1296,o),
(942,1310,o),
(923,1324,cs),
(652,1530,l),
(382,1324,ls),
(363,1310,o),
(354,1296,o),
(354,1282,cs),
(354,1254,o),
(368,1240,o),
(396,1240,cs)
);
}
);
width = 1360;
}
);
note = Ucircumflex;
unicode = 219;
},
{
glyphname = Udieresis;
lastChange = "2025-02-10 17:39:32 +0000";
layers = (
{
background = {
shapes = (
{
closed = 1;
nodes = (
(837,1394,o),
(805,1394,qs),
(773,1394,o),
(728,1349,o),
(728,1317,qs),
(728,1285,o),
(773,1240,o),
(805,1240,qs),
(837,1240,o),
(882,1285,o),
(882,1317,qs),
(882,1348,o)
);
},
{
closed = 1;
nodes = (
(537,1394,o),
(505,1394,qs),
(473,1394,o),
(428,1349,o),
(428,1317,qs),
(428,1285,o),
(473,1240,o),
(505,1240,qs),
(537,1240,o),
(582,1285,o),
(582,1317,qs),
(582,1348,o)
);
},
{
closed = 1;
nodes = (
(1159,1172,qs),
(933,1172,ls),
(877,1172,o),
(877,1130,qs),
(877,1087,o),
(933,1087,qs),
(1004,1087,l),
(1004,385,ls),
(1004,250,o),
(816,52,o),
(681,52,qs),
(546,52,o),
(453,152,qs),
(361,249,o),
(361,385,qs),
(361,1087,l),
(432,1087,ls),
(488,1087,o),
(488,1130,qs),
(488,1172,o),
(432,1172,qs),
(206,1172,ls),
(150,1172,o),
(150,1130,qs),
(150,1087,o),
(206,1087,qs),
(277,1087,l),
(277,385,ls),
(277,211,o),
(512,-32,o),
(685,-32,qs),
(857,-32,o),
(974,91,qs),
(1088,211,o),
(1088,385,qs),
(1088,1087,l),
(1159,1087,ls),
(1215,1087,o),
(1215,1130,qs),
(1215,1172,o)
);
}
);
};
layerId = m01;
shapes = (
{
closed = 1;
nodes = (
(800,-32,o),
(896,9,o),
(974,91,cs),
(1050,171,o),
(1088,269,o),
(1088,385,cs),
(1088,1087,l),
(1159,1087,ls),
(1196,1087,o),
(1215,1101,o),
(1215,1130,cs),
(1215,1158,o),
(1196,1172,o),
(1159,1172,cs),
(933,1172,ls),
(896,1172,o),
(877,1158,o),
(877,1130,cs),
(877,1101,o),
(896,1087,o),
(933,1087,cs),
(1004,1087,l),
(1004,385,ls),
(1004,205,o),
(861,52,o),
(681,52,cs),
(591,52,o),
(515,85,o),
(453,152,cs),
(392,217,o),
(361,294,o),
(361,385,cs),
(361,1087,l),
(432,1087,ls),
(469,1087,o),
(488,1101,o),
(488,1130,cs),
(488,1158,o),
(469,1172,o),
(432,1172,cs),
(206,1172,ls),
(169,1172,o),
(150,1158,o),
(150,1130,cs),
(150,1101,o),
(169,1087,o),
(206,1087,cs),
(277,1087,l),
(277,385,ls),
(277,153,o),
(454,-32,o),
(685,-32,cs)
);
},
{
closed = 1;
nodes = (
(548,1240,o),
(582,1274,o),
(582,1317,cs),
(582,1358,o),
(548,1394,o),
(505,1394,cs),
(462,1394,o),
(428,1360,o),
(428,1317,cs),
(428,1274,o),
(462,1240,o),
(505,1240,cs)
);
},
{
closed = 1;
nodes = (
(848,1240,o),
(882,1274,o),
(882,1317,cs),
(882,1358,o),
(848,1394,o),
(805,1394,cs),
(762,1394,o),
(728,1360,o),
(728,1317,cs),
(728,1274,o),
(762,1240,o),
(805,1240,cs)
);
}
);
width = 1360;
}
);
note = Udieresis;
unicode = 220;
},
{
glyphname = Yacute;
lastChange = "2025-02-10 17:39:32 +0000";
layers = (
{
background = {
shapes = (
{
closed = 1;
nodes = (
(918,1560,qs),
(893,1560,o),
(759,1440,qs),
(634,1330,o),
(622,1311,q),
(619,1302,o),
(619,1295,qs),
(619,1252,o),
(662,1252,qs),
(677,1252,o),
(700,1272,qs),
(936,1476,ls),
(961,1498,o),
(961,1517,qs),
(961,1560,o)
);
},
{
closed = 1;
nodes = (
(1165,1170,qs),
(919,1170,ls),
(863,1170,o),
(863,1128,qs),
(863,1085,o),
(919,1085,qs),
(990,1085,l),
(689,612,l),
(381,1085,l),
(452,1085,ls),
(508,1085,o),
(508,1128,qs),
(508,1170,o),
(452,1170,qs),
(206,1170,ls),
(150,1170,o),
(150,1128,qs),
(150,1085,o),
(206,1085,qs),
(277,1085,l),
(646,527,l),
(646,83,l),
(575,83,ls),
(519,83,o),
(519,40,qs),
(519,-2,o),
(575,-2,qs),
(802,-2,ls),
(858,-2,o),
(858,40,qs),
(858,83,o),
(802,83,qs),
(731,83,l),
(731,527,l),
(1094,1085,l),
(1165,1085,ls),
(1221,1085,o),
(1221,1128,qs),
(1221,1170,o)
);
}
);
};
layerId = m01;
shapes = (
{
closed = 1;
nodes = (
(802,-2,ls),
(839,-2,o),
(858,12,o),
(858,40,cs),
(858,69,o),
(839,83,o),
(802,83,cs),
(731,83,l),
(731,527,l),
(1094,1085,l),
(1165,1085,ls),
(1202,1085,o),
(1221,1099,o),
(1221,1128,cs),
(1221,1156,o),
(1202,1170,o),
(1165,1170,cs),
(919,1170,ls),
(882,1170,o),
(863,1156,o),
(863,1128,cs),
(863,1099,o),
(882,1085,o),
(919,1085,cs),
(990,1085,l),
(689,612,l),
(381,1085,l),
(452,1085,ls),
(489,1085,o),
(508,1099,o),
(508,1128,cs),
(508,1156,o),
(489,1170,o),
(452,1170,cs),
(206,1170,ls),
(169,1170,o),
(150,1156,o),
(150,1128,cs),
(150,1099,o),
(169,1085,o),
(206,1085,cs),
(277,1085,l),
(646,527,l),
(646,83,l),
(575,83,ls),
(538,83,o),
(519,69,o),
(519,40,cs),
(519,12,o),
(538,-2,o),
(575,-2,cs)
);
},
{
closed = 1;
nodes = (
(672,1252,o),
(685,1259,o),
(700,1272,cs),
(936,1476,ls),
(953,1491,o),
(961,1504,o),
(961,1517,cs),
(961,1546,o),
(947,1560,o),
(918,1560,cs),
(901,1560,o),
(848,1520,o),
(759,1440,cs),
(676,1367,o),
(630,1324,o),
(622,1311,c),
(620,1305,o),
(619,1300,o),
(619,1295,cs),
(619,1266,o),
(633,1252,o),
(662,1252,cs)
);
}
);
width = 1371;
}
);
note = Yacute;
unicode = 221;
},
{
glyphname = Thorn;
lastChange = "2025-02-10 17:39:32 +0000";
layers = (
{
background = {
shapes = (
{
closed = 1;
nodes = (
(826,932,o),
(653,932,qs),
(362,932,l),
(362,1089,l),
(433,1089,ls),
(489,1089,o),
(489,1132,qs),
(489,1174,o),
(433,1174,qs),
(206,1174,ls),
(150,1174,o),
(150,1132,qs),
(150,1089,o),
(206,1089,qs),
(277,1089,l),
(278,87,l),
(206,87,ls),
(150,87,o),
(150,44,qs),
(150,2,o),
(206,2,qs),
(433,2,ls),
(489,2,o),
(489,44,qs),
(489,87,o),
(433,87,qs),
(362,87,l),
(362,241,l),
(377,241,o),
(496,237,qs),
(531,236,o),
(561,236,qs),
(605,236,o),
(638,238,qs),
(716,243,o),
(769,261,qs),
(1045,353,o),
(1045,590,qs),
(1045,727,o)
);
},
{
closed = 1;
nodes = (
(851,395,qs),
(753,326,o),
(630,326,qs),
(362,326,l),
(362,847,l),
(661,847,ls),
(777,847,o),
(865,778,qs),
(961,703,o),
(961,590,qs),
(961,472,o)
);
}
);
};
layerId = m01;
shapes = (
{
closed = 1;
nodes = (
(433,2,ls),
(470,2,o),
(489,16,o),
(489,44,cs),
(489,73,o),
(470,87,o),
(433,87,cs),
(362,87,l),
(362,241,l),
(496,237,l),
(561,236,ls),
(590,236,o),
(616,237,o),
(638,238,cs),
(690,241,o),
(734,249,o),
(769,261,cs),
(953,322,o),
(1045,432,o),
(1045,590,cs),
(1045,773,o),
(884,932,o),
(653,932,cs),
(362,932,l),
(362,1089,l),
(433,1089,ls),
(470,1089,o),
(489,1103,o),
(489,1132,cs),
(489,1160,o),
(470,1174,o),
(433,1174,cs),
(206,1174,ls),
(169,1174,o),
(150,1160,o),
(150,1132,cs),
(150,1103,o),
(169,1089,o),
(206,1089,cs),
(277,1089,l),
(278,87,l),
(206,87,ls),
(169,87,o),
(150,73,o),
(150,44,cs),
(150,16,o),
(169,2,o),
(206,2,cs)
);
},
{
closed = 1;
nodes = (
(362,847,l),
(661,847,ls),
(738,847,o),
(806,824,o),
(865,778,cs),
(929,728,o),
(961,665,o),
(961,590,cs),
(961,511,o),
(924,446,o),
(851,395,cs),
(786,349,o),
(712,326,o),
(630,326,cs),
(362,326,l)
);
}
);
width = 1196;
}
);
note = Thorn;
unicode = 222;
},
{
glyphname = germandbls;
lastChange = "2025-02-10 17:39:32 +0000";
layers = (
{
background = {
shapes = (
{
closed = 1;
nodes = (
(756,747,q),
(876,829,o),
(876,954,qs),
(876,1081,o),
(700,1257,o),
(573,1257,qs),
(456,1257,o),
(369,1184,qs),
(278,1107,o),
(278,992,qs),
(277,86,l),
(206,86,ls),
(150,86,o),
(150,43,qs),
(150,1,o),
(206,1,qs),
(433,1,ls),
(489,1,o),
(489,43,qs),
(489,86,o),
(433,86,qs),
(362,86,l),
(362,992,ls),
(362,1072,o),
(429,1124,qs),
(491,1172,o),
(573,1172,qs),
(663,1172,o),
(792,1046,o),
(792,957,qs),
(792,846,o),
(677,803,q),
(611,786,o),
(546,769,q),
(533,756,o),
(533,739,qs),
(533,696,o),
(592,696,qs),
(746,696,o),
(966,487,o),
(966,334,qs),
(966,234,o),
(922,152,qs),
(869,53,o),
(778,53,qs),
(705,53,o),
(674,106,qs),
(662,126,o),
(643,206,qs),
(630,259,o),
(601,259,qs),
(559,259,o),
(559,212,qs),
(559,112,o),
(617,43,qs),
(679,-31,o),
(777,-31,qs),
(909,-31,o),
(986,91,qs),
(1051,196,o),
(1051,335,qs),
(1051,623,o)
);
}
);
};
layerId = m01;
shapes = (
{
closed = 1;
nodes = (
(865,-31,o),
(935,10,o),
(986,91,cs),
(1029,161,o),
(1051,242,o),
(1051,335,cs),
(1051,527,o),
(953,664,o),
(756,747,c),
(836,802,o),
(876,871,o),
(876,954,cs),
(876,1123,o),
(742,1257,o),
(573,1257,cs),
(495,1257,o),
(427,1233,o),
(369,1184,cs),
(308,1133,o),
(278,1069,o),
(278,992,cs),
(277,86,l),
(206,86,ls),
(169,86,o),
(150,72,o),
(150,43,cs),
(150,15,o),
(169,1,o),
(206,1,cs),
(433,1,ls),
(470,1,o),
(489,15,o),
(489,43,cs),
(489,72,o),
(470,86,o),
(433,86,cs),
(362,86,l),
(362,992,ls),
(362,1045,o),
(384,1089,o),
(429,1124,cs),
(470,1156,o),
(518,1172,o),
(573,1172,cs),
(693,1172,o),
(792,1076,o),
(792,957,cs),
(792,883,o),
(754,832,o),
(677,803,c),
(546,769,l),
(537,760,o),
(533,750,o),
(533,739,cs),
(533,710,o),
(553,696,o),
(592,696,cs),
(797,696,o),
(966,538,o),
(966,334,cs),
(966,267,o),
(951,207,o),
(922,152,cs),
(887,86,o),
(839,53,o),
(778,53,cs),
(729,53,o),
(695,71,o),
(674,106,cs),
(666,119,o),
(656,153,o),
(643,206,cs),
(634,241,o),
(620,259,o),
(601,259,cs),
(573,259,o),
(559,243,o),
(559,212,cs),
(559,145,o),
(578,89,o),
(617,43,cs),
(658,-6,o),
(712,-31,o),
(777,-31,cs)
);
}
);
width = 1201;
}
);
note = germandbls;
unicode = 223;
},
